<svg width="125" height="20" viewBox="0 0 125 20" fill="none" xmlns="http://www.w3.org/2000/svg">
<path fill-rule="evenodd" clip-rule="evenodd" d="M20.642 7.57806C20.5066 7.15899 20.1349 6.86135 19.6951 6.82171L13.7217 6.27932L11.3596 0.750703C11.1854 0.345527 10.7888 0.083252 10.3481 0.083252C9.90739 0.083252 9.51074 0.345527 9.33658 0.751651L6.97452 6.27932L1.00015 6.82171C0.56118 6.86229 0.190427 7.15899 0.0541577 7.57806C-0.0821116 7.99714 0.0437362 8.45679 0.375804 8.74654L4.89101 12.7064L3.55958 18.5713C3.46215 19.0026 3.62953 19.4483 3.98733 19.707C4.17966 19.8459 4.40467 19.9167 4.63157 19.9167C4.82721 19.9167 5.02128 19.8639 5.19544 19.7597L10.3481 16.6802L15.4989 19.7597C15.8758 19.9865 16.3509 19.9658 16.7079 19.707C17.0659 19.4475 17.2331 19.0016 17.1357 18.5713L15.8042 12.7064L20.3194 8.74733C20.6515 8.45679 20.7783 7.99792 20.642 7.57806ZM46.5088 7.57806C46.3733 7.15899 46.0016 6.86135 45.5618 6.82171L39.5884 6.27932L37.2263 0.750703C37.0522 0.345527 36.6555 0.083252 36.2148 0.083252C35.7741 0.083252 35.3775 0.345527 35.2033 0.751651L32.8412 6.27932L26.8669 6.82171C26.4279 6.86229 26.0572 7.15899 25.9209 7.57806C25.7846 7.99714 25.9105 8.45679 26.2425 8.74654L30.7577 12.7064L29.4263 18.5713C29.3289 19.0026 29.4963 19.4483 29.8541 19.707C30.0464 19.8459 30.2714 19.9167 30.4983 19.9167C30.6939 19.9167 30.888 19.8639 31.0622 19.7597L36.2148 16.6802L41.3656 19.7597C41.7425 19.9865 42.2176 19.9658 42.5746 19.707C42.9326 19.4475 43.0998 19.0016 43.0024 18.5713L41.671 12.7064L46.1862 8.74733C46.5182 8.45679 46.645 7.99792 46.5088 7.57806ZM71.4382 6.82171C71.878 6.86135 72.2497 7.15899 72.3852 7.57806C72.5214 7.99792 72.3946 8.45679 72.0626 8.74733L67.5474 12.7064L68.8788 18.5713C68.9762 19.0016 68.809 19.4475 68.451 19.707C68.094 19.9658 67.6189 19.9865 67.242 19.7597L62.0912 16.6802L56.9386 19.7597C56.7644 19.8639 56.5704 19.9167 56.3747 19.9167C56.1478 19.9167 55.9228 19.8459 55.7305 19.707C55.3727 19.4483 55.2053 19.0026 55.3027 18.5713L56.6341 12.7064L52.1189 8.74654C51.7869 8.45679 51.661 7.99714 51.7973 7.57806C51.9336 7.15899 52.3043 6.86229 52.7433 6.82171L58.7177 6.27932L61.0797 0.751651C61.2539 0.345527 61.6505 0.083252 62.0912 0.083252C62.5319 0.083252 62.9286 0.345527 63.1027 0.750703L65.4648 6.27932L71.4382 6.82171ZM98.2519 7.57806C98.1164 7.15899 97.7447 6.86135 97.305 6.82171L91.3315 6.27932L88.9695 0.750703C88.7953 0.345527 88.3987 0.083252 87.958 0.083252C87.5173 0.083252 87.1206 0.345527 86.9464 0.751651L84.5844 6.27932L78.61 6.82171C78.171 6.86229 77.8003 7.15899 77.664 7.57806C77.5278 7.99714 77.6536 8.45679 77.9857 8.74654L82.5009 12.7064L81.1694 18.5713C81.072 19.0026 81.2394 19.4483 81.5972 19.707C81.7895 19.8459 82.0145 19.9167 82.2414 19.9167C82.4371 19.9167 82.6311 19.8639 82.8053 19.7597L87.958 16.6802L93.1087 19.7597C93.4856 19.9865 93.9608 19.9658 94.3178 19.707C94.6757 19.4475 94.843 19.0016 94.7455 18.5713L93.4141 12.7064L97.9293 8.74733C98.2614 8.45679 98.3882 7.99792 98.2519 7.57806ZM123.172 6.82171C123.611 6.86135 123.983 7.15899 124.119 7.57806C124.255 7.99792 124.128 8.45679 123.796 8.74733L119.281 12.7064L120.612 18.5713C120.71 19.0016 120.542 19.4475 120.184 19.707C119.827 19.9658 119.352 19.9865 118.975 19.7597L113.825 16.6802L108.672 19.7597C108.498 19.8639 108.304 19.9167 108.108 19.9167C107.881 19.9167 107.656 19.8459 107.464 19.707C107.106 19.4483 106.939 19.0026 107.036 18.5713L108.368 12.7064L103.852 8.74654C103.52 8.45679 103.394 7.99714 103.531 7.57806C103.667 7.15899 104.038 6.86229 104.477 6.82171L110.451 6.27932L112.813 0.751651C112.987 0.345527 113.384 0.083252 113.825 0.083252C114.265 0.083252 114.662 0.345527 114.836 0.750703L117.198 6.27932L123.172 6.82171Z" fill="#E7D10D" fill-opacity="0.5"/>
</svg>
