<svg width="144" height="24" viewBox="0 0 144 24" fill="none" xmlns="http://www.w3.org/2000/svg">
<path fill-rule="evenodd" clip-rule="evenodd" d="M53.9356 8.77463C53.7785 8.28865 53.3475 7.94348 52.8375 7.89752L45.9103 7.26853L43.171 0.857222C42.9691 0.387356 42.5091 0.083207 41.998 0.083207C41.4869 0.083207 41.0269 0.387356 40.825 0.858321L38.0857 7.26853L31.1574 7.89752C30.6483 7.94458 30.2184 8.28865 30.0604 8.77463C29.9023 9.26061 30.0483 9.79365 30.4334 10.1297L35.6695 14.7217L34.1255 21.5231C34.0125 22.0232 34.2066 22.5401 34.6216 22.84C34.8446 23.0012 35.1056 23.0832 35.3687 23.0832C35.5956 23.0832 35.8206 23.022 36.0226 22.9012L41.998 19.33L47.9712 22.9012C48.4083 23.1641 48.9593 23.1402 49.3733 22.84C49.7884 22.5392 49.9824 22.0221 49.8694 21.5231L48.3254 14.7217L53.5615 10.1306C53.9466 9.79365 54.0937 9.26153 53.9356 8.77463ZM23.9381 8.77465C23.781 8.28867 23.3499 7.9435 22.8399 7.89754L15.9127 7.26855L13.1735 0.857242C12.9715 0.387376 12.5115 0.0832267 12.0004 0.0832267C11.4894 0.0832267 11.0294 0.387376 10.8274 0.858341L8.08819 7.26855L1.15985 7.89754C0.65079 7.9446 0.220836 8.28867 0.0628081 8.77465C-0.0952202 9.26063 0.0507225 9.79367 0.435813 10.1297L5.67199 14.7218L4.12796 21.5231C4.01498 22.0232 4.20908 22.5401 4.62402 22.8401C4.84705 23.0012 5.10799 23.0832 5.37113 23.0832C5.59801 23.0832 5.82306 23.0221 6.02503 22.9012L12.0004 19.33L17.9737 22.9012C18.4107 23.1642 18.9617 23.1402 19.3758 22.8401C19.7909 22.5392 19.9848 22.0221 19.8718 21.5231L18.3278 14.7218L23.564 10.1306C23.9491 9.79367 24.0961 9.26155 23.9381 8.77465ZM82.8441 7.89752C83.3541 7.94348 83.7851 8.28865 83.9423 8.77463C84.1003 9.26153 83.9532 9.79365 83.5681 10.1306L78.332 14.7217L79.876 21.5231C79.989 22.0221 79.7951 22.5392 79.3799 22.84C78.9659 23.1402 78.4149 23.1641 77.9778 22.9012L72.0046 19.33L66.0292 22.9012C65.8272 23.022 65.6022 23.0832 65.3753 23.0832C65.1122 23.0832 64.8512 23.0012 64.6282 22.84C64.2133 22.5401 64.0192 22.0232 64.1321 21.5231L65.6762 14.7217L60.44 10.1297C60.0549 9.79365 59.909 9.26061 60.067 8.77463C60.225 8.28865 60.655 7.94458 61.164 7.89752L68.0924 7.26853L70.8316 0.858321C71.0336 0.387356 71.4935 0.083207 72.0046 0.083207C72.5157 0.083207 72.9757 0.387356 73.1777 0.857222L75.9169 7.26853L82.8441 7.89752ZM113.94 8.77463C113.783 8.28865 113.352 7.94348 112.842 7.89752L105.914 7.26853L103.175 0.857222C102.973 0.387356 102.513 0.083207 102.002 0.083207C101.491 0.083207 101.031 0.387356 100.829 0.858321L98.0899 7.26853L91.1616 7.89752C90.6525 7.94458 90.2226 8.28865 90.0645 8.77463C89.9065 9.26061 90.0525 9.79365 90.4375 10.1297L95.6737 14.7217L94.1297 21.5231C94.0167 22.0232 94.2108 22.5401 94.6257 22.84C94.8488 23.0012 95.1097 23.0832 95.3729 23.0832C95.5997 23.0832 95.8248 23.022 96.0268 22.9012L102.002 19.33L107.975 22.9012C108.412 23.1641 108.963 23.1402 109.377 22.84C109.793 22.5392 109.987 22.0221 109.874 21.5231L108.33 14.7217L113.566 10.1306C113.951 9.79365 114.098 9.26153 113.94 8.77463ZM142.839 7.89752C143.349 7.94348 143.78 8.28865 143.937 8.77463C144.095 9.26153 143.948 9.79365 143.563 10.1306L138.327 14.7217L139.871 21.5231C139.984 22.0221 139.79 22.5392 139.375 22.84C138.961 23.1402 138.41 23.1641 137.973 22.9012L132 19.33L126.024 22.9012C125.822 23.022 125.597 23.0832 125.37 23.0832C125.107 23.0832 124.846 23.0012 124.623 22.84C124.208 22.5401 124.014 22.0232 124.127 21.5231L125.671 14.7217L120.435 10.1297C120.05 9.79365 119.904 9.26061 120.062 8.77463C120.22 8.28865 120.65 7.94458 121.159 7.89752L128.087 7.26853L130.827 0.858321C131.029 0.387356 131.489 0.083207 132 0.083207C132.511 0.083207 132.971 0.387356 133.173 0.857222L135.912 7.26853L142.839 7.89752Z" fill="#FEE715"/>
</svg>
