<svg width="144" height="24" viewBox="0 0 144 24" fill="none" xmlns="http://www.w3.org/2000/svg">
<path fill-rule="evenodd" clip-rule="evenodd" d="M53.9356 8.77467C53.7785 8.28869 53.3475 7.94353 52.8375 7.89757L45.9102 7.26858L43.171 0.857267C42.9691 0.387401 42.5091 0.083252 41.998 0.083252C41.4869 0.083252 41.0269 0.387401 40.825 0.858366L38.0857 7.26858L31.1574 7.89757C30.6483 7.94463 30.2184 8.28869 30.0604 8.77467C29.9023 9.26065 30.0483 9.79369 30.4334 10.1297L35.6695 14.7218L34.1255 21.5231C34.0125 22.0232 34.2066 22.5401 34.6216 22.8401C34.8446 23.0012 35.1056 23.0832 35.3687 23.0832C35.5956 23.0832 35.8206 23.0221 36.0226 22.9012L41.998 19.33L47.9712 22.9012C48.4083 23.1642 48.9593 23.1402 49.3733 22.8401C49.7884 22.5392 49.9824 22.0221 49.8694 21.5231L48.3254 14.7218L53.5615 10.1306C53.9466 9.79369 54.0937 9.26157 53.9356 8.77467ZM23.9381 8.77469C23.781 8.28871 23.3499 7.94355 22.8399 7.89759L15.9127 7.2686L13.1735 0.857287C12.9715 0.387421 12.5115 0.0832717 12.0004 0.0832717C11.4894 0.0832717 11.0294 0.387421 10.8274 0.858386L8.08819 7.2686L1.15985 7.89759C0.650788 7.94465 0.220834 8.28871 0.0628054 8.77469C-0.0952228 9.26067 0.0507198 9.79371 0.435811 10.1297L5.67198 14.7218L4.12796 21.5232C4.01498 22.0232 4.20908 22.5402 4.62402 22.8401C4.84705 23.0012 5.10799 23.0833 5.37113 23.0833C5.59801 23.0833 5.82305 23.0221 6.02503 22.9013L12.0004 19.33L17.9736 22.9013C18.4107 23.1642 18.9617 23.1402 19.3758 22.8401C19.7909 22.5392 19.9848 22.0221 19.8718 21.5232L18.3278 14.7218L23.564 10.1306C23.9491 9.79371 24.0961 9.26159 23.9381 8.77469ZM82.8441 7.89757C83.3541 7.94353 83.7851 8.28869 83.9423 8.77467C84.1003 9.26157 83.9532 9.79369 83.5681 10.1306L78.332 14.7218L79.876 21.5231C79.989 22.0221 79.7951 22.5392 79.3799 22.8401C78.9659 23.1402 78.4149 23.1642 77.9778 22.9012L72.0046 19.33L66.0292 22.9012C65.8272 23.0221 65.6022 23.0832 65.3753 23.0832C65.1122 23.0832 64.8512 23.0012 64.6282 22.8401C64.2133 22.5401 64.0192 22.0232 64.1321 21.5231L65.6762 14.7218L60.44 10.1297C60.0549 9.79369 59.909 9.26065 60.067 8.77467C60.225 8.28869 60.655 7.94463 61.164 7.89757L68.0924 7.26858L70.8316 0.858366C71.0336 0.387401 71.4935 0.083252 72.0046 0.083252C72.5157 0.083252 72.9757 0.387401 73.1776 0.857267L75.9169 7.26858L82.8441 7.89757ZM113.94 8.77467C113.783 8.28869 113.352 7.94353 112.842 7.89757L105.914 7.26858L103.175 0.857267C102.973 0.387401 102.513 0.083252 102.002 0.083252C101.491 0.083252 101.031 0.387401 100.829 0.858366L98.0899 7.26858L91.1616 7.89757C90.6525 7.94463 90.2226 8.28869 90.0645 8.77467C89.9065 9.26065 90.0524 9.79369 90.4375 10.1297L95.6737 14.7218L94.1297 21.5231C94.0167 22.0232 94.2108 22.5401 94.6257 22.8401C94.8488 23.0012 95.1097 23.0832 95.3729 23.0832C95.5997 23.0832 95.8248 23.0221 96.0268 22.9012L102.002 19.33L107.975 22.9012C108.412 23.1642 108.963 23.1402 109.377 22.8401C109.793 22.5392 109.987 22.0221 109.874 21.5231L108.33 14.7218L113.566 10.1306C113.951 9.79369 114.098 9.26157 113.94 8.77467ZM142.839 7.89757C143.349 7.94353 143.78 8.28869 143.937 8.77467C144.095 9.26157 143.948 9.79369 143.563 10.1306L138.327 14.7218L139.871 21.5231C139.984 22.0221 139.79 22.5392 139.375 22.8401C138.961 23.1402 138.41 23.1642 137.973 22.9012L132 19.33L126.024 22.9012C125.822 23.0221 125.597 23.0832 125.37 23.0832C125.107 23.0832 124.846 23.0012 124.623 22.8401C124.208 22.5401 124.014 22.0232 124.127 21.5231L125.671 14.7218L120.435 10.1297C120.05 9.79369 119.904 9.26065 120.062 8.77467C120.22 8.28869 120.65 7.94463 121.159 7.89757L128.087 7.26858L130.827 0.858366C131.029 0.387401 131.489 0.083252 132 0.083252C132.511 0.083252 132.971 0.387401 133.173 0.857267L135.912 7.26858L142.839 7.89757Z" fill="#E7D10D" fill-opacity="0.5"/>
</svg>
