<svg width="101" height="16" viewBox="0 0 101 16" fill="none" xmlns="http://www.w3.org/2000/svg">
<path fill-rule="evenodd" clip-rule="evenodd" d="M37.8299 6.04617C37.7197 5.7081 37.4173 5.46798 37.0596 5.43601L32.2009 4.99845L30.2797 0.538409C30.138 0.211546 29.8154 -3.65973e-05 29.4569 -3.65973e-05C29.0985 -3.65973e-05 28.7758 0.211546 28.6342 0.539173L26.7129 4.99845L21.8535 5.43601C21.4964 5.46875 21.1948 5.7081 21.084 6.04617C20.9732 6.38424 21.0755 6.75505 21.3456 6.9888L25.0182 10.1833L23.9353 14.9147C23.856 15.2625 23.9922 15.6221 24.2832 15.8308C24.4396 15.9429 24.6226 16 24.8072 16C24.9663 16 25.1242 15.9574 25.2658 15.8733L29.4569 13.389L33.6465 15.8733C33.953 16.0563 34.3395 16.0396 34.6299 15.8308C34.9211 15.6215 35.0571 15.2618 34.9778 14.9147L33.8949 10.1833L37.5675 6.98944C37.8376 6.75505 37.9407 6.38488 37.8299 6.04617ZM16.7899 6.04619C16.6797 5.70812 16.3774 5.468 16.0197 5.43603L11.161 4.99847L9.23973 0.538428C9.09807 0.211565 8.77544 -1.75536e-05 8.41698 -1.75536e-05C8.05852 -1.75536e-05 7.73589 0.211565 7.59422 0.539192L5.67297 4.99847L0.813507 5.43603C0.456458 5.46876 0.154893 5.70812 0.0440537 6.04619C-0.0667856 6.38426 0.035577 6.75507 0.305675 6.98882L3.97827 10.1833L2.89531 14.9147C2.81606 15.2626 2.9522 15.6222 3.24324 15.8308C3.39967 15.9429 3.58269 16 3.76725 16C3.92638 16 4.08423 15.9574 4.22589 15.8734L8.41698 13.389L12.6065 15.8734C12.9131 16.0563 13.2996 16.0396 13.5899 15.8308C13.8811 15.6215 14.0171 15.2618 13.9379 14.9147L12.8549 10.1833L16.5275 6.98946C16.7976 6.75507 16.9007 6.3849 16.7899 6.04619ZM58.1059 5.43601C58.4636 5.46798 58.766 5.7081 58.8762 6.04617C58.987 6.38488 58.8839 6.75505 58.6138 6.98944L54.9412 10.1833L56.0241 14.9147C56.1034 15.2618 55.9674 15.6215 55.6762 15.8308C55.3858 16.0396 54.9994 16.0563 54.6928 15.8733L50.5032 13.389L46.3122 15.8733C46.1705 15.9574 46.0126 16 45.8535 16C45.669 16 45.4859 15.9429 45.3295 15.8308C45.0385 15.6221 44.9023 15.2625 44.9816 14.9147L46.0645 10.1833L42.3919 6.9888C42.1218 6.75505 42.0195 6.38424 42.1303 6.04617C42.2412 5.7081 42.5427 5.46875 42.8998 5.43601L47.7592 4.99845L49.6805 0.539173C49.8221 0.211546 50.1448 -3.65973e-05 50.5032 -3.65973e-05C50.8617 -3.65973e-05 51.1843 0.211546 51.326 0.538409L53.2472 4.99845L58.1059 5.43601ZM79.9161 6.04617C79.8059 5.7081 79.5036 5.46798 79.1459 5.43601L74.2872 4.99845L72.3659 0.538409C72.2243 0.211546 71.9017 -3.65973e-05 71.5432 -3.65973e-05C71.1847 -3.65973e-05 70.8621 0.211546 70.7204 0.539173L68.7992 4.99845L63.9397 5.43601C63.5827 5.46875 63.2811 5.7081 63.1703 6.04617C63.0594 6.38424 63.1618 6.75505 63.4319 6.9888L67.1045 10.1833L66.0215 14.9147C65.9423 15.2625 66.0784 15.6221 66.3695 15.8308C66.5259 15.9429 66.7089 16 66.8935 16C67.0526 16 67.2104 15.9574 67.3521 15.8733L71.5432 13.389L75.7327 15.8733C76.0393 16.0563 76.4258 16.0396 76.7162 15.8308C77.0073 15.6215 77.1433 15.2618 77.0641 14.9147L75.9811 10.1833L79.6537 6.98944C79.9238 6.75505 80.027 6.38488 79.9161 6.04617ZM100.186 5.43601C100.544 5.46798 100.846 5.7081 100.956 6.04617C101.067 6.38488 100.964 6.75505 100.694 6.98944L97.0211 10.1833L98.104 14.9147C98.1833 15.2618 98.0473 15.6215 97.7561 15.8308C97.4657 16.0396 97.0793 16.0563 96.7727 15.8733L92.5831 13.389L88.3921 15.8733C88.2504 15.9574 88.0926 16 87.9334 16C87.7489 16 87.5658 15.9429 87.4094 15.8308C87.1184 15.6221 86.9822 15.2625 87.0615 14.9147L88.1444 10.1833L84.4718 6.9888C84.2017 6.75505 84.0994 6.38424 84.2102 6.04617C84.3211 5.7081 84.6226 5.46875 84.9797 5.43601L89.8391 4.99845L91.7604 0.539173C91.9021 0.211546 92.2247 -3.65973e-05 92.5831 -3.65973e-05C92.9416 -3.65973e-05 93.2642 0.211546 93.4059 0.538409L95.3272 4.99845L100.186 5.43601Z" fill="#E7D10D" fill-opacity="0.5"/>
</svg>
