<svg width="101" height="16" viewBox="0 0 101 16" fill="none" xmlns="http://www.w3.org/2000/svg">
<path fill-rule="evenodd" clip-rule="evenodd" d="M37.8299 6.04621C37.7197 5.70813 37.4173 5.46802 37.0596 5.43605L32.2009 4.99849L30.2797 0.538446C30.138 0.211582 29.8154 0 29.4569 0C29.0985 0 28.7758 0.211582 28.6342 0.53921L26.7129 4.99849L21.8535 5.43605C21.4964 5.46878 21.1948 5.70813 21.084 6.04621C20.9732 6.38428 21.0755 6.75509 21.3456 6.98884L25.0182 10.1833L23.9353 14.9147C23.856 15.2626 23.9922 15.6222 24.2832 15.8308C24.4396 15.9429 24.6226 16 24.8072 16C24.9663 16 25.1242 15.9575 25.2658 15.8734L29.4569 13.389L33.6465 15.8734C33.953 16.0563 34.3395 16.0396 34.6299 15.8308C34.9211 15.6215 35.0571 15.2618 34.9778 14.9147L33.8949 10.1833L37.5675 6.98947C37.8376 6.75509 37.9407 6.38492 37.8299 6.04621ZM16.7899 6.04623C16.6797 5.70815 16.3774 5.46804 16.0197 5.43606L11.161 4.99851L9.23973 0.538465C9.09806 0.211601 8.77544 1.90437e-05 8.41697 1.90437e-05C8.05851 1.90437e-05 7.73588 0.211601 7.59422 0.539229L5.67296 4.99851L0.813504 5.43606C0.456455 5.4688 0.15489 5.70815 0.044051 6.04623C-0.0667882 6.3843 0.0355743 6.75511 0.305673 6.98886L3.97827 10.1834L2.8953 14.9147C2.81606 15.2626 2.9522 15.6222 3.24323 15.8309C3.39967 15.9429 3.58269 16 3.76725 16C3.92638 16 4.08423 15.9575 4.22589 15.8734L8.41697 13.3891L12.6065 15.8734C12.9131 16.0563 13.2996 16.0396 13.5899 15.8309C13.8811 15.6216 14.0171 15.2618 13.9379 14.9147L12.8549 10.1834L16.5275 6.98949C16.7976 6.75511 16.9007 6.38494 16.7899 6.04623ZM58.1059 5.43605C58.4636 5.46802 58.766 5.70813 58.8762 6.04621C58.987 6.38492 58.8839 6.75509 58.6138 6.98947L54.9412 10.1833L56.0241 14.9147C56.1034 15.2618 55.9674 15.6215 55.6762 15.8308C55.3858 16.0396 54.9994 16.0563 54.6928 15.8734L50.5032 13.389L46.3122 15.8734C46.1705 15.9575 46.0126 16 45.8535 16C45.669 16 45.4859 15.9429 45.3295 15.8308C45.0385 15.6222 44.9023 15.2626 44.9816 14.9147L46.0645 10.1833L42.3919 6.98884C42.1218 6.75509 42.0195 6.38428 42.1303 6.04621C42.2412 5.70813 42.5427 5.46878 42.8998 5.43605L47.7592 4.99849L49.6805 0.53921C49.8221 0.211582 50.1448 0 50.5032 0C50.8617 0 51.1843 0.211582 51.326 0.538446L53.2472 4.99849L58.1059 5.43605ZM79.9161 6.04621C79.8059 5.70813 79.5036 5.46802 79.1459 5.43605L74.2872 4.99849L72.3659 0.538446C72.2243 0.211582 71.9017 0 71.5432 0C71.1847 0 70.8621 0.211582 70.7204 0.53921L68.7992 4.99849L63.9397 5.43605C63.5827 5.46878 63.2811 5.70813 63.1703 6.04621C63.0594 6.38428 63.1618 6.75509 63.4319 6.98884L67.1045 10.1833L66.0215 14.9147C65.9423 15.2626 66.0784 15.6222 66.3695 15.8308C66.5259 15.9429 66.7089 16 66.8935 16C67.0526 16 67.2104 15.9575 67.3521 15.8734L71.5432 13.389L75.7327 15.8734C76.0393 16.0563 76.4258 16.0396 76.7162 15.8308C77.0073 15.6215 77.1433 15.2618 77.0641 14.9147L75.9811 10.1833L79.6537 6.98947C79.9238 6.75509 80.027 6.38492 79.9161 6.04621ZM100.186 5.43605C100.544 5.46802 100.846 5.70813 100.956 6.04621C101.067 6.38492 100.964 6.75509 100.694 6.98947L97.0211 10.1833L98.104 14.9147C98.1833 15.2618 98.0473 15.6215 97.7561 15.8308C97.4657 16.0396 97.0793 16.0563 96.7727 15.8734L92.5831 13.389L88.3921 15.8734C88.2504 15.9575 88.0925 16 87.9334 16C87.7489 16 87.5658 15.9429 87.4094 15.8308C87.1184 15.6222 86.9822 15.2626 87.0615 14.9147L88.1444 10.1833L84.4718 6.98884C84.2017 6.75509 84.0994 6.38428 84.2102 6.04621C84.3211 5.70813 84.6226 5.46878 84.9797 5.43605L89.8391 4.99849L91.7604 0.53921C91.9021 0.211582 92.2247 0 92.5831 0C92.9416 0 93.2642 0.211582 93.4059 0.538446L95.3272 4.99849L100.186 5.43605Z" fill="#FEE715"/>
</svg>
