<svg width="174" height="197" viewBox="0 0 174 197" fill="none" xmlns="http://www.w3.org/2000/svg">
<g clip-path="url(#clip0_9958_794)">
<path d="M157.682 167.734C157.682 167.734 156.583 168.697 155.338 169.245C154.092 169.793 152.7 169.929 152.7 169.929C151.94 170.262 152.231 171.236 153.035 172.005C153.035 172.005 155.025 173.974 155.785 173.642L158.567 172.42C159.328 172.087 159.033 169.204 159.033 169.204C159.031 168.208 158.442 167.398 157.682 167.734Z" fill="#EAD2C7"/>
<path d="M166.135 171.2L159.319 171.46C159.319 171.46 158.264 172.537 156.204 173.088C155.114 173.38 153.408 172.654 153.408 172.654C153.408 172.654 152.694 174.572 153.343 176.268C153.991 177.965 154.321 180.305 154.321 180.305L173.676 179.271L173.442 176.71C173.153 173.464 169.88 170.999 166.135 171.2Z" fill="#AA6100"/>
<path d="M153.844 177.992L154.005 180.501L174 179.489L173.842 176.977L153.844 177.992Z" fill="#603400"/>
<path d="M166.546 168.476L162 169.951C163.183 169.218 164.45 168.296 164.655 167.616C164.728 167.374 164.666 167.196 164.6 167.09C164.502 166.929 164.341 166.834 164.145 166.82C163.826 166.801 163.366 167.049 162.861 167.434C162.878 167.357 162.886 167.286 162.889 167.216C162.9 166.948 162.818 166.727 162.643 166.553C162.474 166.384 162.259 166.315 162.041 166.365C161.09 166.58 160.101 169.357 159.689 170.652C159.67 170.674 159.654 170.696 159.637 170.715C159.632 170.718 159.626 170.72 159.621 170.723C159.501 170.783 159.452 170.92 159.507 171.037C159.523 171.07 159.545 171.097 159.569 171.119V171.121L159.967 173.336C159.983 173.432 160.06 173.508 160.161 173.532C160.261 173.557 160.365 173.522 160.43 173.445L161.651 171.972C161.684 172.499 161.796 173.178 162.134 173.554C162.229 173.661 162.349 173.715 162.474 173.715C162.507 173.715 162.54 173.712 162.572 173.704C163.104 173.582 163.535 172.204 163.802 171.07C163.832 170.939 163.744 170.808 163.603 170.778C163.464 170.748 163.325 170.832 163.292 170.963C163.049 171.989 162.701 172.946 162.485 173.186C162.156 172.736 162.139 171.667 162.164 171.277C162.169 171.17 162.101 171.072 161.995 171.034C161.888 170.996 161.769 171.029 161.698 171.113L160.381 172.703L160.092 171.091C160.092 171.086 160.095 171.083 160.098 171.078L166.712 168.931C166.848 168.888 166.919 168.748 166.873 168.62C166.829 168.5 166.68 168.432 166.546 168.476ZM162.169 166.842C162.175 166.842 162.18 166.839 162.185 166.839C162.202 166.839 162.226 166.847 162.267 166.888C162.344 166.965 162.376 167.066 162.371 167.199C162.36 167.491 162.175 167.87 161.902 168.271C161.441 168.71 160.989 169.188 160.605 169.61C161.153 168.167 161.782 166.929 162.169 166.842ZM162.311 168.579C163.118 167.81 163.815 167.281 164.11 167.308C164.129 167.308 164.137 167.311 164.15 167.333C164.164 167.357 164.18 167.398 164.156 167.483C163.99 168.037 162.687 168.964 161.341 169.771C161.681 169.403 162.03 168.988 162.311 168.579Z" fill="black"/>
<path d="M0.00027786 52.8564L0.171972 155.741C0.256457 171.487 13.1472 184.691 29.9051 183.93L66.664 180.119L75.8538 7.69153L17.8047 28.4588C7.9173 31.9937 -0.0542283 42.9173 0.00027786 52.8564Z" fill="#DD1B1B"/>
<path d="M60.7665 16.1878C59.2758 16.6051 24.2365 26.566 20.2603 37.9479C16.731 48.0506 16.156 73.5201 18.5515 113.647C18.6741 115.712 18.7941 117.714 18.9085 119.656C20.7181 150.321 21.6256 165.713 27.2643 172.979C32.8866 180.226 40.6674 182.001 40.9944 182.075C41.0435 182.086 41.0925 182.091 41.1416 182.091C41.4359 182.091 41.703 181.9 41.7738 181.62C41.8556 181.292 41.6376 180.962 41.2887 180.886C41.2124 180.87 33.6388 179.127 28.3136 172.261C22.9038 165.285 22.0017 150.013 20.2085 119.588C20.094 117.646 19.9768 115.644 19.8515 113.579C17.4995 74.1665 18.0691 48.1433 21.4976 38.3297C25.2612 27.5533 60.7801 17.4615 61.1399 17.3606C61.4833 17.2652 61.6795 16.9242 61.5759 16.5996C61.4724 16.2751 61.1099 16.0896 60.7665 16.1878Z" fill="black"/>
<path d="M52.8159 26.915C44.5937 32.7928 38.4863 45.4103 39.1785 55.0956L47.1173 166.337C47.7114 174.67 55.563 181.374 64.4094 180.55C64.4094 180.55 75.7003 178.636 94.8892 163.337C102.381 157.364 102.509 155.594 102.509 155.594L87.6317 2.02917L52.8159 26.915Z" fill="#A00A0A"/>
<path d="M49.4185 8.81251C49.4103 8.81251 49.4022 8.80432 49.394 8.80432C49.3913 8.80432 49.3885 8.80432 49.3858 8.80432C49.3695 8.80432 49.3531 8.79614 49.3368 8.79614H48.9307C48.5437 8.79614 48.2058 8.93252 47.9142 9.13163L35.4404 13.5311C34.5138 13.7929 33.9851 14.7067 34.2604 15.5795L34.2849 15.6558V26.4431C34.2849 27.3541 35.0725 28.0933 36.04 28.0933H36.4461C37.4135 28.0933 38.2012 27.3541 38.2012 26.4431V16.4741L47.1701 13.3102V21.7382C47.1701 22.6492 47.9578 23.3883 48.9252 23.3883H49.3313C50.2988 23.3883 51.0864 22.6492 51.0864 21.7382V10.4408C51.0919 9.55712 50.3451 8.85342 49.4185 8.81251Z" fill="black"/>
<path d="M5.3125 172.201C5.3125 172.201 11.5535 187.705 19.5304 187.934C27.5074 188.163 30.7096 183.935 30.7096 183.935C30.7096 183.935 25.6487 183.668 17.7753 180.485C8.59922 176.773 5.3125 172.201 5.3125 172.201Z" fill="black"/>
<path d="M54.7109 176.947C54.7109 176.947 59.7282 185.206 66.656 184.085C69.5775 183.613 72.1556 176.819 72.1556 176.819C72.1556 176.819 70.2915 175.772 63.372 175.412C58.8153 175.174 54.7109 176.947 54.7109 176.947Z" fill="black"/>
<path d="M17.874 184.02C14.1975 184.02 11.2188 186.925 11.2188 190.509C11.2188 194.092 14.2002 196.997 17.874 196.997C21.5504 196.997 24.5292 194.092 24.5292 190.509C24.5292 186.927 21.5504 184.02 17.874 184.02Z" fill="black"/>
<path d="M66.0302 181.68C62.3538 181.68 59.375 184.584 59.375 188.166C59.375 191.75 62.3538 194.652 66.0302 194.652C69.7066 194.652 72.6854 191.747 72.6854 188.166C72.6854 184.584 69.7066 181.68 66.0302 181.68Z" fill="black"/>
<path d="M104.595 89.495C104.758 85.9438 105.723 80.3279 105.723 80.3279L85.474 83.53C85.474 83.53 87.9731 89.9969 87.9486 93.529C87.9213 97.0612 85.2969 104.597 85.2969 104.597L107.028 100.151C107.028 100.151 104.431 93.0463 104.595 89.495Z" fill="#FFAE81"/>
<path d="M62.9846 67.5959C60.619 67.5959 58.7031 69.4179 58.7031 71.6681C58.7031 73.9156 60.619 75.7403 62.9846 75.7403C65.3502 75.7403 67.266 73.9183 67.266 71.6681C67.266 69.4179 65.3502 67.5959 62.9846 67.5959Z" fill="#FFAE81"/>
<path d="M122.625 48.7242C120.26 48.7242 118.344 50.5462 118.344 52.7964C118.344 55.0439 120.26 56.8686 122.625 56.8686C124.991 56.8686 126.907 55.0466 126.907 52.7964C126.907 50.549 124.988 48.7242 122.625 48.7242Z" fill="#FFAE81"/>
<path d="M112.961 23.2193C107.491 19.5317 96.5489 21.7628 88.8554 21.7628C71.3289 21.7628 56.1953 33.2429 56.1953 49.8835C56.1953 66.524 72.3373 86.1567 89.8638 86.1567C93.7719 86.1567 98.2032 86.2794 101.653 84.8256C113.675 79.7579 121.496 66.0085 121.496 53.0774C121.494 43.7439 119.954 27.9325 112.961 23.2193Z" fill="#FFAE81"/>
<path d="M127.978 28.827C127.978 26.5168 126.537 24.5939 124.613 24.1057C124.929 23.0801 125.068 21.9646 124.929 20.7972C124.446 16.725 121.097 13.733 117.448 14.1121C117.333 14.123 117.227 14.1694 117.115 14.1884C117.282 11.6055 115.845 7.31239 112.155 5.09492C108.04 2.62107 104.571 3.02747 101.968 4.11302C100.837 1.74008 98.387 0.0872115 95.291 0.00265862C92.1542 -0.0846218 89.219 1.46188 87.4367 3.80754C86.0222 3.19385 84.3762 2.82291 82.5993 2.82291C78.7511 2.82291 75.4562 4.47851 74.02 6.84053C69.684 5.6677 64.4433 6.50232 60.0337 9.48349C53.8909 13.6402 51.4217 20.5708 53.7982 25.9386C50.4352 26.1213 47.7644 28.7779 47.7644 32.0564C47.7644 33.9765 48.6964 35.6731 50.1299 36.7995C47.1375 37.1732 44.8047 39.7998 44.8047 43.0264C44.8047 46.1031 46.9223 48.6533 49.7157 49.207C47.5409 49.4879 45.8621 51.2608 45.8621 53.4155C45.8621 55.4693 47.3828 57.1877 49.4077 57.5859C48.9063 58.1887 48.5956 58.9551 48.5956 59.7924C48.5956 61.3008 49.574 62.5772 50.9366 63.0709C50.6205 63.51 50.3916 64.0119 50.3916 64.5847C50.3916 66.093 51.6752 67.3204 53.2531 67.3204C54.068 67.3204 54.7902 66.9876 55.3107 66.4639C55.6024 66.9276 55.9675 67.3831 56.4826 67.7786C58.0742 69.0033 60.0473 69.2105 60.8895 68.245C61.4127 67.645 61.3255 66.7312 60.8404 65.8312C60.8595 65.823 60.8786 65.823 60.8976 65.8148C62.1758 65.2829 63.0697 64.0419 63.0697 62.5909C63.0697 60.6571 60.7641 59.0097 60.7641 59.0097C60.7641 59.0097 62.2657 56.9231 62.2657 54.9893C62.2657 53.6883 61.5272 52.5673 60.4534 51.9645C60.7804 51.4354 60.9821 50.8189 60.9821 50.1534C60.9821 48.8551 60.2463 47.7314 59.178 47.1286C60.0719 46.4931 60.6578 45.4676 60.6578 44.3029C60.6578 43.1683 60.0964 42.17 59.2434 41.529C59.8838 41.9245 60.6415 42.1618 61.4563 42.1618C63.6584 42.1618 65.438 40.4762 65.5552 38.3569C65.9067 38.4469 66.2719 38.5097 66.6535 38.5097C68.5884 38.5097 70.1991 37.2714 70.7033 35.5994C71.5618 36.524 72.8154 37.1186 74.2407 37.1186C76.3229 37.1186 78.0643 35.8558 78.6721 34.1238C79.0318 34.2438 79.4079 34.3229 79.8113 34.3229C81.7789 34.3229 83.3814 32.7492 83.3814 30.8154C83.3814 30.6353 83.3514 30.4662 83.3242 30.2971C83.8938 31.4863 85.1174 32.3128 86.5428 32.3128C88.4777 32.3128 90.0448 30.7963 90.0966 28.9061C90.7425 29.5389 91.6336 29.9289 92.6175 29.9289C94.3535 29.9289 95.787 28.7097 96.1059 27.095C97.0216 28.5652 99.289 29.1843 101.513 28.4697C102.99 27.9951 104.096 27.0378 104.612 25.9577C105.266 26.6886 106.211 27.1659 107.28 27.1659C107.797 27.1659 108.291 27.0541 108.735 26.8605C108.656 27.1523 108.596 27.4551 108.596 27.7687C108.596 29.7025 110.188 31.2681 112.158 31.2681C113.115 31.2681 113.981 30.8945 114.622 30.289C114.532 30.5972 114.466 30.9163 114.466 31.2518C114.466 33.1856 116.061 34.7512 118.028 34.7512C118.162 34.7512 118.287 34.7266 118.418 34.713C117.497 35.553 116.889 36.8895 116.889 38.4033C116.889 39.9934 117.551 41.3954 118.557 42.2218C118.361 42.7755 118.241 43.381 118.241 44.0247C118.241 46.4904 119.843 48.4869 121.811 48.4869C123.779 48.4869 125.373 46.4904 125.373 44.0247C125.373 43.0373 125.109 42.1291 124.673 41.3899C126.55 40.7871 127.899 39.1861 127.899 37.2877C127.899 35.5558 126.774 34.0666 125.152 33.3601C126.793 32.6837 127.978 30.919 127.978 28.827Z" fill="#FF4E00"/>
<path d="M99.7221 59.3888C99.4578 59.4979 99.3379 59.7843 99.455 60.0325C99.4632 60.0489 100.172 61.6308 98.4985 63.1528C96.8769 64.6256 95.3589 63.8319 95.2853 63.7937C95.04 63.6574 94.7212 63.731 94.574 63.9628C94.4269 64.1947 94.5059 64.4947 94.7512 64.6338C95.1 64.8302 95.6832 65.0184 96.3809 65.0184C97.2312 65.0184 98.2477 64.7402 99.2207 63.8565C101.406 61.8681 100.447 59.7325 100.406 59.6425C100.292 59.3943 99.9838 59.2824 99.7221 59.3888Z" fill="#DB6C35"/>
<path d="M110.064 67.9396C110.061 67.8905 110.045 67.8441 110.01 67.8032C109.991 67.7814 109.969 67.7678 109.947 67.7541L109.399 66.8977C109.326 66.7831 109.165 66.745 109.042 66.8131C108.92 66.8813 108.879 67.0313 108.952 67.1486L109.443 67.9151C108.606 68.5069 105.123 70.8008 98.8822 72.7155C92.2352 74.7529 85.0976 74.7666 83.9748 74.7557L84.0048 74.4174C84.0157 74.2838 83.9121 74.1638 83.7677 74.1529C83.6232 74.1392 83.4979 74.2402 83.487 74.3765L83.3289 76.1221C83.318 76.2558 83.4216 76.3758 83.566 76.3867C83.5742 76.3867 83.5796 76.3867 83.5878 76.3867C83.7214 76.3867 83.8358 76.2912 83.8467 76.163L83.9312 75.2466C84.0075 75.2466 84.1165 75.2493 84.2555 75.2493C86.0324 75.2493 92.753 75.113 99.043 73.1819C105.232 71.2835 108.759 69.0033 109.71 68.3378L110.217 69.1315C110.266 69.2079 110.353 69.2515 110.44 69.2515C110.487 69.2515 110.533 69.2406 110.574 69.2161C110.696 69.1479 110.737 68.9979 110.664 68.8806L110.064 67.9396Z" fill="#D85036"/>
<path d="M107.234 47.6632C107.098 47.0822 106.482 46.7168 105.866 46.8449C105.248 46.9731 104.858 47.5514 104.997 48.1323L105.338 49.5643C105.477 50.1452 106.09 50.5107 106.706 50.3825C107.324 50.2543 107.714 49.6761 107.575 49.0951L107.234 47.6632Z" fill="black"/>
<path d="M77.2685 57.2477C77.1132 56.6694 76.4918 56.3203 75.8759 56.4649C75.2627 56.6094 74.8893 57.1959 75.042 57.7741L75.4235 59.1978C75.5788 59.7761 76.2002 60.1252 76.8161 59.9806C77.4293 59.8361 77.8027 59.2497 77.6501 58.6714L77.2685 57.2477Z" fill="black"/>
<path d="M105.126 38.237L102.313 38.5861C101.667 38.6652 101.215 39.2216 101.299 39.8271C101.384 40.4326 101.975 40.8608 102.621 40.779L105.434 40.4299C106.079 40.3508 106.532 39.7944 106.447 39.1889C106.363 38.5861 105.771 38.1579 105.126 38.237Z" fill="#8E2800"/>
<path d="M74.6757 47.9415L72.0512 48.9534C71.449 49.1852 71.1628 49.8316 71.4081 50.399C71.6561 50.9636 72.3429 51.2336 72.9451 51.0017L75.5696 49.9898C76.1719 49.758 76.4581 49.1116 76.2128 48.5443C75.9648 47.9797 75.278 47.7096 74.6757 47.9415Z" fill="#8E2800"/>
<path d="M108.571 32.7601C100.968 32.7601 94.7813 38.5725 94.7813 45.7158C94.7813 47.1723 95.0429 48.5742 95.5171 49.8807C94.8222 49.7143 93.4895 49.5316 91.8489 49.9953C90.4562 50.3908 89.1181 51.3945 88.2814 52.1255C86.1802 47.4832 81.2801 44.2211 75.5842 44.2211C72.6109 44.2211 69.7766 45.0967 67.3919 46.755C63.8872 49.1907 61.7942 53.0883 61.7942 57.1768C61.7942 59.577 62.4946 61.8272 63.7128 63.7583L60.3688 67.4104C60.0881 67.7187 60.1236 68.1796 60.4506 68.4442C60.5978 68.5642 60.7803 68.6215 60.9602 68.6215C61.181 68.6215 61.399 68.5342 61.5516 68.3651L64.6149 65.0184C67.1358 68.125 71.1147 70.1325 75.5815 70.1325C83.1851 70.1325 89.3716 64.3202 89.3716 57.1768C89.3716 55.9549 89.1862 54.7739 88.8483 53.6529C89.4342 53.0883 90.8841 51.7982 92.2985 51.3999C94.1054 50.8899 95.37 51.3672 95.419 51.3863C95.6643 51.4872 95.9341 51.4572 96.1467 51.3318C98.3787 55.6712 103.11 58.6715 108.574 58.6715C116.178 58.6715 122.364 52.8592 122.364 45.7158C122.361 38.5725 116.175 32.7601 108.571 32.7601ZM75.5815 68.6678C68.8391 68.6678 63.353 63.5128 63.353 57.1795C63.353 53.552 65.209 50.0962 68.3185 47.936C70.4334 46.4659 72.9461 45.6913 75.5815 45.6913C82.3239 45.6913 87.8099 50.8463 87.8099 57.1795C87.8099 63.5128 82.3239 68.6678 75.5815 68.6678ZM108.571 57.2041C101.829 57.2041 96.3429 52.0491 96.3429 45.7158C96.3429 39.3825 101.829 34.2275 108.571 34.2275C115.314 34.2275 120.8 39.3825 120.8 45.7158C120.8 52.0491 115.314 57.2041 108.571 57.2041Z" fill="black"/>
<path d="M140.544 121.189C130.97 116.045 120.08 131.313 120.08 131.313C120.08 131.313 111.907 139.548 109.904 145.368C107.903 151.191 87.2891 167.265 87.2891 167.265C87.2891 167.265 94.0288 180.943 114.537 180.046C135.045 179.148 140.253 159.049 140.253 159.049L147.131 172.261C147.131 172.261 153.738 171.926 156.286 170.663C158.831 169.397 160.213 167.262 160.213 167.262C160.213 167.262 150.118 126.333 140.544 121.189Z" fill="#59579B"/>
<path d="M147.876 149.517C140.3 130.923 138.027 130.749 137.28 130.691C135.378 130.544 133.628 134.665 131.862 139.272C131.51 140.191 131.205 140.985 131.023 141.337C128.965 145.295 126.526 149.209 123.771 152.975C118.745 159.849 112.447 166.517 105.05 172.791C104.89 172.927 104.879 173.159 105.023 173.309C105.099 173.388 105.206 173.429 105.312 173.429C105.405 173.429 105.5 173.399 105.574 173.333C113.014 167.022 119.353 160.31 124.414 153.39C127.188 149.596 129.646 145.646 131.723 141.659C131.925 141.271 132.222 140.5 132.595 139.52C133.53 137.087 135.702 131.422 137.174 131.422C137.187 131.422 137.201 131.422 137.217 131.425C137.978 131.482 140.469 133.389 147.146 149.779C150.844 158.856 154.041 168.009 154.073 168.099C154.141 168.293 154.359 168.397 154.567 168.334C154.771 168.271 154.883 168.064 154.817 167.87C154.782 167.78 151.58 158.61 147.876 149.517Z" fill="#282872"/>
<path d="M105.648 89.2496C105.648 89.2496 100.974 91.4453 95.9266 92.3808C90.8821 93.3164 87.361 92.3399 87.361 92.3399C87.361 92.3399 77.5226 115.101 76.7187 137.218C75.9147 159.339 80.1525 174.697 80.1525 174.697C80.1525 174.697 95.4933 169.646 105.768 157.487C115.374 146.118 120.803 130.43 120.803 130.43C120.803 130.43 121.201 117.962 116.601 106.378C112.003 94.7919 105.648 89.2496 105.648 89.2496Z" fill="#F9A935"/>
<path d="M140.198 150.37C139.985 150.409 139.849 150.6 139.887 150.799C140.702 154.789 139.86 158.719 139.852 158.757C139.808 158.957 139.945 159.15 140.154 159.191C140.182 159.197 140.209 159.199 140.233 159.199C140.413 159.199 140.577 159.079 140.615 158.907C140.65 158.741 141.501 154.803 140.653 150.662C140.615 150.463 140.411 150.332 140.198 150.37Z" fill="#282872"/>
<path d="M154.756 130.931C153.347 130.705 151.87 130.686 150.445 130.768C150.445 130.768 149.18 127.754 148.303 126.636C147.425 125.517 145.428 126.393 145.428 126.393L146.512 134.529C146.512 134.529 149.859 136.245 134.633 136.351C119.404 136.46 109.216 120.725 109.216 120.725L93.5078 131.627C93.5078 131.627 97.6694 137.532 110.756 143.363C123.843 149.192 143.504 142.054 143.504 142.054C143.504 142.054 148.333 141.443 150.489 141.795C152.246 142.082 153.563 143.669 155.38 143.846C156.727 143.977 156.994 142.881 157.13 141.88C157.348 140.251 157.479 138.615 157.525 136.976C157.569 135.465 157.833 133.594 157.138 132.186C156.65 131.196 155.841 131.106 154.756 130.931Z" fill="#FFAE81"/>
<path d="M92.1654 111.13C81.5394 121.241 92.2662 139.73 92.2662 139.73C92.2662 139.73 96.8202 136.913 105.151 129.519C112.815 122.716 113.851 118.745 113.851 118.745C113.851 118.745 102.791 101.019 92.1654 111.13Z" fill="#E08E22"/>
<path d="M108.869 111.522C103.727 106.995 98.5622 105.871 94.3298 108.358C83.4258 114.765 86.4591 127.928 88.2714 133.291C89.7758 137.745 91.7326 140.6 91.817 140.72C91.8743 140.802 91.9642 140.86 92.0678 140.881C92.0923 140.887 92.1196 140.89 92.1441 140.89C92.2231 140.89 92.2994 140.868 92.3648 140.827C92.3757 140.819 93.5585 140.06 95.0547 138.978C96.5427 137.897 97.9163 136.85 97.9299 136.839C98.0961 136.711 98.1234 136.482 97.9871 136.324C97.8509 136.165 97.6056 136.141 97.4393 136.269C97.4257 136.28 96.0576 137.322 94.5778 138.397C93.5749 139.125 92.7137 139.703 92.264 140C91.7162 139.133 90.2064 136.586 89.0182 133.072C87.2631 127.874 84.3061 115.12 94.7467 108.986C99.7504 106.046 104.901 109.035 108.341 112.062C111.458 114.806 113.592 118.038 114.023 118.718C113.873 119.206 113.292 120.9 111.968 122.528C111.837 122.689 111.87 122.918 112.042 123.041C112.213 123.163 112.459 123.133 112.589 122.972C114.254 120.927 114.8 118.838 114.821 118.75C114.843 118.66 114.83 118.565 114.78 118.483C114.756 118.439 112.448 114.67 108.869 111.522Z" fill="#BC6F08"/>
<path d="M104.677 83.4645C98.9867 86.7948 91.9037 86.7593 86.9654 86.1429C86.7556 86.1156 86.5566 86.2575 86.5266 86.4593C86.4994 86.6611 86.6493 86.8439 86.8618 86.8712C88.4044 87.0648 90.1486 87.2012 91.9991 87.2012C96.226 87.2012 100.993 86.4866 105.089 84.0891C105.271 83.9827 105.329 83.7563 105.214 83.5845C105.102 83.4099 104.86 83.3581 104.677 83.4645Z" fill="#DB6C35"/>
<path d="M98.681 3.95208C95.4788 2.04282 91.1755 2.88016 89.0906 5.82042C88.0823 7.24146 87.7334 8.93797 88.1068 10.599C88.4856 12.2792 89.5567 13.7193 91.1237 14.6548C91.2327 14.7203 91.3526 14.7503 91.4726 14.7503C91.6879 14.7503 91.8977 14.6494 92.0231 14.4666C92.2166 14.1802 92.1266 13.8038 91.8214 13.6238C90.5541 12.8683 89.6875 11.7037 89.3795 10.3481C89.0797 9.01161 89.3605 7.64513 90.1726 6.49957C91.8677 4.10754 95.3725 3.42839 97.9806 4.9858C99.2479 5.74132 100.115 6.90597 100.422 8.26154C100.722 9.59803 100.442 10.9645 99.6294 12.1101C99.4305 12.391 99.5122 12.7701 99.8093 12.9583C100.109 13.1438 100.512 13.0701 100.711 12.7892C101.72 11.3682 102.069 9.67167 101.695 8.01061C101.319 6.32501 100.248 4.88488 98.681 3.95208Z" fill="#8E2800"/>
<path d="M58.023 58.1532C57.6878 58.2732 57.5189 58.6278 57.6469 58.9414C57.8541 59.4488 57.8377 59.9997 57.6061 60.4934C57.3744 60.9844 56.9574 61.3607 56.426 61.5517C55.3277 61.9472 54.0904 61.4153 53.6653 60.3707C53.4581 59.8633 53.4745 59.3124 53.7061 58.8187C53.9378 58.3278 54.3548 57.9514 54.8862 57.7604C55.2214 57.6404 55.3904 57.2858 55.2623 56.9722C55.1342 56.6558 54.7581 56.4976 54.4229 56.6203C53.5644 56.9285 52.8886 57.534 52.5152 58.325C52.1445 59.116 52.12 59.997 52.4498 60.8071C52.9785 62.1026 54.2921 62.9045 55.6793 62.9045C56.0826 62.9045 56.4941 62.8363 56.892 62.6945C57.7505 62.3863 58.4264 61.7808 58.797 60.9898C59.1677 60.1988 59.1922 59.3178 58.8624 58.5078C58.7343 58.1887 58.3582 58.0305 58.023 58.1532Z" fill="#8E2800"/>
<path d="M60.4109 12.8384C58.3016 14.5758 57.0643 16.9188 56.9334 19.4363C56.8108 21.7574 57.6666 23.9612 59.3372 25.6386C59.4653 25.7668 59.6397 25.8323 59.8114 25.8323C59.9694 25.8323 60.1302 25.7777 60.2556 25.6659C60.5172 25.4341 60.5309 25.0495 60.2856 24.8013C58.8548 23.3666 58.1271 21.4819 58.2307 19.4935C58.3452 17.3088 59.4244 15.2714 61.2667 13.7549C64.9186 10.7491 70.4155 10.8419 73.5251 13.9594C73.7704 14.2049 74.1819 14.2185 74.4435 13.9867C74.7052 13.7549 74.7188 13.3703 74.4735 13.1221C70.8925 9.53539 64.5834 9.40447 60.4109 12.8384Z" fill="#8E2800"/>
<path d="M57.4123 28.5925C54.0738 28.5925 51.3594 31.1291 51.3594 34.2467C51.3594 34.5849 51.651 34.8576 52.0107 34.8576C52.3705 34.8576 52.6621 34.5849 52.6621 34.2467C52.6621 31.8028 54.7933 29.8145 57.415 29.8145C60.0368 29.8145 62.1679 31.8028 62.1679 34.2467C62.1679 36.6905 60.0368 38.6789 57.415 38.6789C57.0553 38.6789 56.7637 38.9516 56.7637 39.2898C56.7637 39.628 57.0553 39.9008 57.415 39.9008C60.7535 39.9008 63.4679 37.3642 63.4679 34.2467C63.4679 31.1291 60.7508 28.5925 57.4123 28.5925Z" fill="#8E2800"/>
<path d="M81.7289 22.9192C81.38 22.9983 81.1647 23.3256 81.2465 23.6557C81.4345 24.4003 81.3037 25.1667 80.8758 25.8186C80.448 26.4704 79.7748 26.9259 78.9818 27.1032C77.3466 27.4687 75.695 26.5168 75.3053 24.9812C75.2236 24.6539 74.872 24.4494 74.5232 24.5285C74.1743 24.6076 73.959 24.9349 74.0408 25.2649C74.515 27.1387 76.3055 28.4043 78.2759 28.4043C78.6084 28.4043 78.9463 28.3688 79.2843 28.2924C80.4153 28.0388 81.3746 27.3896 81.985 26.4595C82.5955 25.5295 82.7836 24.433 82.5165 23.372C82.4293 23.0447 82.0804 22.8401 81.7289 22.9192Z" fill="#8E2800"/>
<path d="M113.42 17.7615C113.069 17.7534 112.764 18.0206 112.753 18.3561C112.728 19.2589 112.412 20.1181 111.84 20.8409C110.295 22.7938 107.316 23.1784 105.198 21.7001C104.157 20.9745 103.481 19.9163 103.296 18.7216C103.244 18.3889 102.914 18.1543 102.557 18.2061C102.203 18.2552 101.955 18.5662 102.007 18.8989C102.244 20.4154 103.1 21.7601 104.421 22.682C105.522 23.4511 106.806 23.8221 108.076 23.8221C109.913 23.8221 111.717 23.0447 112.884 21.5719C113.617 20.6445 114.02 19.5453 114.053 18.3889C114.064 18.0507 113.78 17.7697 113.42 17.7615Z" fill="#8E2800"/>
<path d="M121.662 25.2076C119.264 25.2076 117.312 27.0433 117.312 29.2989C117.312 29.6371 117.604 29.9099 117.964 29.9099C118.324 29.9099 118.615 29.6371 118.615 29.2989C118.615 27.717 119.983 26.4296 121.662 26.4296C123.341 26.4296 124.709 27.717 124.709 29.2989C124.709 30.8809 123.341 32.1683 121.662 32.1683C121.302 32.1683 121.011 32.441 121.011 32.7792C121.011 33.1174 121.302 33.3902 121.662 33.3902C124.06 33.3902 126.009 31.5546 126.009 29.2989C126.009 27.0433 124.058 25.2076 121.662 25.2076Z" fill="#8E2800"/>
<path d="M122.352 49.5343C122.208 49.5398 122.096 49.6516 122.102 49.788C122.107 49.9216 122.224 50.0307 122.372 50.0225C123.609 49.9816 124.669 50.508 125.195 51.4299C125.598 52.1364 125.645 53.0692 125.315 53.8656C125.263 53.9911 125.329 54.1329 125.462 54.182C125.492 54.1929 125.525 54.1984 125.557 54.1984C125.661 54.1984 125.759 54.1384 125.8 54.0429C126.184 53.1183 126.127 52.0273 125.656 51.1981C125.029 50.1071 123.794 49.4852 122.352 49.5343Z" fill="#DB6C35"/>
<path d="M61.6126 68.6705C60.2772 69.1888 59.4269 70.2361 59.3425 71.469C59.277 72.4072 59.7076 73.4219 60.4626 74.1146C60.5416 74.1883 60.6561 74.2019 60.7514 74.161C60.7814 74.1474 60.8059 74.131 60.8305 74.1092C60.9313 74.0137 60.9286 73.8583 60.825 73.7628C60.1737 73.1655 59.8058 72.2981 59.8603 71.499C59.9338 70.4543 60.6642 69.5652 61.8116 69.1206C61.9478 69.0687 62.0078 68.9269 61.9533 68.8014C61.8961 68.6787 61.7435 68.6187 61.6126 68.6705Z" fill="#DB6C35"/>
</g>
<defs>
<clipPath id="clip0_9958_794">
<rect width="174" height="197" fill="white"/>
</clipPath>
</defs>
</svg>
