<svg width="268" height="311" viewBox="0 0 268 311" fill="none" xmlns="http://www.w3.org/2000/svg">
<path d="M216.208 222.205H37.3977C25.0615 222.205 15.0625 231.829 15.0625 243.697V288.512C15.0625 300.381 25.0615 310.004 37.3977 310.004H216.208C228.544 310.004 238.543 300.381 238.543 288.512V243.697C238.543 231.829 228.544 222.205 216.208 222.205Z" fill="#A00A0A"/>
<path d="M16.4545 233.812H4.33393C1.94006 233.812 0 235.678 0 237.983C0 240.287 1.94006 242.153 4.33393 242.153H16.4508C18.8446 242.153 20.7847 240.283 20.7847 237.983C20.7885 235.678 18.8484 233.812 16.4545 233.812Z" fill="black"/>
<path d="M16.5836 293.451H4.46674C2.07287 293.451 0.132812 295.317 0.132812 297.622C0.132812 299.926 2.07287 301.792 4.46674 301.792H16.5836C18.9774 301.792 20.9175 299.926 20.9175 297.622C20.9213 295.317 18.9774 293.451 16.5836 293.451Z" fill="black"/>
<path d="M264.124 268.061H238.57V275.906H264.124C266.264 275.906 267.996 274.238 267.996 272.179V271.785C267.996 269.73 266.261 268.061 264.124 268.061Z" fill="black"/>
<path d="M148.21 196.989C131.37 188.917 119.495 193.647 119.495 193.647L114.964 150.41L73.0396 200.221C73.0396 200.221 62.8061 206.355 62.5943 214.246C62.3863 222.137 66.1189 222.228 66.1189 222.228L166.68 222.375C166.684 222.375 165.05 205.061 148.21 196.989Z" fill="#205B9F"/>
<path d="M141.49 109.273L92.1682 114.253C92.1682 114.253 69.5418 113.825 66.6071 148.779C63.6724 183.732 70.8011 201.455 70.8011 201.455C70.8011 201.455 87.2783 208.414 115.506 208.899C146.04 209.421 160.732 201.962 160.732 201.962C160.732 201.962 170.894 153.945 166.261 137.331C160.32 116.005 141.49 109.273 141.49 109.273Z" fill="#198C10"/>
<path d="M80.6729 198.446C65.9051 199.755 54.8471 211.499 68.3292 252.651C77.8252 281.629 86.8788 309.997 86.8788 309.997L108.155 309.547C108.155 309.547 106.688 273.314 108.261 252.466C111.135 214.341 95.4408 197.137 80.6729 198.446Z" fill="#205B9F"/>
<path d="M149.434 197.648C134.666 196.338 120.862 215.344 123.733 253.465C125.302 274.313 132.106 309.463 132.106 309.463L151.276 309.868C151.276 309.868 159.191 282.495 166.251 252.878C175.192 215.374 164.202 198.957 149.434 197.648Z" fill="#205B9F"/>
<path d="M97.1333 297.353C91.1694 297.353 86.2834 300.668 86.6351 309.853L108.203 309.789C108.8 301.259 103.097 297.353 97.1333 297.353Z" fill="#E6F0F4"/>
<path d="M141.899 297.467C135.935 297.467 131.049 300.778 131.401 309.967L152.968 309.899C153.566 301.376 147.863 297.467 141.899 297.467Z" fill="#E6F0F4"/>
<path d="M96.8352 307.219C91.3175 307.151 86.3672 306.194 86.3672 306.194V309.664C86.3672 309.664 89.6611 310.909 96.9222 310.996C104.433 311.087 108.438 309.664 108.438 309.664V306.194C108.438 306.194 104.213 307.314 96.8352 307.219Z" fill="#9AA8AD"/>
<path d="M141.671 307.204C136.153 307.136 131.203 306.178 131.203 306.178V309.649C131.203 309.649 134.497 310.894 141.758 310.981C149.269 311.072 153.274 309.649 153.274 309.649V306.178C153.274 306.178 149.049 307.295 141.671 307.204Z" fill="#9AA8AD"/>
<path d="M65.2031 164.409C65.2031 164.409 66.8822 195.948 84.6907 198.56C102.499 201.171 89.5351 145.653 89.5351 145.653L65.2031 164.409Z" fill="#FFAE81"/>
<path d="M145.688 197.863C163.629 201.254 169.472 155.451 169.472 155.451L140 151.878C140 151.878 129.248 194.756 145.688 197.863Z" fill="#FFAE81"/>
<path d="M91.1098 115.021C79.1972 114.707 64.3045 134.409 63.586 149.812C62.8674 165.211 65.4806 173.764 65.4806 173.764C65.4806 173.764 71.9324 167.519 80.6683 163.523C92.1082 158.289 98.7641 158.353 98.7641 158.353C98.7641 158.353 100.549 115.271 91.1098 115.021Z" fill="#198C10"/>
<path d="M142.453 112.652C133.013 112.902 134.798 155.981 134.798 155.981C134.798 155.981 144.2 157.786 152.626 161.986C161.052 166.187 166.236 172.307 166.236 172.307C166.236 172.307 171.191 162.009 170.472 146.61C169.757 131.207 154.365 112.334 142.453 112.652Z" fill="#198C10"/>
<path d="M107.384 120.221C103.266 115.99 98.3158 117.069 94.0877 115.543C89.8143 113.999 88.5474 111.468 85.8813 108.887C82.8823 105.98 80.5073 103.554 80.5073 103.554C80.5073 103.554 80.0573 117.659 81.5057 120.323C82.9542 122.987 97.2115 130.216 97.2115 130.216C97.2115 130.216 60.7135 193.939 84.8753 198.525C109.238 203.15 109.064 144.956 108.961 128.271C108.939 124.323 107.925 120.777 107.384 120.221Z" fill="#FFAE81"/>
<path d="M151.165 121.86C155.964 116.304 155.82 102.158 155.82 102.158L148.915 108.803C148.915 108.803 145.621 114.014 140.424 115.691C137.747 116.558 128.697 117.156 124.707 121.5C124.186 122.068 123.531 128.032 123.531 128.032C123.531 128.032 125.517 202.889 149.731 197.583C173.746 192.323 135.334 129.648 135.334 129.648C135.334 129.648 149.168 124.172 151.165 121.86Z" fill="#FFAE81"/>
<path d="M70.9163 73.4412C66.8887 73.4412 63.625 76.5823 63.625 80.4538C63.625 84.3291 66.8887 87.4664 70.9163 87.4664C74.9439 87.4664 78.2076 84.3253 78.2076 80.4538C78.2038 76.5823 74.9439 73.4412 70.9163 73.4412Z" fill="#FFAE81"/>
<path d="M164.744 69.6606C160.717 69.6606 157.453 72.8018 157.453 76.677C157.453 80.5523 160.717 83.6934 164.744 83.6934C168.772 83.6934 172.036 80.5523 172.036 76.677C172.032 72.798 168.768 69.6606 164.744 69.6606Z" fill="#FFAE81"/>
<path d="M164.429 70.7354C164.217 70.7354 164.047 70.8981 164.047 71.1024C164.047 71.3068 164.217 71.4695 164.429 71.4695C167.723 71.4695 170.404 73.903 170.404 76.8965C170.404 78.134 169.958 79.2996 169.111 80.2684C168.975 80.4236 168.997 80.6544 169.156 80.7869C169.228 80.8437 169.315 80.8739 169.402 80.8739C169.512 80.8739 169.617 80.8285 169.693 80.7415C170.642 79.6553 171.164 78.2891 171.164 76.8965C171.168 73.498 168.146 70.7354 164.429 70.7354Z" fill="#DB6C35"/>
<path d="M71.3563 74.3154C67.6388 74.3154 64.6172 77.0781 64.6172 80.4765C64.6172 81.8881 65.1277 83.2203 66.0883 84.3216C66.1639 84.4086 66.2698 84.454 66.3795 84.454C66.4665 84.454 66.5535 84.4275 66.6253 84.367C66.7879 84.2383 66.8068 84.0037 66.6707 83.8485C65.8236 82.8797 65.3773 81.7141 65.3773 80.4765C65.3773 77.483 68.0586 75.0496 71.3525 75.0496C71.5643 75.0496 71.7345 74.8869 71.7345 74.6825C71.7383 74.4782 71.5681 74.3154 71.3563 74.3154Z" fill="#DB6C35"/>
<path d="M115.263 26.0786C90.0465 26.0786 71.1565 31.3315 72.4536 77.6533C73.2062 104.455 92.8942 119.831 118.111 119.831C143.328 119.831 163.697 101.038 163.629 77.7442C163.489 29.2689 140.48 26.0786 115.263 26.0786Z" fill="#FFAE81"/>
<path d="M81.0654 103.335C80.9217 103.187 80.6796 103.18 80.5246 103.32C80.3733 103.46 80.3658 103.691 80.5095 103.838L86.1103 109.534C86.1859 109.609 86.2843 109.647 86.3864 109.647C86.4809 109.647 86.5755 109.613 86.6473 109.545C86.7986 109.405 86.8061 109.174 86.6624 109.027L81.0654 103.335Z" fill="#DB6C35"/>
<path d="M105.405 118.348C102.115 116.516 98.6053 116.088 98.4578 116.073C98.2498 116.051 98.0569 116.191 98.0343 116.395C98.0078 116.595 98.1591 116.781 98.3671 116.804C98.4011 116.807 101.873 117.231 105.023 118.987C107.22 120.21 107.943 121.765 107.95 121.78C108.011 121.92 108.154 122.003 108.302 122.003C108.351 122.003 108.404 121.996 108.453 121.973C108.646 121.894 108.737 121.678 108.654 121.493C108.619 121.417 107.837 119.703 105.405 118.348Z" fill="#DB6C35"/>
<path d="M135.872 116.467C135.577 116.546 128.656 118.404 125.941 120.028C123.044 121.761 123.475 123.635 123.494 123.714C123.536 123.881 123.691 123.994 123.865 123.994C123.895 123.994 123.921 123.99 123.952 123.987C124.156 123.941 124.284 123.744 124.239 123.551C124.228 123.491 123.948 122.094 126.346 120.656C128.966 119.089 136.004 117.201 136.076 117.182C136.28 117.129 136.398 116.925 136.341 116.732C136.288 116.527 136.076 116.414 135.872 116.467Z" fill="#DB6C35"/>
<path d="M155.476 101.575L148.642 108.554C148.499 108.701 148.506 108.932 148.657 109.072C148.729 109.14 148.824 109.17 148.918 109.17C149.02 109.17 149.123 109.133 149.198 109.053L156.032 102.075C156.176 101.927 156.168 101.696 156.017 101.556C155.862 101.42 155.62 101.424 155.476 101.575Z" fill="#DB6C35"/>
<path d="M93.1335 64.9414C91.8968 64.9414 90.8984 65.9064 90.8984 67.0948V68.6426C90.8984 69.8309 91.9006 70.796 93.1335 70.796C94.3701 70.796 95.3723 69.8309 95.3723 68.6426V67.0948C95.3723 65.9027 94.3701 64.9414 93.1335 64.9414Z" fill="black"/>
<path d="M139.895 64.0862C138.658 64.0862 137.656 65.0512 137.656 66.2395V67.7874C137.656 68.9757 138.658 69.9408 139.895 69.9408C141.132 69.9408 142.13 68.9757 142.13 67.7874V66.2395C142.134 65.0512 141.132 64.0862 139.895 64.0862Z" fill="black"/>
<path d="M91.2124 75.8557C85.5359 75.8557 80.9297 80.0678 80.9297 85.2677C80.9297 90.4638 85.5321 94.6797 91.2124 94.6797C96.8888 94.6797 101.495 90.4675 101.495 85.2677C101.491 80.0678 96.8888 75.8557 91.2124 75.8557Z" fill="#FF8F83"/>
<path d="M143.728 75.22C138.052 75.22 133.445 79.4321 133.445 84.6319C133.445 89.828 138.048 94.0439 143.728 94.0439C149.404 94.0439 154.011 89.8318 154.011 84.6319C154.011 79.4321 149.408 75.22 143.728 75.22Z" fill="#FF8F83"/>
<path d="M96.0962 56.169C94.8898 55.4764 93.4225 55.1472 91.9135 55.2645C90.4046 55.3781 88.8578 55.9382 87.5115 56.994C86.8573 57.5049 86.7665 58.4245 87.2998 59.0528C87.833 59.681 88.786 59.7794 89.4402 59.2685C91.0929 57.9704 93.1804 57.9174 94.5305 58.6932C95.2529 59.1095 96.1907 58.8825 96.6256 58.1861C97.0568 57.486 96.8185 56.5853 96.0962 56.169Z" fill="#A52F00"/>
<path d="M144.205 55.499C143.059 54.7194 141.618 54.288 140.105 54.2918C138.593 54.2956 137.004 54.7421 135.579 55.6958C134.886 56.1575 134.724 57.0696 135.208 57.7356C135.688 58.4017 136.634 58.5682 137.326 58.1065C139.077 56.9333 141.16 57.0279 142.446 57.9022C143.135 58.3714 144.088 58.2125 144.575 57.5502C145.056 56.8841 144.893 55.9645 144.205 55.499Z" fill="#A52F00"/>
<path d="M122.748 87.7656C122.328 87.7883 122.007 88.1403 122.033 88.5414C122.162 90.5774 120.267 92.3486 117.813 92.4924C116.606 92.5643 115.449 92.235 114.56 91.5652C113.698 90.918 113.191 90.0287 113.127 89.0599C113.101 88.6549 112.738 88.3446 112.318 88.3711C111.898 88.3938 111.577 88.742 111.603 89.1469C111.69 90.5434 112.409 91.8112 113.619 92.7195C114.7 93.5293 116.058 93.9645 117.488 93.9645C117.624 93.9645 117.764 93.9608 117.9 93.9532C121.194 93.7602 123.727 91.2889 123.55 88.4468C123.531 88.0494 123.172 87.7429 122.748 87.7656Z" fill="#DB6C35"/>
<path d="M136.729 100.962C136.529 100.758 136.321 100.557 136.117 100.356C135.863 100.11 135.614 99.8645 135.368 99.6147C135.315 99.4444 135.134 99.3346 134.948 99.3611C134.752 99.3914 134.612 99.5579 134.623 99.7471C134.623 99.8645 134.661 99.9628 134.736 100.039C134.888 100.194 135.043 100.345 135.198 100.496C134.434 101.39 130.554 105.208 119.779 105.874C108.256 106.586 101.998 102.805 101.082 102.203C101.139 102.12 101.192 102.037 101.249 101.957C101.283 101.908 101.328 101.863 101.37 101.821C101.4 101.787 101.434 101.753 101.464 101.719C101.6 101.564 101.578 101.333 101.419 101.2C101.256 101.068 101.018 101.091 100.882 101.246C100.859 101.272 100.833 101.299 100.81 101.325C100.738 101.397 100.67 101.473 100.613 101.556C100.303 102.01 100.001 102.472 99.6944 102.93L99.2406 103.611C99.1271 103.781 99.1763 104.008 99.354 104.118C99.4183 104.156 99.4902 104.175 99.5583 104.175C99.6831 104.175 99.8078 104.114 99.8797 104.005L100.334 103.32C100.443 103.153 100.557 102.987 100.67 102.82C101.668 103.486 106.989 106.695 116.875 106.695C117.817 106.695 118.804 106.665 119.832 106.605C130.716 105.931 134.755 102.169 135.739 101.03C135.886 101.174 136.034 101.318 136.173 101.462C136.177 101.465 136.196 101.492 136.2 101.499C136.272 101.598 136.381 101.647 136.495 101.647C136.571 101.647 136.65 101.624 136.718 101.579C136.892 101.465 136.93 101.231 136.816 101.064C136.79 101.03 136.763 100.996 136.729 100.962Z" fill="#E55151"/>
<path d="M105.121 215.06C103.358 211.113 101.846 208.937 101.781 208.846C101.604 208.592 101.248 208.528 100.987 208.698C100.726 208.869 100.654 209.209 100.832 209.463C100.847 209.485 102.356 211.654 104.069 215.495C105.59 218.901 106.323 221.702 106.331 221.728C106.395 221.978 106.63 222.144 106.887 222.144C106.932 222.144 106.978 222.141 107.027 222.129C107.333 222.054 107.518 221.758 107.443 221.463C107.409 221.342 106.679 218.549 105.121 215.06Z" fill="#003547"/>
<path d="M129.698 209.315C129.418 209.171 129.07 209.277 128.923 209.542C128.907 209.565 127.565 212.017 126.26 215.166C124.944 218.333 124.369 221.157 124.347 221.274C124.286 221.573 124.49 221.86 124.8 221.921C124.838 221.929 124.872 221.932 124.91 221.932C125.179 221.932 125.417 221.751 125.47 221.486C125.474 221.459 126.052 218.644 127.323 215.578C128.605 212.486 129.921 210.083 129.936 210.06C130.084 209.792 129.978 209.459 129.698 209.315Z" fill="#003547"/>
<path d="M149.315 14.2067C127.475 0.89293 105.427 16.7234 105.427 16.7234C105.427 16.7234 83.4815 11.4894 68.188 33.7686C56.0258 51.4875 72.5408 73.3466 72.5408 73.3466C72.5408 73.3466 72.5333 63.3783 77.8353 55.639C83.1412 47.896 87.6869 44.4067 87.6869 44.4067L85.9473 51.0825C85.9473 51.0825 90.8749 49.7958 96.8048 44.2781C103.177 38.3478 103.272 31.4109 103.272 31.4109C103.272 31.4109 106.18 36.6221 112.083 38.2002C117.987 39.7746 128.78 35.5814 128.78 35.5814C128.78 35.5814 130.727 41.0045 136.805 42.8967C142.886 44.7928 149.648 40.1076 149.648 40.1076C149.648 40.1076 154.814 44.7322 157.775 52.4677C160.736 60.2031 163.209 69.5999 163.209 69.5999L165.872 68.1467C165.879 68.1467 180.106 32.9776 149.315 14.2067Z" fill="#FF4E00"/>
<path d="M104.149 17.3214C103.896 17.4463 97.9204 20.4549 93.3369 27.566C88.1634 35.589 88.0273 43.5137 88.0235 43.5932C88.0197 43.7975 88.1899 43.9603 88.4017 43.9641H88.4055C88.6135 43.9641 88.7836 43.8013 88.7874 43.6008C88.7874 43.5251 88.9273 35.7972 93.9836 27.952C98.4537 21.0226 104.436 18.0026 104.497 17.9723C104.686 17.8777 104.758 17.6582 104.663 17.4766C104.569 17.2987 104.338 17.2306 104.149 17.3214Z" fill="#A52F00"/>
<path d="M101.408 17.2873C101.222 17.3138 82.7256 20.1597 73.4678 35.9107C64.815 50.6285 70.4612 62.2355 70.5217 62.349C70.586 62.4814 70.7222 62.5571 70.8659 62.5571C70.9226 62.5571 70.9793 62.5458 71.0323 62.5193C71.2214 62.4322 71.3008 62.2127 71.21 62.0273C71.1533 61.9138 65.6773 50.6588 74.1333 36.2702C83.2021 20.8409 101.34 18.0404 101.521 18.0139C101.729 17.9837 101.873 17.7982 101.842 17.5977C101.812 17.3933 101.616 17.2533 101.408 17.2873Z" fill="#A52F00"/>
<path d="M95.4317 22.5591C95.3296 22.5932 85.115 26.2868 77.8086 38.3631C71.459 48.8536 72.4423 59.9421 72.4498 60.0556C72.4687 60.2449 72.6351 60.3887 72.828 60.3887C72.8393 60.3887 72.8507 60.3887 72.862 60.3887C73.0738 60.3698 73.2251 60.1919 73.2062 59.9875C73.1948 59.8778 72.2418 49.0164 78.4629 38.734C85.6218 26.8999 95.5868 23.2858 95.6889 23.2517C95.8855 23.1836 95.9876 22.9716 95.9158 22.7824C95.8477 22.5856 95.6284 22.4872 95.4317 22.5591Z" fill="#A52F00"/>
<path d="M103.602 18.9335C103.545 18.9903 97.9294 24.5534 95.4183 34.2909C93.7505 40.7547 89.6813 46.333 89.6397 46.3898C89.5187 46.5563 89.5603 46.7834 89.7305 46.9007C89.7986 46.9461 89.8742 46.9688 89.9498 46.9688C90.0708 46.9688 90.1881 46.9159 90.2599 46.8137C90.3015 46.7569 94.4539 41.0689 96.1557 34.465C98.6139 24.9319 104.09 19.5012 104.143 19.4482C104.29 19.3044 104.29 19.0697 104.139 18.9297C103.992 18.7859 103.75 18.7897 103.602 18.9335Z" fill="#A52F00"/>
<path d="M105.412 18.5287C105.219 18.4492 104.993 18.5363 104.913 18.7217C104.879 18.7936 104.115 20.5383 103.351 23.2971C102.58 26.0787 102.689 30.6087 102.697 30.8017C102.701 31.0023 102.871 31.1613 103.079 31.1613C103.083 31.1613 103.087 31.1613 103.09 31.1613C103.302 31.1575 103.468 30.9872 103.461 30.7866C103.461 30.7412 103.347 26.1696 104.092 23.4902C104.841 20.788 105.613 19.0321 105.62 19.0131C105.696 18.8239 105.605 18.6082 105.412 18.5287Z" fill="#A52F00"/>
<path d="M124.879 30.6731C124.849 30.6995 121.616 33.3108 114.703 31.816C107.831 30.3287 106.424 21.6206 106.413 21.5298C106.383 21.3292 106.186 21.1892 105.982 21.2194C105.774 21.2497 105.63 21.4352 105.66 21.6357C105.675 21.7304 107.15 30.9342 114.54 32.5312C116.159 32.8832 117.588 33.0194 118.828 33.0194C123.2 33.0194 125.276 31.3202 125.386 31.2256C125.545 31.0931 125.56 30.8623 125.42 30.7071C125.276 30.5557 125.038 30.5406 124.879 30.6731Z" fill="#A52F00"/>
<path d="M132.199 24.3568C132.097 24.3038 131.976 24.3001 131.874 24.3455C131.817 24.3682 126.016 26.7146 118.785 25.7079C115.484 25.25 113.608 23.282 111.619 21.2044C110.012 19.5203 108.351 17.7832 105.867 16.8333C105.67 16.7576 105.447 16.8522 105.371 17.0377C105.292 17.2269 105.39 17.4388 105.587 17.5145C107.909 18.4001 109.512 20.0766 111.059 21.7001C113.048 23.7854 115.106 25.9387 118.679 26.4345C125.044 27.3201 130.21 25.7306 131.73 25.1894C131.87 26.1015 132.105 28.2889 131.485 30.1244C130.422 33.273 129.091 34.6506 129.079 34.6657C128.936 34.8133 128.939 35.0442 129.091 35.1842C129.166 35.2523 129.261 35.2864 129.355 35.2864C129.458 35.2864 129.556 35.2485 129.631 35.1728C129.692 35.1123 131.091 33.678 132.211 30.3514C133.073 27.7931 132.43 24.7391 132.404 24.6104C132.373 24.5006 132.301 24.4098 132.199 24.3568Z" fill="#A52F00"/>
<path d="M156.159 33.0875C156.129 33.0913 152.937 33.3902 148.448 30.9758C146.724 30.0486 145.404 28.3266 143.88 26.3322C141.35 23.0246 138.203 18.9109 131.479 15.8492C120.667 10.9256 106.864 15.9968 106.728 16.0498C106.531 16.1217 106.433 16.3374 106.512 16.5267C106.588 16.7159 106.811 16.8105 107.007 16.7348C107.144 16.6856 120.637 11.7242 131.158 16.5153C137.708 19.4975 140.794 23.5317 143.271 26.7712C144.848 28.8337 146.213 30.6162 148.081 31.6191C151.489 33.4508 154.159 33.7914 155.437 33.833C154.703 34.7754 153.296 36.5654 152.65 37.3185C151.806 38.3025 150.347 38.9837 150.335 38.9875C150.146 39.0745 150.067 39.294 150.158 39.4757C150.222 39.6081 150.358 39.6838 150.502 39.6838C150.558 39.6838 150.611 39.6725 150.664 39.646C150.729 39.6157 152.283 38.8929 153.24 37.7802C154.147 36.7244 156.42 33.7914 156.519 33.6665C156.609 33.5492 156.621 33.3902 156.545 33.2654C156.458 33.1443 156.311 33.0724 156.159 33.0875Z" fill="#A52F00"/>
<path d="M129.151 23.9822C129.106 23.9595 124.67 21.5942 121.073 20.2658C117.462 18.9337 112.061 18.0746 111.834 18.0368C111.626 18.0065 111.43 18.139 111.396 18.3395C111.362 18.5401 111.502 18.7293 111.71 18.7596C111.766 18.7672 117.261 19.6414 120.797 20.947C124.345 22.2565 128.735 24.599 128.781 24.6217C128.841 24.652 128.902 24.6672 128.966 24.6672C129.102 24.6672 129.231 24.599 129.299 24.4779C129.405 24.3039 129.337 24.0806 129.151 23.9822Z" fill="#A52F00"/>
<path d="M152.106 34.8245C152.038 34.8283 145.394 35.2522 140.64 33.4886C135.954 31.7515 134.01 27.9595 133.991 27.9217C133.901 27.74 133.674 27.6605 133.481 27.7514C133.292 27.8384 133.212 28.0579 133.303 28.2396C133.386 28.4061 135.387 32.3268 140.364 34.1736C143.68 35.4036 147.765 35.6117 150.155 35.6117C151.308 35.6117 152.068 35.5625 152.159 35.5587C152.371 35.5436 152.53 35.3695 152.515 35.1651C152.5 34.9608 152.318 34.8094 152.106 34.8245Z" fill="#A52F00"/>
<path d="M135.61 14.4641C135.402 14.4263 135.202 14.5549 135.164 14.7555C135.122 14.9561 135.258 15.1491 135.466 15.1869C135.655 15.221 154.273 18.8541 160.566 34.6845C166.473 49.5461 164.075 61.032 164.049 61.1455C164.007 61.3423 164.136 61.5391 164.344 61.5807C164.37 61.5845 164.397 61.5883 164.423 61.5883C164.601 61.5883 164.76 61.471 164.798 61.2969C164.824 61.1796 167.271 49.4969 161.281 34.4234C154.837 18.2107 135.803 14.4982 135.61 14.4641Z" fill="#A52F00"/>
<path d="M122.984 6.54701C115.81 8.05701 108.927 13.378 106.382 15.52C107.142 13.412 109.128 9.02962 113.394 5.48736C118.737 1.05953 122.599 0.737852 122.636 0.734067C122.848 0.718929 123.007 0.544844 122.992 0.340483C122.977 0.136121 122.795 -0.0114729 122.584 -0.000119467C122.417 0.0112339 118.454 0.325345 112.898 4.93483C106.885 9.92276 105.308 16.3336 105.244 16.6023C105.206 16.7613 105.282 16.924 105.429 17.0035C105.49 17.0338 105.554 17.0489 105.615 17.0489C105.713 17.0489 105.808 17.0148 105.879 16.9467C105.963 16.8673 114.358 9.11666 123.143 7.26606C139.757 3.76543 151.155 12.7535 151.268 12.8444C151.431 12.973 151.669 12.9541 151.805 12.799C151.942 12.6438 151.919 12.4129 151.76 12.2805C151.647 12.1859 139.98 2.97069 122.984 6.54701Z" fill="#FF4E00"/>
<path d="M94.1416 2.71335C93.9374 2.66415 93.7294 2.77769 93.6765 2.97448C93.6235 3.17127 93.7446 3.37185 93.9488 3.42483C93.9979 3.43618 98.8311 4.71912 102.499 9.3286C105.434 13.0185 105.218 16.8597 105.215 16.8975C105.2 17.0981 105.362 17.276 105.57 17.2873C105.578 17.2873 105.585 17.2873 105.597 17.2873C105.797 17.2873 105.964 17.1397 105.979 16.9429C105.99 16.7764 106.224 12.799 103.108 8.87825C99.2698 4.0644 94.3496 2.76633 94.1416 2.71335Z" fill="#FF4E00"/>
<path d="M86.348 14.0288C78.6672 15.8983 71.9696 23.8041 71.686 24.1409C71.5536 24.2999 71.5801 24.5307 71.7427 24.6556C71.8146 24.7086 71.8978 24.7389 71.981 24.7389C72.0907 24.7389 72.2041 24.6934 72.2798 24.6026C72.3478 24.5231 79.1021 16.5493 86.5333 14.7403C97.3984 12.095 104.799 17.1132 104.871 17.1661C105.041 17.2835 105.28 17.2494 105.404 17.0829C105.529 16.9202 105.491 16.6893 105.317 16.572C105.242 16.5152 97.5685 11.2964 86.348 14.0288Z" fill="#FF4E00"/>
<path d="M99.8492 10.9031C97.115 9.113 94.8157 8.74969 94.7212 8.73834C94.5094 8.70806 94.3165 8.8443 94.2862 9.04488C94.2522 9.24546 94.3959 9.43468 94.6039 9.46496C94.6266 9.46874 96.839 9.8207 99.4219 11.5124C102.428 13.4841 104.429 16.4284 104.448 16.4587C104.52 16.5684 104.645 16.6252 104.769 16.6252C104.841 16.6252 104.913 16.6062 104.977 16.5646C105.155 16.4549 105.204 16.2278 105.091 16.0575C105.004 15.9326 102.992 12.9618 99.8492 10.9031Z" fill="#FF4E00"/>
<path d="M116.949 6.10052C116.828 6.13837 113.92 7.04286 111.182 9.57088C109.189 11.4139 107.215 13.976 106.156 15.4292C106.311 13.7641 106.7 10.8765 107.642 8.74208C108.992 5.66909 111.117 3.98879 111.14 3.97365C111.303 3.84498 111.329 3.61413 111.197 3.45897C111.064 3.30002 110.826 3.27731 110.66 3.40598C110.565 3.47789 108.372 5.20739 106.939 8.46203C105.494 11.7507 105.305 16.5457 105.297 16.7462C105.29 16.9127 105.399 17.0603 105.562 17.1095C105.6 17.1209 105.638 17.1247 105.675 17.1247C105.8 17.1247 105.921 17.0641 105.997 16.9582C106.027 16.9165 108.898 12.7044 111.711 10.1045C114.313 7.70135 117.149 6.812 117.18 6.80443C117.38 6.74388 117.49 6.53574 117.429 6.34273C117.365 6.14594 117.153 6.03619 116.949 6.10052Z" fill="#FF4E00"/>
<path d="M226.903 225.759C226.582 225.501 226.113 225.543 225.841 225.846C225.568 226.148 225.602 226.61 225.912 226.879C225.973 226.932 232.111 232.567 232.95 263.989C233.831 296.979 226.892 305.293 226.828 305.369C226.551 305.675 226.586 306.141 226.903 306.406C227.047 306.527 227.225 306.584 227.402 306.584C227.618 306.584 227.83 306.496 227.981 306.33C228.284 305.993 235.382 297.709 234.478 263.951C233.612 231.515 227.179 225.978 226.903 225.759Z" fill="#510000"/>
<path d="M81.302 164.541C81.1054 164.473 80.886 164.575 80.8142 164.764C80.7839 164.847 77.7887 173.09 76.7639 179.845C75.9167 185.446 76.3479 189.14 76.8206 192.168C76.8471 192.349 77.0135 192.482 77.1988 192.482C77.2177 192.482 77.2366 192.482 77.2555 192.478C77.4635 192.448 77.6072 192.262 77.5769 192.062C77.1118 189.087 76.6882 185.458 77.524 179.955C78.5375 173.272 81.51 165.093 81.5365 165.01C81.6083 164.817 81.5024 164.609 81.302 164.541Z" fill="#DB6C35"/>
<path d="M152.273 162.452C152.182 162.27 151.955 162.191 151.762 162.278C151.573 162.365 151.494 162.584 151.584 162.766C153.668 166.944 155.158 171.406 156.005 176.027C156.83 180.504 157.613 185.639 156.505 189.882C156.452 190.079 156.576 190.279 156.781 190.328C156.811 190.336 156.845 190.34 156.875 190.34C157.045 190.34 157.2 190.23 157.246 190.063C158.392 185.677 157.594 180.455 156.758 175.902C155.896 171.217 154.387 166.69 152.273 162.452Z" fill="#DB6C35"/>
</svg>
