<svg width="289" height="252" viewBox="0 0 289 252" fill="none" xmlns="http://www.w3.org/2000/svg">
<g filter="url(#filter0_d_9958_1561)">
<path fill-rule="evenodd" clip-rule="evenodd" d="M276 12.4501V183.517C276 193.513 268.619 201.974 258.715 203.332L35.7151 233.888C23.7024 235.534 13 226.198 13 214.073V13.6738C13.8946 14.9442 14.527 16.4125 14.8186 18H15.1814C16.1219 12.8798 20.6079 9 26 9C31.3921 9 35.8781 12.8798 36.8186 18H37.1814C38.1219 12.8798 42.6079 9 48 9C53.3921 9 57.8781 12.8798 58.8186 18H59.1814C60.1219 12.8798 64.6079 9 70 9C75.3921 9 79.8781 12.8798 80.8186 18H81.1814C82.1219 12.8798 86.6079 9 92 9C97.3921 9 101.878 12.8798 102.819 18H103.181C104.122 12.8798 108.608 9 114 9C119.392 9 123.878 12.8798 124.819 18H125.181C126.122 12.8798 130.608 9 136 9C141.392 9 145.878 12.8798 146.819 18H147.181C148.122 12.8798 152.608 9 158 9C163.392 9 167.878 12.8798 168.819 18H169.181C170.122 12.8798 174.608 9 180 9C185.392 9 189.878 12.8798 190.819 18H191.181C192.122 12.8798 196.608 9 202 9C207.392 9 211.878 12.8798 212.819 18H213.181C214.122 12.8798 218.608 9 224 9C229.392 9 233.878 12.8798 234.819 18H235.181C236.122 12.8798 240.608 9 246 9C251.392 9 255.878 12.8798 256.819 18H257.181C258.122 12.8798 262.608 9 268 9C271.152 9 273.994 10.3258 276 12.4501Z" fill="white"/>
</g>
<defs>
<filter id="filter0_d_9958_1561" x="0" y="0" width="289" height="251.076" filterUnits="userSpaceOnUse" color-interpolation-filters="sRGB">
<feFlood flood-opacity="0" result="BackgroundImageFix"/>
<feColorMatrix in="SourceAlpha" type="matrix" values="0 0 0 0 0 0 0 0 0 0 0 0 0 0 0 0 0 0 127 0" result="hardAlpha"/>
<feOffset dy="4"/>
<feGaussianBlur stdDeviation="6.5"/>
<feColorMatrix type="matrix" values="0 0 0 0 0.117326 0 0 0 0 0.138241 0 0 0 0 0.258333 0 0 0 0.11 0"/>
<feBlend mode="multiply" in2="BackgroundImageFix" result="effect1_dropShadow_9958_1561"/>
<feBlend mode="normal" in="SourceGraphic" in2="effect1_dropShadow_9958_1561" result="shape"/>
</filter>
</defs>
</svg>
