<svg width="522" height="88" viewBox="0 0 522 88" fill="none" xmlns="http://www.w3.org/2000/svg">
<g clip-path="url(#clip0_9957_638)">
<path d="M59.9092 83.6043C59.5331 82.8591 59.912 80.0258 60.3676 76.7267C60.7774 73.7614 60.9019 71.0551 60.7163 70.5329C60.3064 69.3777 55.8323 72.0847 55.8323 72.0847C55.8323 72.0847 55.5659 75.153 56.4939 77.9638C57.5688 81.2198 58.1144 82.8182 58.2114 83.7031C58.2761 84.293 58.004 84.708 58.004 84.708C58.004 84.708 58.4743 85.7616 60.3345 85.6896C62.1947 85.6176 62.4942 85.0086 62.4942 85.0086L61.7933 84.5386C61.7947 84.5379 60.1686 84.1187 59.9092 83.6043Z" fill="#FFAE81"/>
<path d="M38.1861 70.4857C38.1861 70.4857 35.8914 72.6683 34.6843 75.3831C33.2867 78.5276 32.6139 80.0815 32.0853 80.8176C31.733 81.308 31.2416 81.459 31.2416 81.459C31.2416 81.459 30.8831 82.5514 32.3545 83.6304C33.8259 84.7101 34.4699 84.4271 34.4699 84.4271L34.2548 83.641C34.2548 83.641 33.298 82.3284 33.4505 81.7766C33.6706 80.9778 35.8914 79.0428 38.4891 76.7994C40.8232 74.7826 42.7635 72.7904 42.978 72.2781C43.4511 71.1455 38.1861 70.4857 38.1861 70.4857Z" fill="#FFAE81"/>
<path d="M61.6427 84.3671C61.6427 84.3671 61.559 85.312 59.509 85.1991C58.2154 85.1279 58.0706 84.4829 58.0706 84.4829C58.0706 84.4829 57.7634 84.8533 57.7908 85.4024C57.8049 85.6917 58.027 86.0791 58.027 86.0791L58.0629 86.8081L63.6857 86.7897L63.6583 85.9958C63.6231 84.9924 63.0248 84.6706 61.6427 84.3671Z" fill="#A84800"/>
<path d="M76.5009 49.4782C75.175 48.8318 73.9827 48.661 73.4688 48.5643C72.8845 48.4549 68.3894 46.4282 64.9706 45.1368C61.5517 43.8454 59.7942 43.398 59.7942 43.398L58.9062 46.846C58.9062 46.846 61.3633 47.7253 64.7259 48.4105C68.0885 49.0957 72.3573 49.5876 72.3573 49.5876C72.3573 49.5876 73.5763 49.8402 73.8611 50.1719C74.1458 50.5035 74.4467 52.1591 74.4467 52.1591C74.4467 52.1591 74.7026 52.3489 74.943 52.0701C75.1827 51.7914 74.7504 50.4104 74.9465 50.3017C75.1427 50.193 76.1459 50.9996 76.1459 50.9996C76.1459 50.9996 76.3631 51.7709 76.5129 52.0532C76.6633 52.3355 77.1927 52.1816 77.1927 52.1816C77.1927 52.1816 76.9663 51.1323 76.8222 50.8782C76.6781 50.6242 76.347 50.2276 76.347 50.2276C76.347 50.2276 77.5681 50.5903 78.1334 50.4944C78.6986 50.3984 78.6079 49.843 78.6079 49.843C78.6079 49.843 77.502 49.9665 76.5009 49.4782Z" fill="#FFAE81"/>
<path d="M40.4145 36.356C39.244 38.9325 37.201 39.9663 37.8161 42.5201C38.1641 43.9633 40.553 44.6061 40.553 44.6061C40.553 44.6061 40.2036 44.1143 40.1136 43.5949C40.0229 43.0762 40.1916 42.53 40.1916 42.53C40.1916 42.53 40.9889 44.0268 41.5661 44.3387C42.1432 44.6513 44.0365 44.0338 44.0365 44.0338C44.0365 44.0338 42.7584 43.2223 42.9201 41.897C43.0691 40.6713 43.3862 39.9917 43.3862 39.9917C43.3862 39.9917 42.8596 42.1116 44.0618 43.1828C44.8148 43.8539 45.7828 43.4396 45.7828 43.4396C45.7828 43.4396 45.1761 43.0748 45.2288 42.3903C45.2738 41.8046 45.5979 41.4059 45.5979 41.4059C45.5979 41.4059 45.4032 42.6994 46.3565 43.0282C46.3565 43.0282 47.1045 42.1454 48.5085 41.5795C49.9567 40.9966 51.4682 41.2704 51.4682 41.2704C51.4682 41.2704 51.8043 41.0312 52.998 40.4454C54.5257 39.6953 56.1989 39.9642 56.1989 39.9642L60.5422 35.1062L60.583 27.5441L41.6364 26.0319C41.6364 26.0319 41.9366 33.0061 40.4145 36.356Z" fill="#B26500"/>
<path d="M49.7125 40.6056C49.7132 41.5837 49.1571 42.5935 49.1571 42.5935C49.1571 42.5935 51.3983 42.681 52.5808 42.6648C53.7633 42.6486 55.1933 41.7058 55.1933 41.7058C55.1933 41.7058 53.8547 40.6995 54.1781 39.5767C54.5015 38.4547 55.2284 37.7716 55.2284 37.7716L48.8203 38.4413C48.8203 38.442 49.7118 39.4271 49.7125 40.6056Z" fill="#FFAE81"/>
<path d="M55.3072 21.3334C54.2133 20.7392 52.713 21.1203 51.4188 21.1203C46.8076 21.1203 43.0703 25.3438 43.0703 30.5532C43.0703 35.7625 46.8083 39.986 51.4188 39.986C56.0299 39.986 59.7672 35.7625 59.7672 30.5532C59.7672 26.806 58.1081 22.8556 55.3072 21.3334Z" fill="#FFAE81"/>
<path d="M55.2958 20.7922C55.2958 20.7922 53.5488 19.3032 50.6439 19.0407C47.8114 18.7845 43.859 19.7195 40.8809 22.3884C37.7384 25.2048 38.253 30.2681 37.9015 32.7493C37.7047 34.138 36.3309 37.6474 35.9042 41.3692C35.4775 45.091 38.8815 44.9406 38.8815 44.9406C38.8815 44.9406 37.3074 44.1587 36.7422 42.18C36.1777 40.2006 40.1371 37.5634 40.8915 35.8197C41.6458 34.0759 41.9531 31.8657 41.9531 31.8657L43.1995 31.9582L43.0666 31.021C43.0666 31.021 44.5528 30.4819 48.887 27.6408C53.2929 24.7532 54.9478 22.4167 54.9478 22.4167C54.9478 22.4167 55.8906 24.4709 57.1778 26.293C58.5354 28.2145 59.7875 29.2343 59.7875 29.2343C59.7875 29.2343 60.0202 31.0493 59.4113 34.1493C58.8018 37.2494 55.9278 40.015 55.9278 40.015C55.9278 40.015 56.8952 40.3601 58.844 38.7913C62.0533 36.2078 63.3863 30.9427 62.2783 27.2442C60.5109 21.3355 55.2958 20.7922 55.2958 20.7922Z" fill="#FFBD1A"/>
<path d="M57.9531 86.0883L57.9602 86.8645L63.7693 86.8638L63.7622 86.0869L57.9531 86.0883Z" fill="#682C03"/>
<path d="M42.6508 31.6244C41.8599 31.6244 41.2188 32.2327 41.2188 32.9835C41.2188 33.7344 41.8599 34.3427 42.6508 34.3427C43.4417 34.3427 44.0829 33.7344 44.0829 32.9835C44.0829 32.2327 43.4417 31.6244 42.6508 31.6244Z" fill="#FFAE81"/>
<path d="M43.269 28.2004C43.1425 28.2406 43.2718 28.8567 43.4687 29.4805C43.6817 30.1544 43.8539 30.6816 44.126 30.6153C44.4733 30.5306 44.275 30.1142 43.9263 29.3352C43.6184 28.6464 43.3956 28.1602 43.269 28.2004Z" fill="#FF3C00"/>
<path d="M41.8062 29.1242C41.6937 29.1919 41.9778 29.76 42.3286 30.3203C42.7082 30.9251 43.0112 31.3965 43.258 31.2701C43.5729 31.1085 43.2734 30.7501 42.7356 30.074C42.2597 29.477 41.9187 29.0564 41.8062 29.1242Z" fill="#FF3C00"/>
<path d="M32.0613 82.7561C31.1206 81.9128 31.4503 81.3306 31.4503 81.3306C31.4503 81.3306 30.9631 81.4266 30.6102 81.8627C30.4239 82.092 30.329 82.5239 30.329 82.5239L29.8594 83.1026L34.1696 86.5188L34.6899 85.8957C35.3472 85.1074 35.1096 84.4956 34.2596 83.4215C34.2596 83.4215 33.5517 84.0926 32.0613 82.7561Z" fill="#A84800"/>
<path d="M55.7923 29.9774C55.6222 29.9774 55.4844 30.1079 55.4844 30.2688V30.7176C55.4844 30.8785 55.6222 31.0091 55.7923 31.0091C55.9624 31.0091 56.1002 30.8785 56.1002 30.7176V30.2688C56.1002 30.1072 55.9624 29.9774 55.7923 29.9774Z" fill="#212121"/>
<path d="M48.8236 30.1058C48.6534 30.1058 48.5156 30.2363 48.5156 30.3972V30.846C48.5156 31.0069 48.6534 31.1375 48.8236 31.1375C48.9937 31.1375 49.1315 31.0069 49.1315 30.846V30.3972C49.1315 30.2363 48.9937 30.1058 48.8236 30.1058Z" fill="#212121"/>
<path d="M56.1215 27.8984C55.3791 27.6973 54.9931 27.9542 54.9551 28.3091C54.9172 28.6641 55.4233 28.4206 56.0765 28.5822C56.6522 28.7248 56.9651 29.0466 56.9967 28.7833C57.0291 28.5201 56.6747 28.048 56.1215 27.8984Z" fill="#B26500"/>
<path d="M48.2648 28.1955C47.7277 28.391 47.4191 28.8906 47.4753 29.1503C47.5316 29.4093 47.8135 29.0628 48.3738 28.8729C49.0093 28.657 49.5366 28.8581 49.4656 28.5074C49.3939 28.1574 48.9854 27.9337 48.2648 28.1955Z" fill="#B26500"/>
<path d="M29.75 83.087L34.191 86.6289L34.7148 86.0311L30.2738 82.4893L29.75 83.087Z" fill="#682C03"/>
<path d="M52.7859 33.0929C52.6769 33.0118 52.5638 32.9271 52.4731 32.8361C52.2312 32.5933 52.2678 31.7585 52.3022 31.4572C52.3093 31.3944 52.2615 31.3379 52.1954 31.3316C52.1293 31.3245 52.0695 31.3704 52.0625 31.4325C52.0484 31.5538 51.9367 32.6293 52.2973 32.992C52.4006 33.0958 52.5258 33.1896 52.6362 33.2722C52.7831 33.3816 52.949 33.5058 52.9518 33.582C52.9525 33.6039 52.935 33.63 52.8998 33.6603C52.6819 33.8487 52.1012 33.7478 51.8959 33.6928C51.8319 33.6758 51.7651 33.7111 51.7468 33.7718C51.7286 33.8325 51.7658 33.8953 51.8298 33.9129C51.8811 33.9264 52.1637 33.9983 52.4625 33.9983C52.6826 33.9983 52.9118 33.9595 53.0629 33.829C53.1529 33.7513 53.1972 33.6653 53.1937 33.5735C53.1866 33.3922 53.001 33.2531 52.7859 33.0929Z" fill="#DB6C35"/>
<path d="M54.8154 35.5995C54.7908 35.5642 54.7416 35.5544 54.7036 35.5777C54.6663 35.6009 54.6558 35.6475 54.6804 35.6828L54.7641 35.8042C54.5384 35.9227 53.6849 36.3221 52.2908 36.4231C50.8735 36.5254 49.5153 36.0857 49.3029 36.0131L49.3585 35.8811C49.3747 35.8423 49.355 35.7978 49.3135 35.7823C49.272 35.7668 49.2256 35.7858 49.2087 35.8253L48.9978 36.3292C48.9817 36.368 49.0013 36.4125 49.0428 36.428C49.0527 36.4315 49.0625 36.4336 49.0724 36.4336C49.1047 36.4336 49.1349 36.4153 49.1476 36.3857L49.2439 36.1556C49.4323 36.2198 50.5726 36.591 51.8563 36.591C52.004 36.591 52.153 36.5861 52.3035 36.5755C53.7608 36.4703 54.6263 36.0547 54.8526 35.9333L54.9173 36.0272C54.9328 36.0498 54.9588 36.0618 54.9848 36.0618C54.9996 36.0618 55.015 36.0575 55.0291 36.0491C55.0664 36.0258 55.0769 35.9792 55.0523 35.9439L54.8154 35.5995Z" fill="#E55151"/>
<path d="M38.6984 59.7346L15.7009 74.9823C15.2721 75.2667 15.168 75.8256 15.4689 76.2306C15.7691 76.6364 16.3604 76.7345 16.7892 76.4501L39.7866 61.2031C40.2155 60.9187 40.3195 60.3598 40.0186 59.9547C39.7177 59.549 39.1272 59.4509 38.6984 59.7346Z" fill="#212121"/>
<path d="M39.6104 58.2371C39.6104 58.2371 38.1636 58.3317 37.2103 59.1686C36.2577 60.0056 36.7386 60.9949 36.7386 60.9949L38.565 59.7854C39.2174 59.4198 39.3489 59.5335 39.3489 59.5335C39.3489 59.5335 40.1293 59.6231 40.1946 60.3873C40.2987 61.6025 41.1599 61.2278 41.1599 61.2278C41.1599 61.2278 40.937 60.1855 41.2527 59.556C41.6654 58.7332 41.9283 57.5244 41.9283 57.5244L40.9687 56.8074L39.6104 58.2371Z" fill="#FFAE81"/>
<path d="M24.3724 69.7899C20.4832 64.2559 13.8909 64.8642 8.53387 68.1583L3.04111 72.0664C-0.386147 74.8771 -0.885999 80.0244 1.38689 83.2585L1.36228 83.2098C2.76904 85.2118 5.62544 85.7559 7.74226 84.425L23.8008 73.8715C25.119 73.0431 25.4768 71.36 24.6009 70.1138L24.3724 69.7899Z" fill="#C92B27"/>
<path d="M2.86253 88C4.30108 88 5.46725 86.9255 5.46725 85.6C5.46725 84.2745 4.30108 83.2 2.86253 83.2C1.42398 83.2 0.257812 84.2745 0.257812 85.6C0.257812 86.9255 1.42398 88 2.86253 88Z" fill="#212121"/>
<path d="M21.9175 67.7476C19.587 70.1074 16.9703 72.2075 14.9512 73.7728C14.5829 74.0586 14.2103 74.35 13.832 74.6457C10.0961 77.5672 5.86109 80.8776 1.264 82.0963C1.15714 82.1245 1.09457 82.2297 1.1248 82.3313C1.1494 82.4153 1.23025 82.4703 1.31813 82.4703C1.33641 82.4703 1.35469 82.4682 1.37226 82.4632C6.05161 81.2227 10.3211 77.8848 14.0879 74.9392C14.4654 74.6443 14.8381 74.3528 15.2057 74.0677C17.2347 72.4948 19.8647 70.3848 22.2114 68.008C22.2873 67.9311 22.2831 67.8104 22.2016 67.7392C22.1207 67.6665 21.9935 67.6707 21.9175 67.7476Z" fill="#212121"/>
<path d="M54.662 41.0178C54.662 41.0178 54.0946 41.9083 52.4945 42.12C50.6013 42.3713 49.4307 41.3621 49.4307 41.3621C49.4307 41.3621 48.0662 42.2802 47.1227 44.0755C46.1785 45.8707 40.1016 57.0375 40.1016 57.0375C40.1016 57.0375 40.4482 57.3593 41.012 57.729C41.5751 58.0981 42.0054 58.0791 42.0054 58.0791C42.0054 58.0791 43.2237 57.2344 44.3809 56.1907C45.5381 55.1477 46.774 53.6678 46.774 53.6678L44.4371 60.9046L55.9387 60.6103C55.9387 60.6103 55.6336 54.5824 55.7017 52.2953C55.7699 50.0082 56.3542 47.3139 56.3542 47.3139C56.3542 47.3139 61.6332 48.6702 65.2299 49.1007C68.8273 49.5311 73.0377 50.0639 73.0377 50.0639L73.475 48.5326C73.475 48.5326 65.3227 44.9336 62.519 43.8398C59.6935 42.7389 54.662 41.0178 54.662 41.0178Z" fill="#FF4E00"/>
<path d="M56.382 48.2524L51.1051 49.6631C51.1051 49.6631 49.8699 55.3869 48.1805 56.293C46.4911 57.1991 45.8612 55.4581 45.8612 55.4581C45.8612 55.4581 44.5634 58.7022 42.8403 62.6667C41.1172 66.6312 37.0938 71.4969 37.0938 71.4969C37.0938 71.4969 40.2658 73.8708 49.2519 74.3726C58.238 74.875 60.8912 72.3084 60.8912 72.3084C60.8912 72.3084 61.1893 71.6267 61.1893 70.3862C61.1893 69.1463 56.955 63.3413 56.6007 61.2285C55.2874 53.3912 56.382 48.2524 56.382 48.2524Z" fill="#2C88AB"/>
<path d="M50.1804 48.5058C50.1178 48.4846 50.0482 48.5149 50.0257 48.5742C49.4134 50.1782 48.446 51.6827 47.0688 53.1753C47.0252 53.2225 47.0301 53.2952 47.08 53.3362C47.1032 53.3552 47.1313 53.3644 47.1595 53.3644C47.1932 53.3644 47.2262 53.351 47.2501 53.3256C48.6478 51.8112 49.6299 50.2827 50.2521 48.6518C50.276 48.5926 50.2429 48.5269 50.1804 48.5058Z" fill="#BF3600"/>
<path d="M50.612 42.4383C49.5933 41.4581 48.7728 41.7919 48.7728 41.7919L47.8125 42.7756C47.8125 42.7756 48.7018 42.4757 49.4056 43.0882C49.7915 43.4241 50.7807 44.6951 51.4247 48.2778C51.7994 50.3631 51.4978 52.5987 52.4131 52.6241C52.7998 52.6347 53.6912 52.0793 53.0128 48.3618C52.5488 45.815 51.5055 43.2978 50.612 42.4383Z" fill="#16647C"/>
<path d="M55.6478 41.2012C55.2611 41.0643 54.8906 41.065 54.8906 41.065C54.8906 41.065 55.3954 46.0267 55.3286 48.155C55.2878 49.4563 55.0889 51.2283 56.0091 51.1104C56.5322 51.0434 56.6833 47.6173 56.6974 45.2646C56.7122 42.7784 56.4359 41.6134 56.4359 41.6134C56.4359 41.6134 56.0345 41.3381 55.6478 41.2012Z" fill="#16647C"/>
<path d="M52.4627 51.2043C52.289 51.2043 52.1484 51.3722 52.1484 51.579C52.1484 51.7858 52.289 51.9537 52.4627 51.9537C52.6363 51.9537 52.7769 51.7858 52.7769 51.579C52.7769 51.3715 52.6363 51.2043 52.4627 51.2043Z" fill="#212121"/>
<path d="M55.9393 49.8374C55.7656 49.8374 55.625 50.0053 55.625 50.2121C55.625 50.4189 55.7656 50.5868 55.9393 50.5868C56.1129 50.5868 56.2535 50.4189 56.2535 50.2121C56.2535 50.0053 56.1129 49.8374 55.9393 49.8374Z" fill="#212121"/>
<path d="M46.8418 62.0894C46.8418 62.0894 44.1963 67.706 47.4528 68.0518C50.7092 68.3983 51.9346 60.6357 51.9346 60.6357C51.9346 60.6357 51.176 61.4035 49.2666 61.7804C47.3571 62.1572 46.8418 62.0894 46.8418 62.0894Z" fill="#16647C"/>
<path d="M53.9953 39.5894C53.989 39.5923 53.3682 39.8823 52.0275 40.0164C50.6904 40.1498 49.8355 39.8562 49.827 39.8534C49.7645 39.8315 49.6949 39.8611 49.6717 39.9204C49.6485 39.9797 49.6801 40.0453 49.7427 40.0672C49.7722 40.0778 50.3571 40.2796 51.3273 40.2796C51.5495 40.2796 51.792 40.269 52.0528 40.2429C53.4448 40.1039 54.0782 39.8054 54.105 39.7927C54.164 39.7644 54.1879 39.6953 54.1577 39.6395C54.1275 39.5838 54.0543 39.5612 53.9953 39.5894Z" fill="#DB6C35"/>
<path d="M42.9892 32.0005C42.8135 32.0464 42.9618 32.4303 42.9618 32.4303C42.9618 32.4303 42.6883 32.1452 42.3586 32.2094C41.9614 32.287 41.8672 32.5792 41.8672 32.5792C41.8672 32.5792 42.0612 32.3449 42.483 32.4155C42.7867 32.4663 42.8732 32.6497 42.9773 32.8142C43.127 33.0506 43.1868 33.3625 43.2887 33.3258C43.3829 33.2919 43.3049 33.0061 43.2409 32.702C43.1882 32.45 43.1235 31.9652 42.9892 32.0005Z" fill="#DB6C35"/>
<path d="M54.1014 21.9939C54.0698 22.025 50.897 25.1025 49.3384 26.3085C47.7805 27.5131 44.1262 29.6393 44.0889 29.6605C44.032 29.6937 44.0144 29.7635 44.0488 29.8179C44.0713 29.8531 44.1114 29.8722 44.1522 29.8722C44.174 29.8722 44.1958 29.8665 44.2155 29.8553C44.252 29.8341 47.9211 27.7001 49.491 26.4856C51.0601 25.2718 54.242 22.1852 54.2744 22.1541C54.3208 22.109 54.3201 22.0363 54.2723 21.9925C54.2245 21.9481 54.1478 21.9488 54.1014 21.9939Z" fill="#B26500"/>
<path d="M54.2263 21.097C52.8722 20.9502 51.2342 22.5698 48.5212 25.2535C46.3221 27.4298 44.1962 28.8849 44.1751 28.899C44.1209 28.9357 44.109 29.007 44.1476 29.0585C44.1715 29.0896 44.2081 29.1058 44.2461 29.1058C44.2707 29.1058 44.2953 29.0987 44.3164 29.0846C44.3375 29.0698 46.481 27.6034 48.6962 25.4115C51.2658 22.869 52.9629 21.1894 54.1988 21.3235C54.2649 21.3313 54.3247 21.2854 54.3324 21.2233C54.3401 21.1605 54.2923 21.1041 54.2263 21.097Z" fill="#B26500"/>
<path d="M54.2324 20.8006C51.982 20.3956 49.8596 22.1711 48.0802 23.9621C46.0527 26.0029 43.7847 28.1355 43.7622 28.1567C43.7151 28.2011 43.7144 28.2731 43.7615 28.3183C43.7854 28.3409 43.8164 28.3522 43.8473 28.3522C43.8782 28.3522 43.9092 28.3409 43.9324 28.319C43.9549 28.2978 46.2257 26.1631 48.256 24.1188C49.9904 22.3729 52.0516 20.6397 54.1867 21.025C54.2521 21.037 54.3154 20.9961 54.328 20.934C54.3407 20.8726 54.2978 20.8126 54.2324 20.8006Z" fill="#B26500"/>
<path d="M52.9864 20.1225C52.9702 20.1182 51.3406 19.6991 49.3215 19.8487C47.4514 19.987 44.8545 20.6531 43.0976 23.0412C40.9147 26.0093 40.8535 29.2604 40.8092 31.6336C40.7853 32.9221 40.7642 34.035 40.4148 34.7237C39.9881 35.5649 39.2014 36.4139 38.4414 37.2339C37.3897 38.3693 36.3963 39.4412 36.3984 40.4278C36.3984 40.4906 36.4526 40.5421 36.5194 40.5421C36.5862 40.5421 36.6403 40.4906 36.6396 40.4278C36.6375 39.5273 37.602 38.4864 38.6228 37.3849C39.394 36.5529 40.1913 35.6919 40.6321 34.8225C41.0047 34.0893 41.0258 32.9532 41.0504 31.6378C41.0968 29.163 41.1544 26.0827 43.2951 23.1717C44.9958 20.8599 47.5168 20.2128 49.332 20.0773C51.3097 19.9298 52.9055 20.3391 52.921 20.3426C52.985 20.3589 53.0518 20.3236 53.0693 20.2629C53.0883 20.2022 53.0511 20.1394 52.9864 20.1225Z" fill="#B26500"/>
<path d="M43.1964 21.3334C43.1634 21.356 39.883 23.636 39.5969 26.8321C39.4886 28.0402 39.5301 29.1227 39.5674 30.0768C39.6278 31.6519 39.6799 33.0125 39.057 34.3589C39.0303 34.4168 39.0584 34.4838 39.1189 34.5092C39.1343 34.5156 39.1512 34.5191 39.1674 34.5191C39.2138 34.5191 39.2581 34.4937 39.2777 34.4506C39.9231 33.0562 39.8697 31.6717 39.8078 30.0683C39.7713 29.1199 39.7298 28.0452 39.8366 26.8511C40.1129 23.761 43.3047 21.5409 43.337 21.5183C43.3912 21.4816 43.4031 21.4096 43.3637 21.3588C43.3258 21.308 43.2498 21.296 43.1964 21.3334Z" fill="#B26500"/>
<path d="M58.0569 25.842C56.9595 24.4582 55.822 21.8436 55.8107 21.8175C55.7854 21.7589 55.7151 21.7314 55.6533 21.7554C55.5914 21.7794 55.5619 21.8457 55.5872 21.9043C55.5984 21.9311 56.7479 24.5718 57.8636 25.9796C58.9723 27.3783 59.6612 28.1573 59.6683 28.1651C59.6922 28.1919 59.7266 28.206 59.7611 28.206C59.7885 28.206 59.8159 28.1976 59.8384 28.1792C59.8897 28.139 59.896 28.0663 59.8532 28.0183C59.8461 28.0106 59.1614 27.235 58.0569 25.842Z" fill="#B26500"/>
<path d="M56.7108 21.6256C56.6581 21.5867 56.5822 21.5952 56.5414 21.6453C56.4999 21.6947 56.5098 21.7667 56.5618 21.8055C56.5766 21.8161 58.0262 22.9021 59.3015 24.7602C60.4741 26.4694 61.7354 29.2018 61.0844 32.515C60.1191 37.4244 57.3696 39.0679 57.3422 39.0842C57.2852 39.1173 57.2676 39.1872 57.3021 39.2408C57.3246 39.2761 57.3647 39.2959 57.4054 39.2959C57.4265 39.2959 57.4483 39.2902 57.468 39.2789C57.5847 39.2119 60.3356 37.5747 61.322 32.5566C61.9885 29.1665 60.6991 26.3741 59.4997 24.6289C58.2027 22.7412 56.7256 21.6368 56.7108 21.6256Z" fill="#B26500"/>
<path d="M194.51 68.5236H200.406C202.602 68.5236 204.383 69.9949 204.383 71.8108V85.2954C204.383 86.0716 203.622 86.701 202.682 86.701H194.699C194.041 86.701 193.507 86.2599 193.507 85.7157V69.3528C193.507 68.8949 193.955 68.5236 194.51 68.5236Z" fill="#A00A0A"/>
<path d="M199.072 69.0457C199.224 69.0471 199.345 69.1503 199.344 69.2756L199.088 86.1996C199.086 86.3243 198.963 86.4241 198.813 86.4241C198.812 86.4241 198.811 86.4241 198.81 86.4241C198.658 86.4228 198.536 86.3196 198.538 86.1942L198.793 69.2703C198.795 69.1449 198.918 69.0444 199.072 69.0457Z" fill="#420000"/>
<path d="M194.476 86.3773C195.028 86.3773 195.477 86.7379 195.477 87.1823C195.477 87.6267 195.028 87.9873 194.476 87.9873C193.924 87.9873 193.476 87.6267 193.476 87.1823C193.476 86.7372 193.924 86.3773 194.476 86.3773Z" fill="#212121"/>
<path d="M202.531 86.2827C203.083 86.2827 203.531 86.6434 203.531 87.0878C203.531 87.5322 203.083 87.8928 202.531 87.8928C201.979 87.8928 201.531 87.5322 201.531 87.0878C201.531 86.6427 201.978 86.2827 202.531 86.2827Z" fill="#212121"/>
<path d="M195.885 58.3932H195.984C196.506 58.3932 196.93 58.7431 196.93 59.1748V68.4847H194.939V59.1748C194.939 58.7431 195.362 58.3932 195.885 58.3932Z" fill="#212121"/>
<path d="M181.333 43.558C181.333 43.558 184.809 44.6325 188.163 49.4097C191.517 54.187 194.399 56.7925 194.399 56.7925C194.399 56.7925 197.666 56.8636 197.847 57.2483C198.028 57.6331 198.81 59.6219 198.561 59.9383C198.312 60.2553 196.879 60.6796 196.879 60.6796C196.879 60.6796 196.959 59.5482 196.883 59.4456C196.807 59.343 195.618 58.4086 195.329 58.5018C195.04 58.595 194.799 59.5911 194.799 59.5911C194.799 59.5911 195.414 60.1997 195.273 60.4316C195.132 60.6636 194.734 60.5845 194.734 60.5845C194.734 60.5845 193.269 59.8129 193.216 59.2653C193.162 58.7176 193.223 57.8429 193.223 57.8429C193.223 57.8429 188.21 56.4842 184.792 53.2747C181.232 49.9299 179.233 50.2282 177.945 49.9413C176.05 49.519 181.491 43.8616 181.491 43.8616L181.333 43.558Z" fill="#FFAE81"/>
<path d="M144.155 46.3672C144.82 46.1165 145.667 45.6078 145.667 45.6078C145.667 45.6078 146.826 45.6151 147.584 45.9851C148.342 46.3558 149.026 46.8948 149.026 46.8948C149.026 46.8948 155.013 46.1105 160.879 43.4641C166.745 40.8184 170.391 41.3895 170.391 41.3895L170.065 41.5812C170.065 41.5812 171.166 48.7508 169.281 48.2991C167.999 47.9921 166.477 46.88 161.334 48.2133C156.399 49.4929 149.372 48.297 149.372 48.297L145.715 49.1182C145.715 49.1182 145.46 48.6087 146.033 48.2481C146.368 48.0376 147.071 47.7843 147.071 47.7843C147.071 47.7843 146.141 47.3425 145.651 47.0496C145.4 46.8994 145.076 47.1374 144.693 47.252C143.802 47.5181 143.003 46.6112 143.003 46.6112C143.003 46.6112 143.489 46.6179 144.155 46.3672Z" fill="#FFAE81"/>
<path d="M181.875 39.8779L179.852 44.5399L174.742 43.1966L176.135 38.6171L181.875 39.8779Z" fill="#FFAE81"/>
<path d="M173.714 85.5374C173.714 85.5374 174.225 85.5702 174.81 85.4884C175.292 85.4214 175.818 85.2136 176.209 85.3986C177.496 86.0079 177.121 87.4967 177.121 87.4967C177.121 87.4967 176.012 87.7882 174.99 87.7628C173.734 87.7313 172.655 87.4102 172.655 87.4102L172.139 84.4695L173.511 83.1839L173.714 85.5374Z" fill="#AA6100"/>
<path d="M146.375 74.6656C147.511 75.1985 148.564 75.952 148.564 75.952L149.316 75.1885L150 77.2805C150 77.2805 149.316 78.0152 148.683 78.284C148.051 78.5528 147.315 78.8349 147.315 78.8349L144.254 75.2448C144.254 75.2448 145.348 74.185 146.375 74.6656Z" fill="#AA6100"/>
<path d="M147.695 78.7076L146.926 79.16L143.694 75.3018L144.378 74.9197L147.695 78.7076Z" fill="#723E00"/>
<path d="M173.899 87.2983C173.899 87.2983 174.608 87.3874 175.549 87.3499C176.489 87.3123 177.15 87.0476 177.15 87.0476L177.344 87.5583C177.344 87.5583 176.506 87.8573 175.751 87.9699C174.996 88.0825 173.943 87.8466 173.943 87.8466L172.452 87.4645L172.521 86.7111L173.899 87.2983Z" fill="#723E00"/>
<path d="M163.371 60.3492L178.773 66.7506L176.617 85.2645C176.617 85.2645 175.121 85.4831 174.021 85.4831C172.921 85.4831 171.205 85.2645 171.205 85.2645L167.905 70.7517L166.595 70.4695L151.287 79.1393C151.287 79.1393 150.076 78.3255 149.196 77.5118C147.967 76.3763 148.102 75.2984 148.102 75.2984L163.371 60.3492Z" fill="#59579B"/>
<path d="M163.639 69.6926C164.63 69.761 168.931 70.8563 169.114 70.9032C169.187 70.922 169.227 70.9857 169.205 71.0453C169.187 71.0942 169.132 71.1257 169.073 71.1257C169.06 71.1257 169.046 71.1244 169.032 71.1204C168.988 71.109 164.578 69.9856 163.615 69.9192C163.54 69.9138 163.484 69.8589 163.49 69.7965C163.496 69.7342 163.562 69.6886 163.639 69.6926Z" fill="#222256"/>
<path d="M150.967 78.4629L164.695 70.1256C164.756 70.0888 164.842 70.0995 164.887 70.1498C164.932 70.2 164.919 70.2718 164.858 70.3086L151.13 78.6459C151.105 78.6607 151.077 78.6681 151.048 78.6681C151.006 78.6681 150.964 78.652 150.937 78.6218C150.893 78.5709 150.905 78.4998 150.967 78.4629Z" fill="#222256"/>
<path d="M159.212 64.9086C159.27 64.8691 159.356 64.8758 159.405 64.9227C159.409 64.926 159.801 65.282 161.19 65.0534C162.612 64.8195 163.23 63.6612 163.236 63.6498C163.266 63.5921 163.347 63.566 163.417 63.5901C163.486 63.6149 163.519 63.6813 163.489 63.7389C163.462 63.7912 162.81 65.0185 161.243 65.2759C160.884 65.3349 160.585 65.3577 160.335 65.3577C159.504 65.3577 159.227 65.103 159.192 65.0655C159.146 65.0172 159.155 64.9482 159.212 64.9086Z" fill="#222256"/>
<path d="M174.977 66.8451C175.052 66.8498 175.109 66.9048 175.103 66.9671C175.102 66.9779 175.013 68.0416 175.915 69.0558C176.61 69.8381 177.789 70.4293 177.801 70.4346C177.865 70.4668 177.887 70.5365 177.847 70.5902C177.821 70.6257 177.776 70.6451 177.729 70.6451C177.705 70.6451 177.68 70.6398 177.658 70.629C177.608 70.6042 176.421 70.009 175.692 69.1899C174.727 68.1047 174.824 66.9953 174.828 66.9484C174.835 66.8867 174.902 66.8405 174.977 66.8451Z" fill="#222256"/>
<path d="M175.424 41.055C175.424 41.055 175.435 42.9171 177.329 43.3642C179.723 43.9293 180.852 42.4854 180.852 42.4854C180.852 42.4854 182.724 43.4225 185.07 45.3711C187.415 47.3197 188.648 49.2274 188.648 49.2274L184.322 54.3633L181.52 52.5991C181.52 52.5991 180.451 56.4352 180.365 59.9926C180.269 63.9675 180.451 67 180.451 67C180.451 67 174.768 67.2694 168.789 64.9368C163.409 62.838 162.119 61.1663 162.119 61.1663L166.171 48.6778L161.146 49.3702L160.232 43.5137C160.232 43.5137 163.704 41.6657 168.059 41.183C172.376 40.7044 175.424 41.055 175.424 41.055Z" fill="#FF4E00"/>
<path d="M172.321 30.926C173.015 30.926 173.578 31.414 173.578 32.0152C173.578 32.6172 173.015 33.1045 172.321 33.1045C171.626 33.1045 171.063 32.6165 171.063 32.0152C171.063 31.4133 171.626 30.926 172.321 30.926Z" fill="#FFAE81"/>
<path d="M187.774 37.3804C188.468 37.3804 189.031 37.8684 189.031 38.4697C189.031 39.0716 188.468 39.5589 187.774 39.5589C187.079 39.5589 186.516 39.0709 186.516 38.4697C186.516 37.8684 187.079 37.3804 187.774 37.3804Z" fill="#FFAE81"/>
<path d="M184.64 24.7612C189.131 25.7311 191.851 30.9092 189.672 35.2917C187.559 39.5388 181.435 42.3454 177.706 41.287C174.238 40.3023 171.708 35.4512 172.729 30.9374C173.833 26.0636 180.149 23.7906 184.64 24.7612Z" fill="#FFAE81"/>
<path d="M176.659 37.6183C176.69 37.6002 176.727 37.5922 176.762 37.5969C176.797 37.6016 176.829 37.6163 176.851 37.6418C176.855 37.6472 176.865 37.6579 176.879 37.6726C176.903 37.6974 176.929 37.7249 176.959 37.7558C177.047 37.8422 177.144 37.9287 177.246 38.0091C177.361 38.1003 177.475 38.1774 177.587 38.2364C177.674 38.2826 177.774 38.3282 177.887 38.3738C178.037 38.4341 178.201 38.4904 178.362 38.5393C178.419 38.5568 178.47 38.5709 178.517 38.5843C178.545 38.5923 178.564 38.5983 178.574 38.601C178.647 38.6198 178.688 38.6828 178.666 38.7431C178.643 38.8028 178.566 38.8376 178.494 38.8189C178.482 38.8155 178.461 38.8081 178.431 38.8001C178.382 38.786 178.324 38.7706 178.265 38.7525C178.095 38.7009 177.926 38.6432 177.767 38.5796C177.645 38.5306 177.535 38.4797 177.438 38.4281C177.309 38.3604 177.18 38.2752 177.054 38.1747C176.944 38.0876 176.841 37.9951 176.747 37.9026C176.714 37.8704 176.687 37.8395 176.661 37.8127C176.646 37.796 176.633 37.7839 176.627 37.7772C176.583 37.7263 176.598 37.6552 176.659 37.6183Z" fill="#E55151"/>
<path d="M177.984 35.891C178.079 35.8622 178.184 35.9024 178.219 35.9808C178.22 35.9835 178.225 35.9922 178.233 36.0069C178.248 36.0338 178.268 36.0639 178.293 36.0968C178.367 36.1933 178.467 36.2918 178.597 36.383C178.73 36.4768 178.888 36.5579 179.069 36.6243C179.414 36.751 179.764 36.7322 180.088 36.6223C180.146 36.6028 180.198 36.5814 180.242 36.5606C180.268 36.5486 180.285 36.5405 180.291 36.5372C180.375 36.4896 180.489 36.5063 180.546 36.5747C180.604 36.6437 180.581 36.7376 180.498 36.7852C180.443 36.816 180.35 36.8589 180.226 36.9011C179.816 37.0399 179.368 37.0654 178.92 36.9011C178.705 36.822 178.518 36.7248 178.359 36.6122C178.202 36.5003 178.077 36.3803 177.984 36.2596C177.927 36.1852 177.893 36.1256 177.875 36.0867C177.84 36.009 177.889 35.9198 177.984 35.891Z" fill="#DB6C35"/>
<path d="M175.481 31.9851C176.652 31.9851 177.602 32.7915 177.602 33.7855C177.602 34.7803 176.653 35.586 175.481 35.586C174.311 35.586 173.361 34.7796 173.361 33.7855C173.361 32.7915 174.311 31.9851 175.481 31.9851Z" fill="#FF8F83"/>
<path d="M183.834 34.8708C185.004 34.8708 185.953 35.6771 185.953 36.6712C185.953 37.6653 185.004 38.4717 183.834 38.4717C182.663 38.4717 181.713 37.6653 181.713 36.6712C181.713 35.6771 182.663 34.8708 183.834 34.8708Z" fill="#FF8F83"/>
<path d="M177.758 31.0547C177.82 30.8623 178.059 30.7477 178.293 30.7986C178.526 30.8496 178.664 31.0473 178.602 31.2404L178.496 31.5722C178.433 31.7645 178.194 31.8792 177.961 31.8282C177.728 31.7773 177.589 31.5795 177.651 31.3865L177.758 31.0547Z" fill="#212121"/>
<path d="M184.119 33.144C184.198 32.9557 184.447 32.8558 184.674 32.9208C184.902 32.9858 185.024 33.191 184.945 33.38L184.809 33.7044C184.73 33.8928 184.482 33.9927 184.254 33.9276C184.026 33.8626 183.904 33.6568 183.983 33.4685L184.119 33.144Z" fill="#212121"/>
<path d="M178.323 29.0149C179.041 29.0196 179.49 29.5023 179.23 29.9601C179.088 30.2094 178.736 29.7362 178.188 29.7362C177.639 29.7362 177.444 29.9601 177.32 29.704C177.213 29.4848 177.774 29.0116 178.323 29.0149Z" fill="#491212"/>
<path d="M185.848 30.9997C186.295 31.2618 186.416 31.9167 186.175 32.0434C185.893 32.1916 185.893 31.9154 185.448 31.6506C185.003 31.3858 184.382 31.5997 184.444 31.3289C184.555 30.8315 185.261 30.6565 185.848 30.9997Z" fill="#491212"/>
<path d="M175.538 21.8533C177.267 20.2708 180.939 20.0536 183.32 20.7587C186.761 21.7776 187.53 23.7952 187.53 23.7952C187.53 23.7952 193.338 23.6089 194.118 28.0912C194.747 31.7069 190.438 35.9955 188.506 37.4983L188.104 37.3529C188.104 37.3529 189.156 32.7432 187.633 30.743C186.111 28.7428 186.065 25.8028 186.065 25.8028C186.065 25.8028 184.418 27.0978 180.516 26.3933C177.866 25.9147 175.791 27.8834 174.698 28.9988C173.604 30.1136 172.821 30.991 172.821 30.991L172.533 30.8878C172.195 29.3018 172.086 25.0152 175.538 21.8533Z" fill="#491212"/>
<path d="M178.375 27.6449C178.4 27.6522 180.82 28.3956 183.212 27.4692C185.222 26.6903 186.109 25.5508 186.118 25.5394C186.143 25.5059 186.195 25.4945 186.238 25.5126C186.28 25.5307 186.298 25.5729 186.279 25.6091C186.273 25.6225 185.606 26.9296 185.805 27.9371C186.006 28.9546 186.888 30.3972 186.896 30.4119C186.919 30.4494 186.901 30.495 186.856 30.5138C186.843 30.5191 186.829 30.5218 186.815 30.5218C186.782 30.5218 186.75 30.5064 186.733 30.4803C186.697 30.4206 185.83 29.0029 185.624 27.9613C185.49 27.2816 185.722 26.4946 185.909 26.0093C185.473 26.4229 184.631 27.0858 183.29 27.6053C180.826 28.5598 178.335 27.793 178.311 27.785C178.263 27.7702 178.24 27.726 178.258 27.6871C178.275 27.6496 178.328 27.6301 178.375 27.6449Z" fill="#491212"/>
<path d="M190.027 22.4385C190.075 22.4359 190.121 22.4667 190.125 22.5089C190.128 22.5505 190.091 22.5867 190.04 22.59C188.713 22.6691 187.587 23.8911 187.575 23.9032C187.557 23.9233 187.53 23.9333 187.502 23.9333C187.482 23.9333 187.463 23.9286 187.447 23.9179C187.406 23.8924 187.398 23.8455 187.429 23.812C187.476 23.7591 188.616 22.5223 190.027 22.4385Z" fill="#491212"/>
<path d="M186.644 21.1133C186.675 21.1402 187.399 21.783 187.682 22.5572C187.971 23.3488 187.484 23.9581 187.463 23.9836C187.446 24.0051 187.416 24.0171 187.387 24.0171C187.369 24.0171 187.351 24.0131 187.335 24.0044C187.293 23.9809 187.283 23.934 187.311 23.8991C187.315 23.8938 187.769 23.322 187.506 22.6014C187.236 21.8614 186.518 21.2239 186.511 21.2172C186.476 21.1871 186.478 21.1388 186.515 21.11C186.552 21.0812 186.61 21.0825 186.644 21.1133Z" fill="#491212"/>
<path d="M189.694 22.8689C191.362 22.393 192.581 22.8153 192.632 22.8334C192.678 22.8501 192.7 22.8944 192.68 22.9326C192.66 22.9708 192.607 22.9889 192.56 22.9721C192.548 22.9681 191.352 22.5559 189.754 23.0117C188.163 23.4655 187.602 24.168 187.597 24.1753C187.579 24.1981 187.55 24.2102 187.519 24.2102C187.502 24.2102 187.485 24.2062 187.47 24.1981C187.427 24.1753 187.414 24.1291 187.442 24.0936C187.465 24.0634 188.037 23.3415 189.694 22.8689Z" fill="#491212"/>
<path d="M188.298 22.0089C188.456 21.5001 188.373 21.1904 188.372 21.1871C188.361 21.1462 188.391 21.106 188.44 21.0959C188.49 21.0859 188.539 21.1113 188.55 21.1522C188.554 21.1663 188.645 21.4974 188.475 22.0464C188.307 22.586 188.145 22.8401 188.138 22.8508C188.122 22.8763 188.09 22.891 188.058 22.891C188.043 22.891 188.028 22.8883 188.014 22.8823C187.969 22.8628 187.953 22.8166 187.977 22.7797C187.979 22.7764 188.136 22.5284 188.298 22.0089Z" fill="#491212"/>
<path d="M187.946 24.6881C187.998 24.6861 189.232 24.6358 190.711 25.0527C192.08 25.4382 193.912 26.3149 194.868 28.2997C194.887 28.3386 194.864 28.3828 194.817 28.3982C194.806 28.4016 194.794 28.4036 194.783 28.4036C194.746 28.4036 194.712 28.3855 194.698 28.356C193.769 26.4269 191.988 25.5742 190.659 25.1982C189.212 24.7893 187.968 24.8396 187.956 24.8396C187.907 24.8423 187.863 24.8101 187.86 24.7679C187.856 24.7256 187.895 24.6901 187.946 24.6881Z" fill="#491212"/>
<path d="M193.06 27.4712C193.077 27.4846 194.803 28.8192 194.514 31.1586C194.311 32.8049 193.278 33.4222 193.234 33.4477C193.218 33.4571 193.199 33.4618 193.181 33.4618C193.152 33.4618 193.123 33.4504 193.106 33.4296C193.077 33.3954 193.087 33.3485 193.128 33.3244C193.138 33.3183 194.138 32.7164 194.332 31.1438C194.611 28.8829 192.953 27.5959 192.936 27.5832C192.899 27.555 192.897 27.5067 192.931 27.4759C192.964 27.4451 193.023 27.4424 193.06 27.4712Z" fill="#491212"/>
<path d="M186.841 25.8109C186.873 25.825 190.067 27.2681 190.644 30.6525C191.22 34.0249 190.063 35.7214 190.014 35.7918C189.997 35.8159 189.967 35.8293 189.935 35.8293C189.919 35.8293 189.903 35.826 189.889 35.8193C189.844 35.7985 189.83 35.7522 189.855 35.716C189.867 35.6993 191.028 33.9887 190.463 30.674C189.899 27.3687 186.787 25.9584 186.755 25.945C186.711 25.9255 186.694 25.8793 186.718 25.8424C186.741 25.8055 186.796 25.7915 186.841 25.8109Z" fill="#212121"/>
<path d="M190.109 26.4075C190.138 26.4249 192.975 28.1945 192.451 30.928C191.932 33.6374 191.353 34.2152 191.329 34.2387C191.311 34.2561 191.286 34.2648 191.26 34.2648C191.24 34.2648 191.218 34.2588 191.201 34.2467C191.163 34.2199 191.158 34.1723 191.19 34.1401C191.196 34.1348 191.763 33.5496 192.271 30.9046C192.777 28.2635 190.029 26.5469 190.001 26.5301C189.96 26.5053 189.952 26.4577 189.982 26.4242C190.011 26.3894 190.068 26.3827 190.109 26.4075Z" fill="#212121"/>
<path d="M178.581 23.4326C181.381 22.5263 183.251 22.9312 184.327 23.4299C185.496 23.9722 185.992 24.7209 186.012 24.7524C186.036 24.7893 186.02 24.8349 185.975 24.855C185.931 24.8751 185.875 24.861 185.851 24.8242C185.846 24.8168 185.355 24.0774 184.228 23.5579C182.737 22.8695 180.807 22.8749 178.647 23.5734C174.333 24.9689 172.941 29.7308 172.928 29.7784C172.918 29.8133 172.88 29.8367 172.839 29.8367C172.832 29.8367 172.825 29.8361 172.818 29.8347C172.769 29.8253 172.738 29.7844 172.75 29.7436C172.764 29.696 174.176 24.8577 178.581 23.4326Z" fill="#212121"/>
<path d="M177.875 25.0749C181.251 23.265 184.658 25.0554 184.693 25.0735C184.735 25.0963 184.747 25.1432 184.719 25.1781C184.692 25.213 184.635 25.223 184.592 25.2002C184.559 25.1821 181.249 23.446 177.975 25.2016C174.686 26.9645 174.176 28.7307 174.172 28.7482C174.162 28.7837 174.124 28.8078 174.082 28.8078C174.075 28.8078 174.069 28.8071 174.062 28.8058C174.013 28.7971 173.981 28.7562 173.993 28.7153C174.013 28.6416 174.516 26.8753 177.875 25.0749Z" fill="#212121"/>
<path d="M177.594 21.8138C179.331 21.0946 181.337 21.057 183.238 21.7072C184.774 22.2321 186.081 23.1799 186.417 24.0124C186.433 24.052 186.407 24.0949 186.359 24.1083C186.311 24.121 186.259 24.1002 186.243 24.0607C185.922 23.267 184.658 22.3567 183.168 21.8473C182.095 21.4807 179.955 21.0061 177.675 21.9499C173.56 23.6531 173.084 27.1595 173.079 27.1944C173.075 27.2332 173.035 27.2627 172.989 27.2627C172.985 27.2627 172.983 27.2627 172.979 27.2621C172.929 27.258 172.892 27.2205 172.897 27.1789C172.902 27.1427 173.386 23.5553 177.594 21.8138Z" fill="#212121"/>
<path d="M181.623 20.1421C185.576 20.7205 187.293 23.4098 187.31 23.4366C187.333 23.4735 187.315 23.5198 187.271 23.5385C187.257 23.5446 187.243 23.5472 187.229 23.5472C187.195 23.5472 187.163 23.5325 187.147 23.5064C187.13 23.4802 185.452 20.8566 181.59 20.2916C177.738 19.7278 175.944 21.0865 175.926 21.1006C175.89 21.1294 175.831 21.1281 175.797 21.0979C175.762 21.0678 175.763 21.0195 175.8 20.9907C175.875 20.9317 177.671 19.5643 181.623 20.1421Z" fill="#491212"/>
<path d="M175.995 21.5048C176.033 21.4767 176.091 21.4794 176.125 21.5109C176.159 21.5424 176.156 21.59 176.118 21.6181C176.096 21.6342 173.927 23.259 172.918 25.5381C171.973 27.675 172.099 29.4775 172.1 29.4956C172.104 29.5371 172.065 29.5733 172.015 29.576C172.013 29.576 172.011 29.576 172.009 29.576C171.961 29.576 171.921 29.5452 171.917 29.505C171.916 29.4869 171.786 27.6542 172.746 25.4858C173.771 23.1699 175.973 21.5216 175.995 21.5048Z" fill="#491212"/>
<path d="M192.143 34.0315C193.456 31.9911 193.212 31.1438 193.208 31.1311C193.195 31.0909 193.224 31.0493 193.272 31.0379C193.321 31.0265 193.372 31.05 193.385 31.0909C193.397 31.1264 193.664 31.9897 192.305 34.1026C190.954 36.2006 189.077 37.5479 189.058 37.5613C189.041 37.5734 189.019 37.5794 188.998 37.5794C188.972 37.5794 188.947 37.5707 188.929 37.5533C188.896 37.5218 188.9 37.4735 188.938 37.4467C188.957 37.434 190.809 36.1034 192.143 34.0315Z" fill="#491212"/>
<path d="M175.68 40.3083C175.741 40.2715 175.827 40.2822 175.872 40.3324C175.879 40.3398 176.544 41.0678 178.107 41.4009C179.633 41.726 180.978 41.3708 180.991 41.3667C181.064 41.3473 181.141 41.3795 181.165 41.4391C181.188 41.4988 181.15 41.5631 181.078 41.5826C181.038 41.5933 180.384 41.7669 179.463 41.7669C179.035 41.7669 178.549 41.7294 178.039 41.6208C176.374 41.2662 175.68 40.4994 175.651 40.4672C175.606 40.4162 175.619 40.3459 175.68 40.3083Z" fill="#DB6C35"/>
<path d="M92.1589 71.3816C89.6069 74.5806 86.8203 78.7149 86.8203 78.7149L87.4646 79.3951C87.4646 79.3951 90.4721 78.1771 95.1475 75.4149C99.8237 72.6527 100.698 71.2697 100.698 71.2697L97.0277 65.9204C97.0284 65.9197 94.711 68.1826 92.1589 71.3816Z" fill="#FFAE81"/>
<path d="M127.724 70.0285C124.643 67.267 121.959 65.3928 121.959 65.3928L119.281 71.2355C119.281 71.2355 120.387 72.4651 125.486 74.468C130.584 76.4708 133.765 77.2084 133.765 77.2084L134.281 76.4381C134.281 76.4374 130.804 72.7893 127.724 70.0285Z" fill="#FFAE81"/>
<path d="M87.0704 78.276C87.0704 78.276 86.4449 78.5732 85.6471 78.2346C84.8485 77.8959 84.3345 77.5405 83.856 77.7179C83.3767 77.8952 83.25 78.3079 83.25 78.3079L86.5557 80.773C86.5557 80.773 87.0125 80.608 87.4245 80.2744C87.8364 79.9409 88.1289 79.1764 88.1289 79.1764C88.1289 79.1764 87.7481 79.0485 87.5056 78.8116C87.263 78.5747 87.0704 78.276 87.0704 78.276Z" fill="#AA6100"/>
<path d="M137.036 74.997C136.532 74.896 136.088 75.3262 135.36 75.7834C134.633 76.2405 133.963 76.0435 133.963 76.0435C133.963 76.0435 133.826 76.3676 133.628 76.6387C133.431 76.9098 133.078 77.0943 133.078 77.0943C133.078 77.0943 133.501 77.8029 133.966 78.0689C134.431 78.3341 134.911 78.4264 134.911 78.4264L137.738 75.4854C137.738 75.4854 137.54 75.0973 137.036 74.997Z" fill="#AA6100"/>
<path d="M83.3996 77.9766L83 78.4685L86.507 81.1094L86.9833 80.6632C86.9833 80.6632 86.2999 80.3704 84.9388 79.3261C83.577 78.2811 83.3996 77.9766 83.3996 77.9766Z" fill="#754001"/>
<path d="M136.242 76.7499C135.083 77.9896 134.461 78.3842 134.461 78.3842L135.009 78.7512L138.003 75.6053L137.522 75.1816C137.522 75.1816 137.4 75.5094 136.242 76.7499Z" fill="#754001"/>
<path d="M87.1866 77.4264C87.1468 77.3806 87.07 77.3312 86.9288 77.3559C86.7985 77.3785 86.7377 77.441 86.7095 77.4962C86.5936 77.3639 86.4727 77.2651 86.3649 77.2593C86.3135 77.2564 86.2396 77.2709 86.1817 77.3552C86.1339 77.425 86.1216 77.5056 86.1462 77.5885C86.1976 77.7593 86.4018 77.9257 86.598 78.0514L85.8002 77.9424C85.7582 77.9359 85.7184 77.9642 85.7118 78.0042C85.7053 78.0441 85.735 78.0812 85.7777 78.0863L86.9484 78.2462C86.9701 78.2563 86.986 78.2636 86.994 78.268C87.0049 78.273 87.0157 78.2752 87.0273 78.2752L87.0519 78.4446L86.8876 78.3065C86.8702 78.2919 86.8478 78.2854 86.8246 78.2883C86.8014 78.2912 86.7819 78.3043 86.7696 78.3225L86.5603 78.6451L86.3055 78.3668C86.291 78.3515 86.2707 78.3421 86.249 78.3414C86.2273 78.3414 86.2063 78.3486 86.1911 78.3632L85.903 78.6415L85.8899 78.2469C85.8885 78.2069 85.8544 78.1764 85.8096 78.1764C85.7668 78.1779 85.7328 78.2113 85.7343 78.2512L85.7531 78.8174C85.7538 78.8464 85.7734 78.8726 85.8031 78.8828C85.8125 78.8864 85.8219 78.8878 85.8313 78.8878C85.8523 78.8878 85.8726 78.8799 85.887 78.8653L86.2432 78.5209L86.5118 78.8152C86.5278 78.8326 86.5524 78.8421 86.577 78.8406C86.6016 78.8384 86.6241 78.8261 86.6371 78.8057L86.8536 78.4722L87.1055 78.6844C87.1301 78.7047 87.1649 78.7091 87.1938 78.6945C87.2228 78.68 87.2387 78.6509 87.2344 78.6204L87.1779 78.228C87.1764 78.22 87.1743 78.2127 87.1706 78.2062C87.1627 78.1909 87.1511 78.1684 87.1366 78.1415C87.2083 77.9591 87.3263 77.5878 87.1866 77.4264ZM86.2961 77.5492C86.2831 77.5056 86.2881 77.4693 86.3127 77.4337C86.3308 77.4068 86.3446 77.4046 86.3525 77.4046C86.354 77.4046 86.3547 77.4046 86.3554 77.4046C86.4329 77.409 86.5618 77.5412 86.6972 77.7273C86.7225 77.8268 86.7754 77.9293 86.8297 78.0165C86.6103 77.8915 86.3439 77.7084 86.2961 77.5492ZM87.036 77.9635C86.981 77.8712 86.9144 77.7651 86.8412 77.6641C86.8347 77.6263 86.8354 77.5928 86.8463 77.5667C86.855 77.5442 86.8767 77.5129 86.9571 77.4991C87.0374 77.4846 87.0584 77.51 87.0657 77.518C87.1243 77.5856 87.0932 77.7796 87.036 77.9635Z" fill="#212121"/>
<path d="M135.187 75.7514C135.144 75.7565 135.115 75.7935 135.121 75.8335L135.177 76.2245L134.844 75.9941C134.827 75.9817 134.804 75.9767 134.782 75.981C134.761 75.9846 134.743 75.997 134.731 76.0152L134.529 76.3291L134.265 76.0428C134.25 76.0261 134.23 76.0173 134.205 76.0173C134.182 76.0181 134.161 76.0275 134.146 76.045L134.008 76.207L134.003 76.0355C134.014 76.0333 134.024 76.0297 134.035 76.0232C134.043 76.0181 134.056 76.0086 134.076 75.9948L135.203 75.6569C135.244 75.6445 135.267 75.6038 135.253 75.5653C135.24 75.5268 135.197 75.5057 135.155 75.5181L134.388 75.7485C134.559 75.5944 134.732 75.3982 134.752 75.2223C134.762 75.1366 134.736 75.0588 134.676 74.9978C134.604 74.9236 134.529 74.9207 134.478 74.9316C134.373 74.9542 134.271 75.0704 134.181 75.2187C134.143 75.1685 134.072 75.1162 133.94 75.114C133.794 75.1097 133.729 75.1722 133.698 75.223C133.589 75.4033 133.77 75.7521 133.872 75.9214C133.863 75.9498 133.855 75.9737 133.85 75.9905C133.848 75.9977 133.846 76.0057 133.847 76.013L133.86 76.409C133.861 76.4396 133.883 76.4665 133.913 76.4759C133.944 76.4854 133.978 76.4759 133.998 76.4519L134.21 76.2041L134.482 76.4999C134.496 76.5159 134.518 76.5253 134.541 76.5253C134.543 76.5253 134.545 76.5253 134.547 76.5253C134.572 76.5231 134.594 76.5101 134.607 76.4904L134.82 76.1591L135.232 76.4439C135.257 76.4614 135.291 76.4628 135.318 76.4483C135.345 76.4338 135.36 76.4047 135.356 76.3756L135.275 75.8139C135.269 75.7739 135.229 75.747 135.187 75.7514ZM134.232 75.4447C134.334 75.2405 134.437 75.0893 134.512 75.0733C134.52 75.0719 134.534 75.069 134.56 75.0951C134.591 75.1264 134.602 75.1613 134.596 75.2063C134.578 75.3713 134.347 75.5929 134.153 75.7499C134.19 75.6562 134.224 75.5464 134.232 75.4447ZM133.94 75.7296C133.851 75.5573 133.786 75.3706 133.833 75.295C133.838 75.2863 133.854 75.2594 133.93 75.2594C133.932 75.2594 133.934 75.2594 133.936 75.2594C134.018 75.2608 134.045 75.2885 134.057 75.3088C134.072 75.3335 134.079 75.3662 134.079 75.404C134.025 75.5152 133.978 75.63 133.94 75.7296Z" fill="#212121"/>
<path d="M117.718 60.89C116.511 60.172 116.245 59.324 116.245 59.324L109.6 59.4679L103.843 59.486C103.843 59.486 98.3042 63.9495 96.3017 65.8259C94.2441 67.7539 92.8266 69.5707 92.8266 69.5714C92.7353 69.6884 93.6722 70.7675 93.7518 70.8642C95.0448 72.4281 96.857 73.6969 98.609 74.7827C98.7987 75.0494 106.855 65.9429 109.188 65.746C112.364 65.4771 121.34 74.803 121.34 74.803C121.34 74.803 123.617 73.0829 124.648 71.9754C125.68 70.8686 127.208 68.8846 127.208 68.8846C127.208 68.8846 123.703 65.5076 122.088 64.1399C121.343 63.5091 119.699 62.068 117.718 60.89Z" fill="#2E8DAF"/>
<path d="M117.271 65.2307C117.232 65.2438 113.299 66.5628 109.539 66.4596C105.929 66.3615 101.986 64.5869 101.947 64.5694C101.909 64.552 101.862 64.5672 101.844 64.6029C101.825 64.6392 101.841 64.6828 101.88 64.7002C101.92 64.7184 105.891 66.5061 109.535 66.6057C109.677 66.6093 109.818 66.6115 109.96 66.6115C113.616 66.6115 117.287 65.3812 117.325 65.3681C117.365 65.3543 117.386 65.3129 117.371 65.2751C117.357 65.2366 117.312 65.2169 117.271 65.2307Z" fill="#053D4C"/>
<path d="M118.535 67.3171C115.317 66.7037 112.856 66.6471 110.475 66.5918C110.147 66.5838 109.82 66.5766 109.492 66.5678C108.72 66.5468 108.039 66.4835 107.381 66.4225C105.733 66.2699 104.03 66.1115 100.745 66.594C100.703 66.6006 100.674 66.6376 100.681 66.6769C100.687 66.7168 100.728 66.7437 100.77 66.7372C104.035 66.2575 105.728 66.4152 107.367 66.5671C108.028 66.6282 108.711 66.6921 109.489 66.7132C109.817 66.7219 110.143 66.7299 110.472 66.7372C112.846 66.7924 115.301 66.8491 118.504 67.4595C118.51 67.4603 118.515 67.461 118.52 67.461C118.557 67.461 118.589 67.437 118.596 67.4028C118.604 67.3636 118.577 67.3251 118.535 67.3171Z" fill="#053D4C"/>
<path d="M105.52 61.2999C104.34 62.2992 102.692 62.7076 100.997 62.4198C100.933 62.4089 100.873 62.4481 100.861 62.5077C100.85 62.5666 100.892 62.624 100.955 62.6342C101.325 62.6974 101.694 62.7279 102.056 62.7279C103.422 62.7279 104.701 62.2875 105.677 61.4613C105.725 61.4206 105.729 61.3515 105.685 61.3072C105.642 61.2629 105.568 61.2592 105.52 61.2999Z" fill="#053D4C"/>
<path d="M118.463 62.3115C118.45 62.3151 117.181 62.6741 115.932 62.3929C114.85 62.1502 113.883 61.4787 113.874 61.4721C113.822 61.4358 113.749 61.446 113.711 61.4939C113.672 61.5419 113.683 61.6102 113.734 61.6465C113.774 61.6749 114.748 62.3515 115.878 62.6051C116.253 62.6894 116.627 62.7199 116.97 62.7199C117.827 62.7199 118.493 62.531 118.532 62.5193C118.593 62.5019 118.628 62.4408 118.608 62.3827C118.59 62.326 118.524 62.2933 118.463 62.3115Z" fill="#053D4C"/>
<path d="M101.08 63.0055C101.007 62.9837 100.943 62.9663 100.886 62.9503C100.753 62.9132 100.656 62.8871 100.532 62.8326C100.493 62.8158 100.446 62.8318 100.429 62.8682C100.411 62.9045 100.428 62.9481 100.467 62.9648C100.601 63.023 100.708 63.0528 100.842 63.0898C100.899 63.1058 100.961 63.1225 101.034 63.1443C101.042 63.1465 101.05 63.1479 101.057 63.1479C101.09 63.1479 101.121 63.1283 101.131 63.0971C101.144 63.0586 101.121 63.0179 101.08 63.0055Z" fill="#053D4C"/>
<path d="M102.607 63.044C102.567 63.0484 102.525 63.0513 102.485 63.0542C102.378 63.0615 102.267 63.0695 102.16 63.1065C102.12 63.1203 102.1 63.1625 102.114 63.1996C102.126 63.2294 102.155 63.2475 102.187 63.2475C102.196 63.2475 102.205 63.2461 102.214 63.2432C102.3 63.2134 102.396 63.2068 102.496 63.1996C102.54 63.1967 102.583 63.193 102.626 63.1887C102.669 63.1836 102.699 63.1472 102.694 63.108C102.689 63.0673 102.65 63.0382 102.607 63.044Z" fill="#053D4C"/>
<path d="M104.292 62.6C104.26 62.616 104.229 62.6349 104.198 62.6538C104.134 62.693 104.073 62.7308 104.013 62.7323C103.97 62.7337 103.936 62.7671 103.938 62.8071C103.939 62.8464 103.974 62.8776 104.015 62.8776C104.016 62.8776 104.016 62.8776 104.017 62.8776C104.121 62.8747 104.208 62.8217 104.284 62.7751C104.311 62.7584 104.338 62.7417 104.365 62.7279C104.403 62.709 104.418 62.6647 104.397 62.6291C104.376 62.5935 104.329 62.5804 104.292 62.6Z" fill="#053D4C"/>
<path d="M105.698 61.8297C105.659 61.8559 105.615 61.8791 105.568 61.9038C105.454 61.9634 105.326 62.031 105.265 62.1545C105.247 62.1909 105.264 62.2345 105.303 62.2512C105.314 62.2556 105.324 62.2577 105.335 62.2577C105.365 62.2577 105.392 62.2418 105.406 62.2156C105.446 62.1349 105.542 62.0841 105.644 62.0303C105.693 62.0048 105.743 61.9787 105.788 61.9474C105.823 61.9242 105.831 61.8784 105.807 61.8457C105.781 61.8137 105.733 61.8057 105.698 61.8297Z" fill="#053D4C"/>
<path d="M106.475 61.1444C106.436 61.188 106.407 61.22 106.382 61.2461C106.318 61.3137 106.283 61.3515 106.234 61.4518C106.216 61.4881 106.233 61.5317 106.271 61.5484C106.282 61.5528 106.293 61.555 106.304 61.555C106.334 61.555 106.361 61.539 106.374 61.5128C106.414 61.4322 106.437 61.4075 106.498 61.3428C106.523 61.3159 106.554 61.2825 106.594 61.2374C106.622 61.2062 106.617 61.1604 106.584 61.1349C106.552 61.1088 106.502 61.1131 106.475 61.1444Z" fill="#053D4C"/>
<path d="M113.626 61.8915C113.552 61.8268 113.463 61.7454 113.341 61.7498C113.298 61.7512 113.264 61.7847 113.266 61.8246C113.267 61.8646 113.3 61.8951 113.346 61.8951C113.402 61.8908 113.464 61.9482 113.519 61.9969C113.544 62.0194 113.569 62.0405 113.592 62.0572C113.606 62.0673 113.623 62.0724 113.639 62.0724C113.662 62.0724 113.686 62.0623 113.701 62.0441C113.727 62.0121 113.72 61.9663 113.686 61.9424C113.667 61.9278 113.646 61.9104 113.626 61.8915Z" fill="#053D4C"/>
<path d="M114.871 62.5847C114.828 62.5702 114.785 62.5557 114.742 62.5419C114.648 62.5114 114.551 62.4794 114.462 62.4401C114.422 62.4234 114.376 62.4394 114.359 62.4757C114.341 62.5121 114.358 62.5557 114.396 62.5724C114.493 62.6145 114.594 62.6472 114.691 62.6792C114.733 62.693 114.775 62.7068 114.817 62.7214C114.826 62.7243 114.835 62.7257 114.844 62.7257C114.876 62.7257 114.905 62.7076 114.917 62.6785C114.931 62.6407 114.91 62.5993 114.871 62.5847Z" fill="#053D4C"/>
<path d="M116.587 62.9881C116.527 62.9815 116.461 62.9765 116.393 62.9706C116.13 62.9496 115.805 62.9227 115.579 62.8253C115.54 62.8086 115.494 62.8246 115.476 62.8609C115.458 62.8972 115.475 62.9408 115.514 62.9576C115.763 63.0658 116.104 63.0935 116.378 63.116C116.446 63.1218 116.511 63.1269 116.568 63.1327C116.571 63.1327 116.574 63.1334 116.577 63.1334C116.616 63.1334 116.65 63.1058 116.654 63.0687C116.66 63.0288 116.629 62.9924 116.587 62.9881Z" fill="#053D4C"/>
<path d="M118.106 62.9191C118.036 62.9714 117.927 62.9641 117.812 62.9568C117.673 62.9474 117.515 62.9372 117.389 63.0324C117.355 63.0579 117.349 63.1029 117.376 63.1349C117.391 63.1531 117.414 63.1625 117.437 63.1625C117.454 63.1625 117.471 63.1574 117.486 63.1465C117.565 63.0869 117.68 63.0942 117.801 63.1022C117.934 63.1109 118.085 63.1211 118.203 63.0332C118.236 63.0085 118.242 62.9627 118.215 62.9307C118.189 62.8987 118.139 62.8936 118.106 62.9191Z" fill="#053D4C"/>
<path d="M119.339 62.568C119.319 62.5746 119.3 62.5819 119.28 62.5891C119.245 62.6022 119.211 62.6146 119.175 62.6247C119.134 62.6364 119.083 62.6414 119.029 62.6473C118.899 62.6611 118.736 62.6785 118.671 62.8093C118.653 62.8456 118.671 62.8893 118.709 62.906C118.72 62.9103 118.731 62.9125 118.741 62.9125C118.771 62.9125 118.799 62.8965 118.812 62.8704C118.838 62.818 118.922 62.805 119.046 62.7919C119.104 62.7853 119.164 62.7795 119.219 62.7643C119.259 62.7526 119.298 62.7388 119.336 62.725C119.354 62.7185 119.373 62.7112 119.391 62.7054C119.431 62.6916 119.452 62.6494 119.437 62.6124C119.424 62.5739 119.379 62.5542 119.339 62.568Z" fill="#053D4C"/>
<path d="M93.6259 69.9921C93.4999 69.8163 93.3819 69.6499 93.2893 69.4587C93.2719 69.4224 93.2255 69.4057 93.1864 69.4224C93.1473 69.4391 93.13 69.482 93.1474 69.5183C93.2451 69.7203 93.3674 69.8919 93.4963 70.0728L93.5419 70.1368C93.5571 70.1578 93.5817 70.1695 93.6071 70.1695C93.6216 70.1695 93.6368 70.1658 93.6498 70.1571C93.6853 70.1346 93.6954 70.0895 93.6715 70.0561L93.6259 69.9921Z" fill="#053D4C"/>
<path d="M94.4236 70.9049C94.3165 70.8119 94.2151 70.7232 94.1203 70.6222C94.092 70.5917 94.0428 70.5888 94.011 70.6157C93.9784 70.6426 93.9755 70.6883 94.0037 70.7181C94.1036 70.8242 94.2071 70.9151 94.3172 71.011C94.3599 71.0488 94.4034 71.0866 94.4475 71.1258C94.4627 71.1396 94.4823 71.1462 94.5011 71.1462C94.5214 71.1462 94.5416 71.1389 94.5568 71.1236C94.5865 71.0946 94.5858 71.0488 94.5547 71.0204C94.5112 70.9812 94.4671 70.9427 94.4236 70.9049Z" fill="#053D4C"/>
<path d="M95.4396 71.9143C95.3274 71.8228 95.221 71.737 95.124 71.6498C95.0928 71.6222 95.0436 71.6229 95.0139 71.652C94.9842 71.6811 94.985 71.7269 95.0161 71.7552C95.116 71.8453 95.2289 71.9369 95.3375 72.0248C95.4483 72.1149 95.5634 72.2087 95.6677 72.3024C95.6829 72.3162 95.7024 72.3228 95.7212 72.3228C95.7415 72.3228 95.7618 72.3155 95.777 72.3002C95.8067 72.2712 95.806 72.2254 95.7748 72.197C95.6684 72.1004 95.5518 72.0059 95.4396 71.9143Z" fill="#053D4C"/>
<path d="M96.5941 72.9673C96.5036 72.8903 96.3907 72.7951 96.319 72.7094C96.2922 72.6774 96.2437 72.6723 96.2097 72.697C96.1757 72.7217 96.1699 72.7675 96.1959 72.7988C96.2756 72.8947 96.3943 72.995 96.4891 73.0749C96.5224 73.1032 96.5529 73.1287 96.5775 73.1505C96.5927 73.1643 96.6122 73.1708 96.6311 73.1708C96.6513 73.1708 96.6716 73.1636 96.6868 73.1483C96.7165 73.1192 96.7158 73.0734 96.6846 73.0451C96.6607 73.024 96.6289 72.9971 96.5941 72.9673Z" fill="#053D4C"/>
<path d="M97.6049 73.6519C97.5057 73.5938 97.4456 73.5589 97.3848 73.4731C97.3609 73.4397 97.3131 73.4302 97.2769 73.4528C97.2414 73.4753 97.2313 73.5204 97.2552 73.5538C97.3341 73.665 97.4173 73.7137 97.5223 73.7754C97.5665 73.8016 97.6164 73.8307 97.6736 73.8692C97.6874 73.8786 97.7033 73.883 97.7193 73.883C97.7431 73.883 97.767 73.8728 97.7822 73.8525C97.8076 73.8198 97.7996 73.7747 97.7649 73.7507C97.7033 73.7093 97.6505 73.6788 97.6049 73.6519Z" fill="#053D4C"/>
<path d="M98.5996 74.2616C98.5511 74.2427 98.504 74.2318 98.4627 74.2216C98.3628 74.1969 98.3259 74.1839 98.3071 74.1352C98.2926 74.0974 98.2484 74.0778 98.2079 74.0908C98.1673 74.1046 98.1463 74.1461 98.1608 74.1839C98.2086 74.3096 98.3223 74.3372 98.4229 74.3619C98.4613 74.3714 98.5011 74.3815 98.5409 74.3961C98.5503 74.3997 98.5605 74.4011 98.5699 74.4011C98.6003 74.4011 98.63 74.3837 98.6423 74.3561C98.6582 74.319 98.6394 74.2762 98.5996 74.2616Z" fill="#053D4C"/>
<path d="M121.492 74.0014C121.464 74.0196 121.434 74.037 121.405 74.0545C121.327 74.1003 121.246 74.1468 121.182 74.2173C121.155 74.2478 121.159 74.2936 121.191 74.3197C121.206 74.3314 121.224 74.3372 121.242 74.3372C121.264 74.3372 121.286 74.3284 121.301 74.3117C121.349 74.2587 121.416 74.2194 121.487 74.178C121.519 74.1591 121.551 74.141 121.581 74.1206C121.617 74.0973 121.625 74.0523 121.6 74.0196C121.576 73.9862 121.528 73.9782 121.492 74.0014Z" fill="#053D4C"/>
<path d="M122.579 72.9964C122.527 73.04 122.471 73.08 122.412 73.1228C122.286 73.2137 122.156 73.3074 122.067 73.439C122.044 73.4731 122.055 73.5182 122.091 73.5393C122.104 73.5465 122.119 73.5502 122.133 73.5502C122.159 73.5502 122.183 73.5378 122.199 73.516C122.272 73.4063 122.387 73.3241 122.507 73.2377C122.566 73.1955 122.627 73.1519 122.683 73.104C122.715 73.0771 122.718 73.0313 122.689 73.0015C122.66 72.9717 122.611 72.9695 122.579 72.9964Z" fill="#053D4C"/>
<path d="M123.7 71.8155C123.648 71.8722 123.588 71.9252 123.524 71.9819C123.376 72.1113 123.224 72.2457 123.174 72.4354C123.164 72.4746 123.189 72.5139 123.231 72.5233C123.238 72.5248 123.244 72.5255 123.25 72.5255C123.285 72.5255 123.317 72.5037 123.325 72.4703C123.365 72.322 123.494 72.2079 123.631 72.088C123.695 72.0313 123.761 71.9732 123.818 71.91C123.846 71.8794 123.842 71.8337 123.81 71.8075C123.776 71.7813 123.727 71.785 123.7 71.8155Z" fill="#053D4C"/>
<path d="M124.945 70.3395C124.787 70.4289 124.696 70.5764 124.606 70.7196C124.568 70.7814 124.533 70.8395 124.491 70.8925C124.466 70.9253 124.474 70.971 124.509 70.9943C124.523 71.0037 124.539 71.0081 124.554 71.0081C124.578 71.0081 124.602 70.9972 124.617 70.9776C124.662 70.9187 124.702 70.8548 124.74 70.793C124.823 70.66 124.9 70.5343 125.024 70.4645C125.061 70.4434 125.073 70.3991 125.05 70.365C125.029 70.3301 124.981 70.3192 124.945 70.3395Z" fill="#053D4C"/>
<path d="M125.954 69.2036C125.946 69.2022 125.883 69.1884 125.858 69.2589C125.857 69.261 125.857 69.2632 125.856 69.2654C125.812 69.4173 125.796 69.4478 125.794 69.4522C125.775 69.4834 125.742 69.5103 125.707 69.5386C125.681 69.5612 125.653 69.5837 125.628 69.6113C125.6 69.6418 125.604 69.6876 125.636 69.7138C125.651 69.7254 125.669 69.7312 125.687 69.7312C125.709 69.7312 125.731 69.7225 125.747 69.7058C125.765 69.6862 125.787 69.6673 125.811 69.6477C125.851 69.6142 125.898 69.5757 125.929 69.5241C125.94 69.5059 125.957 69.4682 125.996 69.3374C125.998 69.333 125.999 69.3294 126 69.325L126.003 69.3141C126.004 69.3097 126.005 69.3061 126.006 69.3025L126.008 69.2952H126.007C126.016 69.2451 125.998 69.2145 125.954 69.2036Z" fill="#053D4C"/>
<path d="M126.493 68.5482C126.484 68.5089 126.442 68.4842 126.401 68.4929C126.359 68.5017 126.333 68.5409 126.342 68.5801L126.346 68.5939C126.346 68.5968 126.347 68.599 126.348 68.6012C126.288 68.6833 126.223 68.764 126.16 68.8425C126.127 68.8832 126.094 68.9239 126.062 68.9653C126.037 68.998 126.044 69.0431 126.079 69.067C126.092 69.0765 126.108 69.0808 126.124 69.0808C126.148 69.0808 126.172 69.0707 126.187 69.051C126.219 69.0104 126.252 68.9697 126.284 68.9297C126.349 68.849 126.417 68.7647 126.479 68.6797C126.516 68.6288 126.504 68.5845 126.497 68.5576L126.493 68.5482Z" fill="#053D4C"/>
<path d="M107.451 43.2876L107.023 46.2438C107.023 46.2438 109.564 47.1559 111.383 47.0621C113.203 46.9684 115.176 46.3674 115.176 46.3674L114.628 42.1997L107.451 43.2876Z" fill="#FFAE81"/>
<path d="M120.617 34.9856C119.75 34.9856 119.047 35.6149 119.047 36.391C119.047 37.1672 119.75 37.7965 120.617 37.7965C121.485 37.7965 122.187 37.1672 122.187 36.391C122.187 35.6149 121.485 34.9856 120.617 34.9856Z" fill="#FFAE81"/>
<path d="M110.973 25.2687C105.784 25.2687 101.578 29.5389 101.578 34.8068C101.578 37.3467 102.039 39.9832 103.634 41.6924C105.346 43.5281 108.287 44.3449 110.973 44.3449C113.51 44.3449 116.116 43.4438 117.806 41.7847C119.573 40.0501 120.368 37.4993 120.368 34.8068C120.368 29.5389 116.162 25.2687 110.973 25.2687Z" fill="#FFAE81"/>
<path d="M105.249 39.952C106.486 39.952 107.489 39.0348 107.489 37.9033C107.489 36.7719 106.486 35.8547 105.249 35.8547C104.011 35.8547 103.008 36.7719 103.008 37.9033C103.008 39.0348 104.011 39.952 105.249 39.952Z" fill="#FF8F83"/>
<path d="M116.217 39.7732C117.455 39.7732 118.458 38.856 118.458 37.7246C118.458 36.5932 117.455 35.676 116.217 35.676C114.98 35.676 113.977 36.5932 113.977 37.7246C113.977 38.856 114.98 39.7732 116.217 39.7732Z" fill="#FF8F83"/>
<path d="M111.494 39.9854C109.768 39.9854 108.231 39.8204 108.234 40.1045C108.239 40.521 109.932 41.8428 111.651 41.6931C113.177 41.5602 114.508 40.5239 114.55 40.1089C114.575 39.8538 113.22 39.9854 111.494 39.9854Z" fill="white"/>
<path d="M120.546 35.1571C120.504 35.1571 120.469 35.1898 120.469 35.2297C120.469 35.2697 120.504 35.3024 120.546 35.3024C121.217 35.3024 121.763 35.785 121.763 36.3772C121.763 36.6229 121.672 36.8532 121.5 37.0451C121.472 37.0756 121.477 37.1214 121.509 37.1475C121.524 37.1592 121.542 37.165 121.559 37.165C121.582 37.165 121.603 37.1563 121.618 37.1388C121.812 36.9237 121.918 36.6534 121.918 36.3772C121.919 35.7043 121.303 35.1571 120.546 35.1571Z" fill="#DB6C35"/>
<path d="M101.188 35.0917C100.32 35.0917 99.6172 35.721 99.6172 36.4971C99.6172 37.2733 100.32 37.9026 101.188 37.9026C102.055 37.9026 102.758 37.2733 102.758 36.4971C102.758 35.721 102.055 35.0917 101.188 35.0917Z" fill="#FFAE81"/>
<path d="M101.263 35.2632C100.507 35.2632 99.8906 35.8104 99.8906 36.4833C99.8906 36.7595 99.997 37.0298 100.19 37.2449C100.206 37.2624 100.228 37.2711 100.25 37.2711C100.267 37.2711 100.285 37.2653 100.3 37.2537C100.332 37.2275 100.337 37.1817 100.309 37.1512C100.137 36.9593 100.046 36.729 100.046 36.4833C100.046 35.8903 100.591 35.4085 101.263 35.4085C101.305 35.4085 101.34 35.3758 101.34 35.3359C101.341 35.2959 101.307 35.2632 101.263 35.2632Z" fill="#DB6C35"/>
<path d="M112.263 37.0087C112.177 37.0109 112.109 37.0778 112.111 37.1577C112.114 37.2725 112.096 37.3859 112.054 37.4949C111.964 37.7362 111.778 37.9295 111.531 38.0392C111.283 38.1497 111.004 38.1635 110.744 38.0785C110.32 37.9389 110.042 37.5654 110.053 37.1483C110.055 37.0676 109.987 37.0015 109.902 36.9993C109.814 36.9964 109.745 37.0611 109.743 37.141C109.728 37.6853 110.089 38.1722 110.642 38.3532C110.788 38.4011 110.939 38.4251 111.088 38.4251C111.285 38.4251 111.482 38.3837 111.665 38.3023C111.988 38.1584 112.229 37.9062 112.347 37.5916C112.401 37.4491 112.426 37.3002 112.422 37.1505C112.42 37.0705 112.349 37.0066 112.263 37.0087Z" fill="#DB6C35"/>
<path d="M106.077 33.6673C105.84 33.6673 105.648 33.8221 105.648 34.0132V34.4718C105.648 34.6629 105.84 34.8177 106.077 34.8177C106.314 34.8177 106.506 34.6629 106.506 34.4718V34.0132C106.506 33.8221 106.314 33.6673 106.077 33.6673Z" fill="#212121"/>
<path d="M115.624 33.5307C115.387 33.5307 115.195 33.6855 115.195 33.8766V34.3352C115.195 34.5263 115.387 34.6811 115.624 34.6811C115.861 34.6811 116.052 34.5263 116.052 34.3352V33.8766C116.052 33.6855 115.861 33.5307 115.624 33.5307Z" fill="#212121"/>
<path d="M105.953 31.6471C105.198 31.7677 104.92 32.2539 104.947 32.4435C104.975 32.6332 105.405 32.453 105.99 32.3781C106.575 32.3033 107.001 32.4094 107.046 32.2226C107.111 31.9523 106.773 31.517 105.953 31.6471Z" fill="#212121"/>
<path d="M115.666 31.5889C114.842 31.4864 114.521 31.9334 114.597 32.2008C114.649 32.3861 115.071 32.2655 115.658 32.3207C116.246 32.3759 116.683 32.5416 116.703 32.3505C116.723 32.1608 116.426 31.6841 115.666 31.5889Z" fill="#212121"/>
<path d="M121.626 29.9364C121.68 29.7467 121.721 29.5519 121.721 29.3455C121.721 29.2496 121.704 29.1588 121.692 29.0658C121.894 28.7097 122.017 28.3078 122.017 27.8747C122.017 26.4845 120.837 25.3559 119.379 25.3559C119.279 25.3559 119.19 25.3719 119.098 25.3806C119.1 25.3733 119.105 25.3675 119.107 25.3602C119.578 23.9722 118.697 22.473 117.139 22.0094C116.1 21.7005 115.03 21.9374 114.287 22.537C114.153 21.1184 112.839 20 111.222 20C109.991 20 108.938 20.649 108.441 21.5821C107.827 21.1867 107.04 21.0014 106.223 21.125C105.151 21.2877 104.312 21.9418 103.932 22.7775C103.798 22.7579 103.664 22.7368 103.524 22.7368C101.972 22.7368 100.711 23.9802 100.711 25.5121C100.711 25.853 100.782 26.1763 100.896 26.4779C99.5175 26.6356 98.4453 27.7751 98.4453 29.1719C98.4453 30.2169 99.0506 31.1136 99.9295 31.57C99.5783 32.6099 99.8629 33.6586 100.639 34.0045C100.718 34.0394 100.8 34.0568 100.882 34.075C100.879 34.1055 100.868 34.1324 100.868 34.1637C100.868 34.5902 101.141 34.934 101.477 34.934C101.813 34.934 102.085 34.5895 102.085 34.1637C102.085 34.0583 102.069 33.9573 102.038 33.8657C102.471 33.6165 102.863 33.1957 103.114 32.647C103.242 32.368 103.32 32.0824 103.355 31.8062C103.386 31.8077 103.415 31.8178 103.447 31.8178C104.747 31.8178 105.801 30.6202 105.801 29.1421C105.801 28.903 105.765 28.6762 105.713 28.4553C105.768 28.459 105.818 28.4713 105.873 28.4713C107.167 28.4713 108.218 27.4655 108.218 26.2279C108.218 26.124 108.2 26.0259 108.186 25.9256C108.21 25.9118 108.239 25.9031 108.263 25.8893C108.741 26.664 109.71 27.201 110.841 27.201C111.517 27.201 112.134 27.0055 112.624 26.685C112.727 27.9423 114.062 28.94 115.711 28.94C116.239 28.94 116.729 28.8281 117.163 28.6464C117.087 28.8674 117.034 29.0992 117.034 29.3441C117.034 30.4116 117.816 31.3011 118.861 31.5264C118.856 31.5969 118.843 31.6652 118.844 31.7379C118.844 32.6477 119.28 33.4261 119.903 33.7676C119.857 33.8766 119.826 33.9943 119.826 34.1266C119.826 34.5532 120.097 34.8998 120.433 34.8998C120.769 34.8998 121.043 34.5532 121.043 34.1266C121.043 34.043 121.023 33.9675 121.004 33.8926C121.786 33.6659 122.371 32.7894 122.371 31.7379C122.371 30.9923 122.075 30.3375 121.626 29.9364Z" fill="#542913"/>
<path d="M108.642 23.3429C108.153 23.7644 107.883 24.3145 107.883 24.8923C107.883 25.1989 107.957 25.4969 108.105 25.7767C108.119 25.8021 108.146 25.8174 108.175 25.8174C108.186 25.8174 108.198 25.8152 108.209 25.8101C108.247 25.7927 108.263 25.749 108.244 25.7127C108.107 25.4525 108.038 25.1764 108.038 24.8923C108.038 24.3567 108.29 23.8443 108.747 23.4505C108.778 23.4236 108.78 23.3771 108.751 23.348C108.723 23.3182 108.674 23.316 108.642 23.3429Z" fill="#212121"/>
<path d="M119.056 25.5114C119.017 25.4954 118.971 25.5129 118.954 25.5499C118.834 25.8167 118.656 26.0463 118.427 26.2331C117.994 26.5833 117.414 26.7403 116.798 26.6749C116.755 26.6705 116.717 26.6989 116.711 26.7389C116.706 26.7788 116.738 26.8152 116.78 26.8195C116.879 26.8297 116.976 26.8355 117.072 26.8355C117.623 26.8355 118.132 26.6655 118.529 26.3435C118.777 26.1429 118.968 25.8951 119.098 25.6074C119.114 25.5703 119.096 25.5274 119.056 25.5114Z" fill="#212121"/>
<path d="M100.998 31.9087C100.699 31.8665 100.409 31.7633 100.135 31.6027C100.099 31.5816 100.05 31.5918 100.028 31.6253C100.005 31.6594 100.015 31.7045 100.052 31.7255C100.344 31.897 100.654 32.0075 100.975 32.0526C100.978 32.0533 100.983 32.0533 100.986 32.0533C101.024 32.0533 101.057 32.0271 101.063 31.9915C101.07 31.9523 101.04 31.9152 100.998 31.9087Z" fill="#212121"/>
<path d="M103.924 22.9788C103.939 22.941 103.919 22.8989 103.879 22.8851C103.839 22.8705 103.794 22.8894 103.779 22.9272C103.543 23.5093 103.566 24.1147 103.842 24.6306C103.856 24.6561 103.884 24.6706 103.912 24.6706C103.923 24.6706 103.936 24.6684 103.946 24.6626C103.985 24.6444 104 24.6008 103.981 24.5652C103.723 24.0863 103.704 23.5224 103.924 22.9788Z" fill="#212121"/>
<path d="M107.043 24.4896C107.005 24.4707 106.958 24.4853 106.938 24.5209C106.919 24.5565 106.933 24.6008 106.972 24.619C107.523 24.8864 107.911 25.3181 108.061 25.8355C108.071 25.8682 108.102 25.8893 108.137 25.8893C108.143 25.8893 108.15 25.8886 108.157 25.8864C108.198 25.8755 108.223 25.8355 108.211 25.797C108.049 25.2403 107.634 24.776 107.043 24.4896Z" fill="#212121"/>
<path d="M103.205 31.6718C102.899 31.6231 102.62 31.5134 102.373 31.3462C102.339 31.323 102.29 31.3302 102.265 31.3622C102.24 31.3949 102.247 31.44 102.282 31.4639C102.547 31.6442 102.849 31.7619 103.178 31.8149C103.182 31.8157 103.186 31.8157 103.191 31.8157C103.228 31.8157 103.261 31.791 103.268 31.7553C103.276 31.7161 103.247 31.6783 103.205 31.6718Z" fill="#212121"/>
<path d="M121.579 29.1101C121.386 29.3368 121.149 29.5127 120.874 29.6333C120.355 29.8608 119.753 29.8651 119.177 29.6449C119.137 29.6297 119.092 29.6478 119.076 29.6849C119.06 29.722 119.079 29.7648 119.119 29.7801C119.421 29.8956 119.73 29.953 120.032 29.953C120.347 29.953 120.654 29.8906 120.939 29.7656C121.236 29.6355 121.493 29.4458 121.701 29.2016C121.728 29.1704 121.722 29.1246 121.689 29.0992C121.656 29.073 121.606 29.0781 121.579 29.1101Z" fill="#212121"/>
<path d="M121.327 30.3215C121.288 30.3055 121.242 30.323 121.225 30.36C121.103 30.6267 120.925 30.8557 120.694 31.041C120.26 31.3905 119.681 31.5453 119.063 31.4777C119.021 31.4726 118.982 31.5017 118.977 31.5417C118.972 31.5816 119.002 31.618 119.045 31.6223C119.147 31.6332 119.246 31.6391 119.345 31.6391C119.892 31.6391 120.399 31.4705 120.795 31.1522C121.043 30.9523 121.236 30.7052 121.367 30.4182C121.385 30.3797 121.367 30.3375 121.327 30.3215Z" fill="#212121"/>
<path d="M135.217 45.3587C135.217 45.3587 136.066 45.124 136.108 44.9103C136.151 44.6967 134.803 44.8449 134.803 44.8449L133.435 44.9641C133.435 44.9641 134.165 44.209 134.04 43.9692C133.915 43.7294 132.256 45.0491 132.042 45.2715C131.933 45.3856 129.302 45.1385 126.979 45.0411C124.428 44.935 122.747 44.9067 122.747 44.9067L122.406 49.2641C122.406 49.2641 124.215 48.9378 126.647 48.1994C129.079 47.4611 132.134 46.31 132.134 46.31C132.134 46.31 132.733 46.6421 133.358 46.7591C133.884 46.8572 134.756 46.988 134.756 46.988C134.756 46.988 135.67 47.1144 135.754 46.94C135.853 46.7351 135.012 46.4698 135.012 46.4698C135.012 46.4698 136.255 46.512 136.307 46.302C136.359 46.092 135.288 45.9321 135.288 45.9321C135.288 45.9321 136.289 45.8536 136.331 45.6181C136.372 45.3849 135.217 45.3587 135.217 45.3587Z" fill="#FFAE81"/>
<path d="M134.728 45.0702C134.715 45.0811 134.411 45.3405 134.279 45.7446C134.147 46.1508 134.272 46.5658 134.277 46.5832C134.286 46.6152 134.317 46.6355 134.351 46.6355C134.359 46.6355 134.366 46.6348 134.373 46.6326C134.414 46.6217 134.438 46.581 134.427 46.5425C134.425 46.5389 134.309 46.1501 134.428 45.786C134.547 45.4212 134.829 45.1792 134.832 45.177C134.864 45.1501 134.867 45.1044 134.838 45.0746C134.809 45.0462 134.76 45.0433 134.728 45.0702Z" fill="#DB6C35"/>
<path d="M134.025 45.0978C133.985 45.0833 133.94 45.1014 133.924 45.1392C133.923 45.1421 133.806 45.4176 133.642 45.5789C133.372 45.842 133.04 45.9146 133.037 45.9154C132.995 45.9241 132.969 45.9633 132.978 46.0026C132.986 46.0367 133.018 46.0592 133.055 46.0592C133.06 46.0592 133.066 46.0585 133.071 46.0578C133.086 46.0549 133.451 45.9764 133.755 45.6799C133.941 45.4975 134.064 45.2054 134.07 45.193C134.084 45.1545 134.064 45.1123 134.025 45.0978Z" fill="#DB6C35"/>
<path d="M94.3873 46.0607C92.0771 46.3136 89.4722 46.7373 89.3542 46.6305C89.1247 46.4226 87.3683 45.2184 87.2619 45.4655C87.1555 45.7126 87.9417 46.4168 87.9417 46.4168L86.5683 46.3899C86.5683 46.3899 85.2131 46.3325 85.2717 46.5425C85.3303 46.7533 86.1948 46.9299 86.1948 46.9299C86.1948 46.9299 85.0451 47.0331 85.1037 47.2649C85.1631 47.4967 86.1673 47.5076 86.1673 47.5076C86.1673 47.5076 85.1117 47.7387 85.1798 47.9451C85.2478 48.1507 86.4836 48.0257 86.4836 48.0257C86.4836 48.0257 85.6648 48.347 85.7799 48.5446C85.8769 48.7125 86.779 48.525 86.779 48.525C86.779 48.525 87.6384 48.3361 88.156 48.2023C88.77 48.0439 89.3419 47.6726 89.3419 47.6726C89.3419 47.6726 92.4775 48.6151 94.9593 49.1885C97.4418 49.7619 99.2706 49.9653 99.2706 49.9653L98.5958 45.6421C98.5973 45.6421 96.9234 45.7831 94.3873 46.0607Z" fill="#FFAE81"/>
<path d="M86.6717 46.6094C86.6377 46.5847 86.5892 46.5905 86.5631 46.6225C86.5371 46.6544 86.5429 46.6995 86.5769 46.7242C86.5798 46.7264 86.8802 46.9488 87.0265 47.3041C87.1727 47.6588 87.0866 48.0548 87.0858 48.0585C87.0772 48.0977 87.1039 48.1362 87.1459 48.1442C87.151 48.1449 87.1568 48.1457 87.1619 48.1457C87.1981 48.1457 87.2299 48.1224 87.2379 48.0883C87.2422 48.0708 87.3342 47.6479 87.1713 47.2518C87.0091 46.8572 86.6855 46.6188 86.6717 46.6094Z" fill="#DB6C35"/>
<path d="M88.4129 47.3383C88.4093 47.3376 88.0726 47.2874 87.7837 47.0432C87.6071 46.8935 87.4695 46.6268 87.4681 46.6239C87.45 46.5876 87.4036 46.5723 87.3646 46.5898C87.3262 46.6072 87.3095 46.6501 87.3276 46.6864C87.3334 46.698 87.4797 46.9815 87.6795 47.1508C88.0046 47.4255 88.3745 47.4793 88.3897 47.4814C88.3933 47.4822 88.3977 47.4822 88.4013 47.4822C88.4389 47.4822 88.4723 47.456 88.478 47.4204C88.4846 47.3812 88.4556 47.3441 88.4129 47.3383Z" fill="#DB6C35"/>
<path d="M114.93 44.3718C114.93 44.3718 113.783 45.6349 111.04 45.7337C108.296 45.8325 107.135 44.4082 107.135 44.4082C107.135 44.4082 104.97 44.2447 102.49 44.4699C100.01 44.6945 97.2166 45.3078 97.2166 45.3078L96.6172 51.8178C96.6172 51.8178 99.3119 52.5772 100.577 53.6462C102.691 55.4324 101.383 60.018 101.383 60.018C101.383 60.018 103.982 61.0507 110.329 61.151C116.22 61.244 118.355 59.9628 118.355 59.9628C118.355 59.9628 117.647 56.9237 118.53 54.1461C119.414 51.3686 123.331 50.7677 123.331 50.7677L124.01 44.7069C124.01 44.7069 121.985 44.4067 119.528 44.22C117.288 44.0484 114.93 44.3718 114.93 44.3718Z" fill="#DD1B1B"/>
<path d="M102.864 45.2199C102.802 45.2352 102.764 45.2941 102.78 45.3529C102.784 45.3696 103.228 47.0251 102.92 49.3869C102.679 51.2371 101.73 53.2567 101.721 53.277C101.695 53.3323 101.722 53.3969 101.78 53.4209C101.795 53.4274 101.811 53.4304 101.827 53.4304C101.872 53.4304 101.915 53.4064 101.934 53.3657C101.943 53.3453 102.906 51.2967 103.151 49.4138C103.464 47.0084 103.01 45.3159 103.005 45.2991C102.99 45.2403 102.926 45.2047 102.864 45.2199Z" fill="#840303"/>
<path d="M117.145 49.1195C117.033 46.7424 117.611 45.1233 117.617 45.1073C117.638 45.0499 117.605 44.9881 117.544 44.9685C117.484 44.9488 117.417 44.9794 117.397 45.0368C117.391 45.0535 116.799 46.7082 116.913 49.1289C117.002 51.0242 117.793 53.1353 117.801 53.1564C117.818 53.2014 117.863 53.229 117.911 53.229C117.925 53.229 117.938 53.2269 117.951 53.2225C118.011 53.2021 118.043 53.1404 118.022 53.083C118.013 53.0633 117.233 50.982 117.145 49.1195Z" fill="#840303"/>
<path d="M104.612 66.6289C101.224 71.8831 103.455 85.3331 103.455 85.3331C103.455 85.3331 106.132 86.0613 110.129 86.0605C114.738 86.0591 117.247 85.3331 117.247 85.3331C117.247 85.3331 119.468 71.1803 116.672 66.5839C114.907 63.6828 106.852 63.1545 104.612 66.6289Z" fill="#F9A935"/>
<path d="M117.006 83.5381C116.558 83.5367 116.194 83.8739 116.192 84.2932L116.18 87.0002C116.178 87.4188 116.539 87.7596 116.986 87.7618C117.434 87.7632 117.798 87.4253 117.8 87.0067L117.812 84.2997C117.814 83.8804 117.453 83.5396 117.006 83.5381Z" fill="#212121"/>
<path d="M103.748 83.7772C103.301 83.775 102.936 84.1129 102.934 84.5323L102.922 87.2393C102.92 87.6579 103.281 87.9987 103.728 88.0009C104.176 88.0023 104.54 87.6644 104.542 87.2458L104.554 84.5388C104.557 84.1195 104.195 83.7787 103.748 83.7772Z" fill="#212121"/>
<path d="M110.699 64.6079C110.595 64.6036 110.502 64.6842 110.499 64.7845L109.914 84.9014C109.911 85.0017 109.996 85.0853 110.103 85.0882C110.105 85.0882 110.107 85.0882 110.108 85.0882C110.213 85.0882 110.299 85.0097 110.302 84.9116L110.887 64.7947C110.891 64.6944 110.806 64.6101 110.699 64.6079Z" fill="#B77013"/>
<path d="M114.634 43.6749C114.624 43.6785 113.561 44.0673 110.97 44.1516C108.425 44.2337 107.546 43.9241 107.535 43.9205C107.475 43.898 107.407 43.9256 107.383 43.9816C107.359 44.0375 107.388 44.1007 107.449 44.1233C107.48 44.1349 108.171 44.3842 110.129 44.3842C110.389 44.3842 110.672 44.3798 110.978 44.3696C113.609 44.2846 114.677 43.8943 114.721 43.8776C114.78 43.8551 114.81 43.7919 114.785 43.7359C114.762 43.68 114.694 43.6524 114.634 43.6749Z" fill="#DB6C35"/>
</g>
<path d="M255.972 39.99L256.006 65.932L221.122 66.068L221.02 40.16H228.33L228.5 58.384L234.484 58.01L234.654 40.16L242.134 40.126L242.202 58.418L248.73 58.486L248.696 39.99H255.972ZM270.281 66.816L264.773 59.982L263.549 61.138V65.932H258.041V47.946H263.549V52.638L269.431 47.436L273.817 51.482L269.091 55.902L274.871 62.736L270.281 66.816ZM284.373 66.544C282.605 66.544 280.951 66.0907 279.409 65.184C277.891 64.2547 276.667 63.0193 275.737 61.478C274.831 59.9367 274.377 58.2707 274.377 56.48C274.377 54.8253 274.819 53.2953 275.703 51.89C276.587 50.462 277.8 49.3287 279.341 48.49C280.883 47.6513 282.605 47.232 284.509 47.232C286.345 47.232 287.989 47.64 289.439 48.456C290.913 49.272 292.057 50.394 292.873 51.822C293.689 53.2273 294.097 54.7913 294.097 56.514C294.097 58.3047 293.655 59.9707 292.771 61.512C291.91 63.0533 290.731 64.2773 289.235 65.184C287.739 66.0907 286.119 66.544 284.373 66.544ZM284.271 59.982C285.155 59.982 285.892 59.6873 286.481 59.098C287.071 58.486 287.365 57.7267 287.365 56.82C287.365 56.004 287.071 55.29 286.481 54.678C285.915 54.0433 285.178 53.726 284.271 53.726C283.319 53.726 282.549 54.0207 281.959 54.61C281.393 55.1993 281.109 55.936 281.109 56.82C281.109 57.704 281.415 58.452 282.027 59.064C282.639 59.676 283.387 59.982 284.271 59.982ZM315.704 47.912L315.466 65.796H308.224L308.53 53.352H305.776L305.674 60.526C305.651 61.8633 305.47 62.94 305.13 63.756C304.79 64.5493 304.223 65.15 303.43 65.558C302.659 65.9433 301.594 66.136 300.234 66.136C299.01 66.136 298.024 66.0907 297.276 66C296.528 65.9093 295.893 65.6827 295.372 65.32L294.93 60.356C295.157 60.5827 295.451 60.764 295.814 60.9C296.177 61.0133 296.539 61.07 296.902 61.07C297.514 61.07 298.024 60.9113 298.432 60.594C298.863 60.2767 299.078 59.812 299.078 59.2L299.282 48.252L315.704 47.912ZM324.2 52.264C325.787 52.264 327.158 52.5927 328.314 53.25C329.493 53.9073 330.388 54.78 331 55.868C331.635 56.956 331.952 58.112 331.952 59.336C331.952 60.6053 331.578 61.7613 330.83 62.804C330.082 63.8467 329.085 64.6627 327.838 65.252C326.591 65.8413 325.265 66.136 323.86 66.136C322.024 66.136 319.995 65.5807 317.774 64.47L318.624 47.844H323.758L323.588 52.298C323.724 52.2753 323.928 52.264 324.2 52.264ZM324.438 61.206C325.05 61.206 325.583 61.002 326.036 60.594C326.489 60.186 326.716 59.676 326.716 59.064C326.716 58.52 326.467 58.044 325.968 57.636C325.492 57.2053 324.937 56.99 324.302 56.99C324.007 56.99 323.701 57.058 323.384 57.194L323.248 60.866C323.611 61.0927 324.007 61.206 324.438 61.206ZM349.515 66.102L343.463 66.034V59.948L339.723 59.54L339.689 65.966H333.977V47.708L339.757 47.674L339.723 53.76L343.463 54.168V47.878L349.345 47.776L349.515 66.102ZM358.103 52.196C359.69 52.196 361.061 52.536 362.217 53.216C363.396 53.8733 364.291 54.7347 364.903 55.8C365.538 56.8653 365.855 57.9987 365.855 59.2C365.855 60.5147 365.47 61.7047 364.699 62.77C363.951 63.8127 362.943 64.6287 361.673 65.218C360.427 65.8073 359.089 66.102 357.661 66.102C355.735 66.102 353.695 65.5467 351.541 64.436L352.391 47.742H357.627L357.423 52.23C357.582 52.2073 357.809 52.196 358.103 52.196ZM366.909 47.742H372.689L372.519 66H366.739L366.909 47.742ZM358.307 61.342C358.874 61.342 359.384 61.1493 359.837 60.764C360.313 60.3787 360.551 59.8913 360.551 59.302C360.551 58.6673 360.279 58.146 359.735 57.738C359.214 57.3073 358.613 57.092 357.933 57.092C357.684 57.092 357.446 57.126 357.219 57.194L357.083 60.9C357.401 61.1947 357.809 61.342 358.307 61.342ZM386.228 48.082L391.702 47.776L391.532 65.966H385.718L385.922 59.268L380.618 65.932V65.966H375.348V47.844L380.958 47.98L380.822 54.61L386.194 48.082V48.762L386.228 48.082ZM383.134 46.45C382.046 46.45 381.06 46.2007 380.176 45.702C379.292 45.2033 378.601 44.5233 378.102 43.662C377.603 42.778 377.354 41.8147 377.354 40.772L380.686 41.078C380.686 41.7353 380.913 42.2907 381.366 42.744C381.842 43.1973 382.431 43.424 383.134 43.424C383.837 43.424 384.415 43.1973 384.868 42.744C385.344 42.268 385.571 41.6787 385.548 40.976L388.982 40.874C389.05 41.8487 388.835 42.7667 388.336 43.628C387.837 44.4893 387.123 45.1807 386.194 45.702C385.287 46.2007 384.267 46.45 383.134 46.45ZM419.168 53.93L414.816 54.066L414.918 66.442L408.254 67.088L408.152 54.236L404.276 54.338L403.936 48.048L418.794 47.674L419.168 53.93ZM440.368 47.606L435.234 64.912C434.35 67.836 433.115 70.0913 431.528 71.678C429.942 73.2647 428.083 74.058 425.952 74.058C425.046 74.058 424.071 73.9107 423.028 73.616C422.008 73.344 421.056 72.9587 420.172 72.46L421.702 66.34C421.838 66.7253 422.326 67.088 423.164 67.428C424.026 67.7907 424.842 67.972 425.612 67.972C426.134 67.972 426.61 67.802 427.04 67.462C427.471 67.1447 427.822 66.6913 428.094 66.102L420.546 48.116L427.822 47.878L430.848 56.072L433.024 47.912L440.368 47.606ZM454.08 47.47C455.486 47.47 456.766 47.8667 457.922 48.66C459.078 49.4533 459.985 50.53 460.642 51.89C461.322 53.25 461.662 54.746 461.662 56.378C461.662 58.214 461.345 59.8913 460.71 61.41C460.098 62.9287 459.146 64.1527 457.854 65.082C456.585 65.9887 455.01 66.442 453.128 66.442C451.678 66.442 450.363 66.0793 449.184 65.354L449.694 74.126H442.69L442.418 47.844L448.13 47.878L448.334 49.306C449.672 48.082 451.587 47.47 454.08 47.47ZM451.768 59.914C452.63 59.914 453.344 59.6193 453.91 59.03C454.5 58.4407 454.794 57.6813 454.794 56.752C454.794 55.8453 454.5 55.12 453.91 54.576C453.344 54.0093 452.607 53.726 451.7 53.726C450.748 53.726 449.989 53.998 449.422 54.542C448.878 55.086 448.606 55.8113 448.606 56.718C448.606 57.67 448.901 58.4407 449.49 59.03C450.08 59.6193 450.839 59.914 451.768 59.914ZM474.25 48.082L479.724 47.776L479.554 65.966H473.74L473.944 59.268L468.64 65.932V65.966H463.37V47.844L468.98 47.98L468.844 54.61L474.216 48.082V48.762L474.25 48.082ZM490.094 66.102C488.643 66.102 487.295 65.8753 486.048 65.422C484.824 64.9687 483.815 64.3227 483.022 63.484C482.251 62.6453 481.832 61.682 481.764 60.594L487.204 59.132C487.295 59.608 487.544 60.0953 487.952 60.594C488.36 61.07 488.87 61.308 489.482 61.308C490.026 61.308 490.468 61.1493 490.808 60.832C491.148 60.5147 491.318 60.118 491.318 59.642C491.318 59.098 491.114 58.69 490.706 58.418C490.321 58.146 489.799 58.01 489.142 58.01C488.734 58.01 488.439 58.0327 488.258 58.078L488.054 55.188C488.19 55.2107 488.394 55.222 488.666 55.222C489.459 55.222 490.037 55.0407 490.4 54.678C490.763 54.3153 490.944 53.93 490.944 53.522C490.944 53.1367 490.763 52.8193 490.4 52.57C490.037 52.298 489.629 52.162 489.176 52.162C488.677 52.162 488.235 52.366 487.85 52.774C487.465 53.182 487.249 53.6467 487.204 54.168L481.764 53.046C481.945 51.0967 482.807 49.7027 484.348 48.864C485.912 48.0027 487.657 47.572 489.584 47.572C490.967 47.572 492.281 47.7873 493.528 48.218C494.775 48.6487 495.783 49.2833 496.554 50.122C497.325 50.938 497.71 51.89 497.71 52.978C497.71 53.7487 497.483 54.4967 497.03 55.222C496.577 55.9247 496.055 56.3667 495.466 56.548C496.146 56.7747 496.679 57.2507 497.064 57.976C497.449 58.6787 497.642 59.506 497.642 60.458C497.642 61.6593 497.302 62.6907 496.622 63.552C495.942 64.3907 495.024 65.0253 493.868 65.456C492.735 65.8867 491.477 66.102 490.094 66.102ZM520.092 65.83L514.482 66.034L514.55 55.528L512.102 66.102H507.988L504.928 55.358L505.268 65.966L499.862 65.796V47.368L504.69 47.674V47.708L507.614 47.878L509.79 55.63L511.592 47.844H518.732L520.092 65.83Z" fill="#212121"/>
<defs>
<clipPath id="clip0_9957_638">
<rect width="341" height="88" fill="white"/>
</clipPath>
</defs>
</svg>
