<svg width="151" height="77" viewBox="0 0 151 77" fill="none" xmlns="http://www.w3.org/2000/svg">
<path d="M44.0701 47.5125C43.7893 46.9819 44.0722 44.9642 44.4123 42.6149C44.7183 40.5033 44.8112 38.5761 44.6726 38.2043C44.3667 37.3816 41.0265 39.3093 41.0265 39.3093C41.0265 39.3093 40.8275 41.4943 41.5204 43.4959C42.3229 45.8145 42.7302 46.9527 42.8026 47.5829C42.8509 48.003 42.6477 48.2985 42.6477 48.2985C42.6477 48.2985 42.9989 49.0487 44.3876 48.9975C45.7764 48.9462 46 48.5126 46 48.5126L45.4767 48.1779C45.4778 48.1774 44.2638 47.8789 44.0701 47.5125Z" fill="#FFAE81"/>
<path d="M27.7323 38C27.7323 38 26.1772 39.5618 25.3592 41.5044C24.412 43.7546 23.9561 44.8665 23.5978 45.3932C23.3591 45.7441 23.0261 45.8522 23.0261 45.8522C23.0261 45.8522 22.7831 46.6339 23.7803 47.4059C24.7774 48.1785 25.2139 47.9761 25.2139 47.9761L25.0681 47.4135C25.0681 47.4135 24.4196 46.4743 24.523 46.0794C24.6722 45.5078 26.1772 44.1232 27.9376 42.5179C29.5194 41.0747 30.8343 39.6492 30.9796 39.2826C31.3003 38.4721 27.7323 38 27.7323 38Z" fill="#FFAE81"/>
<path d="M45.2677 48C45.2677 48 45.1967 48.7742 43.4584 48.6817C42.3615 48.6233 42.2387 48.0948 42.2387 48.0948C42.2387 48.0948 41.9782 48.3984 42.0015 48.8482C42.0134 49.0853 42.2018 49.4027 42.2018 49.4027L42.2322 50L47 49.985L46.9768 49.3345C46.9469 48.5123 46.4396 48.2486 45.2677 48Z" fill="#A84800"/>
<path d="M55.4994 22.8225C54.5575 22.3098 53.7104 22.1744 53.3453 22.0977C52.9303 22.0109 49.7369 20.4034 47.3081 19.3791C44.8794 18.3549 43.6308 18 43.6308 18L43 20.7348C43 20.7348 44.7455 21.4322 47.1343 21.9757C49.5231 22.5192 52.5557 22.9093 52.5557 22.9093C52.5557 22.9093 53.4217 23.1097 53.624 23.3727C53.8263 23.6358 54.04 24.9489 54.04 24.9489C54.04 24.9489 54.2218 25.0995 54.3926 24.8784C54.5629 24.6573 54.2558 23.5619 54.3951 23.4757C54.5345 23.3895 55.2472 24.0293 55.2472 24.0293C55.2472 24.0293 55.4015 24.6411 55.5079 24.8649C55.6148 25.0888 55.9908 24.9668 55.9908 24.9668C55.9908 24.9668 55.83 24.1345 55.7276 23.933C55.6252 23.7315 55.39 23.417 55.39 23.417C55.39 23.417 56.2575 23.7046 56.6591 23.6285C57.0606 23.5524 56.9962 23.1119 56.9962 23.1119C56.9962 23.1119 56.2106 23.2099 55.4994 22.8225Z" fill="#FFAE81"/>
<path d="M29.8961 12.7816C29.0775 14.7236 27.6488 15.5028 28.079 17.4277C28.3224 18.5154 29.9929 19 29.9929 19C29.9929 19 29.7486 18.6293 29.6857 18.2378C29.6222 17.8469 29.7402 17.4352 29.7402 17.4352C29.7402 17.4352 30.2977 18.5633 30.7014 18.7984C31.105 19.034 32.429 18.5686 32.429 18.5686C32.429 18.5686 31.5352 17.957 31.6483 16.9581C31.7525 16.0342 31.9742 15.5219 31.9742 15.5219C31.9742 15.5219 31.606 17.1198 32.4467 17.9272C32.9732 18.433 33.6502 18.1208 33.6502 18.1208C33.6502 18.1208 33.2259 17.8458 33.2628 17.3299C33.2942 16.8884 33.5209 16.5879 33.5209 16.5879C33.5209 16.5879 33.3847 17.5628 34.0514 17.8107C34.0514 17.8107 34.5744 17.1453 35.5562 16.7187C36.569 16.2794 37.626 16.4857 37.626 16.4857C37.626 16.4857 37.861 16.3054 38.6958 15.8639C39.7641 15.2985 40.9342 15.5012 40.9342 15.5012L43.9715 11.8396L44 6.13985L30.7505 5C30.7505 5 30.9605 10.2567 29.8961 12.7816Z" fill="#B26500"/>
<path d="M36.5569 16.3158C36.5573 17.115 36.2102 17.9401 36.2102 17.9401C36.2102 17.9401 37.6092 18.0116 38.3473 17.9984C39.0855 17.9851 39.9781 17.2147 39.9781 17.2147C39.9781 17.2147 39.1425 16.3924 39.3444 15.475C39.5462 14.5582 40 14 40 14L36 14.5472C36 14.5478 36.5564 15.3528 36.5569 16.3158Z" fill="#FFAE81"/>
<path d="M40.5275 2.24587C39.6758 1.80773 38.5077 2.08872 37.5 2.08872C33.9098 2.08872 31 5.20307 31 9.04436C31 12.8857 33.9104 16 37.5 16C41.0902 16 44 12.8857 44 9.04436C44 6.28125 42.7082 3.36829 40.5275 2.24587Z" fill="#FFAE81"/>
<path d="M40.5016 1.31262C40.5016 1.31262 39.1976 0.222053 37.0294 0.0297833C34.9152 -0.157835 31.9651 0.526997 29.7423 2.48174C27.3967 4.54451 27.7808 8.25294 27.5184 10.0702C27.3715 11.0874 26.3461 13.6577 26.0276 16.3836C25.7091 19.1095 28.2499 18.9994 28.2499 18.9994C28.2499 18.9994 27.075 18.4267 26.6531 16.9774C26.2318 15.5277 29.1871 13.5962 29.7501 12.319C30.3132 11.0419 30.5425 9.4231 30.5425 9.4231L31.4729 9.49081L31.3737 8.80443C31.3737 8.80443 32.483 8.40955 35.718 6.32869C39.0066 4.21372 40.2418 2.50242 40.2418 2.50242C40.2418 2.50242 40.9455 4.00698 41.9063 5.3415C42.9196 6.74889 43.8542 7.49575 43.8542 7.49575C43.8542 7.49575 44.0279 8.8251 43.5734 11.0956C43.1185 13.3662 40.9733 15.3917 40.9733 15.3917C40.9733 15.3917 41.6954 15.6445 43.15 14.4955C45.5454 12.6033 46.5403 8.74705 45.7133 6.03822C44.3941 1.71059 40.5016 1.31262 40.5016 1.31262Z" fill="#FFBD1A"/>
<path d="M42 49.0018L42.006 50L47 49.9991L46.994 49L42 49.0018Z" fill="#682C03"/>
<path d="M31 10C30.4477 10 30 10.4476 30 11C30 11.5524 30.4477 12 31 12C31.5523 12 32 11.5524 32 11C32 10.4476 31.5523 10 31 10Z" fill="#FFAE81"/>
<path d="M31.0156 8.00329C30.9455 8.03446 31.1224 8.29579 31.341 8.55356C31.5775 8.83177 31.7663 9.04863 31.9201 8.99052C32.1163 8.91618 31.9297 8.75126 31.5946 8.44026C31.2981 8.16561 31.0856 7.97213 31.0156 8.00329Z" fill="#FF3C00"/>
<path d="M23.6912 47.099C22.9687 46.4489 23.2219 46 23.2219 46C23.2219 46 22.8477 46.074 22.5767 46.4102C22.4336 46.5871 22.3607 46.92 22.3607 46.92L22 47.3662L25.3105 50L25.7101 49.5196C26.2149 48.9119 26.0324 48.4402 25.3796 47.6121C25.3796 47.6121 24.8359 48.1295 23.6912 47.099Z" fill="#A84800"/>
<path d="M35.5 8C35.2237 8 35 8.12654 35 8.28249V8.71751C35 8.87346 35.2237 9 35.5 9C35.7763 9 36 8.87346 36 8.71751V8.28249C36 8.12654 35.7763 8 35.5 8Z" fill="#212121"/>
<path d="M41.1423 7.06691C40.4164 6.87644 40.0391 7.11971 40.002 7.45587C39.9648 7.79204 40.4597 7.56147 41.0983 7.71451C41.6612 7.84951 41.9671 8.15427 41.998 7.90498C42.0296 7.6557 41.6832 7.20859 41.1423 7.06691Z" fill="#B26500"/>
<path d="M35.3974 7.09835C35.1293 7.26662 34.9752 7.6967 35.0033 7.92025C35.0314 8.14319 35.1721 7.84492 35.4518 7.68151C35.769 7.49563 36.0322 7.66876 35.9968 7.36685C35.961 7.06555 35.7571 6.87298 35.3974 7.09835Z" fill="#B26500"/>
<path d="M22 47.4332L24.6835 50L25 49.5668L22.3165 47L22 47.4332Z" fill="#682C03"/>
<path d="M38.719 10.3212C38.6439 10.2603 38.5659 10.1968 38.5035 10.1286C38.3369 9.94657 38.3621 9.32064 38.3858 9.09472C38.3906 9.04763 38.3577 9.0053 38.3122 9.00054C38.2667 8.99525 38.2255 9.02964 38.2206 9.0762C38.211 9.1672 38.134 9.97355 38.3824 10.2455C38.4536 10.3233 38.5398 10.3937 38.6158 10.4556C38.717 10.5376 38.8313 10.6307 38.8333 10.6878C38.8338 10.7042 38.8216 10.7238 38.7974 10.7466C38.6473 10.8878 38.2473 10.8122 38.1059 10.7709C38.0618 10.7582 38.0158 10.7847 38.0032 10.8302C37.9906 10.8757 38.0163 10.9228 38.0603 10.936C38.0957 10.946 38.2904 11 38.4962 11C38.6478 11 38.8057 10.9709 38.9098 10.873C38.9718 10.8148 39.0023 10.7503 38.9999 10.6815C38.995 10.5455 38.8672 10.4413 38.719 10.3212Z" fill="#DB6C35"/>
<path d="M39.8352 12.0336C39.819 11.9992 39.7866 11.9896 39.7616 12.0123C39.737 12.035 39.7301 12.0804 39.7463 12.1148L39.8014 12.2331C39.6528 12.3486 39.0907 12.7379 38.1725 12.8363C37.239 12.936 36.3445 12.5075 36.2047 12.4367L36.2412 12.3081C36.2519 12.2702 36.2389 12.2269 36.2116 12.2118C36.1843 12.1966 36.1537 12.2152 36.1426 12.2537L36.0037 12.7448C35.9931 12.7827 36.006 12.826 36.0333 12.8411C36.0398 12.8446 36.0463 12.8466 36.0528 12.8466C36.0741 12.8466 36.094 12.8287 36.1023 12.7998L36.1658 12.5756C36.2899 12.6382 37.0409 13 37.8864 13C37.9836 13 38.0817 12.9952 38.1808 12.9849C39.1407 12.8824 39.7106 12.4773 39.8597 12.359L39.9023 12.4504C39.9125 12.4724 39.9297 12.4841 39.9468 12.4841C39.9565 12.4841 39.9667 12.48 39.976 12.4718C40.0005 12.4491 40.0074 12.4037 39.9912 12.3693L39.8352 12.0336Z" fill="#E55151"/>
<path d="M27.9209 30.1142L11.2922 40.8518C10.9821 41.0521 10.9068 41.4457 11.1244 41.7309C11.3415 42.0166 11.769 42.0857 12.0791 41.8855L28.7078 31.1483C29.0179 30.9481 29.0932 30.5545 28.8756 30.2692C28.658 29.9835 28.231 29.9144 27.9209 30.1142Z" fill="#212121"/>
<path d="M29.2543 28.9585C29.2543 28.9585 28.1647 29.0219 27.4467 29.583C26.7292 30.1441 27.0914 30.8073 27.0914 30.8073L28.467 29.9964C28.9583 29.7514 29.0574 29.8276 29.0574 29.8276C29.0574 29.8276 29.6451 29.8876 29.6943 30.4C29.7727 31.2147 30.4213 30.9634 30.4213 30.9634C30.4213 30.9634 30.2534 30.2647 30.4912 29.8427C30.802 29.2911 31 28.4807 31 28.4807L30.2773 28L29.2543 28.9585Z" fill="#FFAE81"/>
<path d="M17.4919 37.1825C14.7007 32.9259 9.96945 33.3938 6.12471 35.9276L2.18259 38.9336C-0.277135 41.0956 -0.635877 45.0548 0.995362 47.5425L0.977703 47.505C1.98733 49.045 4.03735 49.4635 5.55658 48.4397L17.0817 40.3221C18.0278 39.6849 18.2846 38.3903 17.6559 37.4317L17.4919 37.1825Z" fill="#C92B27"/>
<path d="M2 51C3.10457 51 4 50.1046 4 49C4 47.8954 3.10457 47 2 47C0.89543 47 0 47.8954 0 49C0 50.1046 0.89543 51 2 51Z" fill="#212121"/>
<path d="M15.7531 36.045C14.1001 37.8009 12.2442 39.3636 10.8121 40.5282C10.5508 40.7409 10.2865 40.9577 10.0183 41.1778C7.36851 43.3516 4.36472 45.8149 1.10413 46.7217C1.02833 46.7427 0.983956 46.8209 1.0054 46.8966C1.02285 46.959 1.08019 47 1.14252 47C1.15549 47 1.16845 46.9984 1.18092 46.9948C4.49985 46.0716 7.52807 43.5879 10.1998 41.3962C10.4675 41.1767 10.7318 40.9599 10.9926 40.7477C12.4317 39.5773 14.2971 38.0072 15.9615 36.2387C16.0154 36.1815 16.0124 36.0917 15.9545 36.0387C15.8972 35.9846 15.8069 35.9877 15.7531 36.045Z" fill="#212121"/>
<path d="M39.9072 16C39.9072 16 39.4822 16.6717 38.2836 16.8314C36.8653 17.0209 35.9885 16.2597 35.9885 16.2597C35.9885 16.2597 34.9663 16.9522 34.2595 18.3063C33.5523 19.6604 29 28.0831 29 28.0831C29 28.0831 29.2596 28.3259 29.682 28.6048C30.1038 28.8831 30.4261 28.8688 30.4261 28.8688C30.4261 28.8688 31.3388 28.2316 32.2056 27.4444C33.0725 26.6577 33.9983 25.5415 33.9983 25.5415L32.2478 31L40.8636 30.778C40.8636 30.778 40.635 26.2314 40.6861 24.5063C40.7372 22.7812 41.1748 20.7489 41.1748 20.7489C41.1748 20.7489 45.1293 21.772 47.8236 22.0967C50.5184 22.4213 53.6724 22.8232 53.6724 22.8232L54 21.6682C54 21.6682 47.8931 18.9536 45.7929 18.1286C43.6763 17.2982 39.9072 16 39.9072 16Z" fill="#FF4E00"/>
<path d="M41.4088 22L37.4668 23.0236C37.4668 23.0236 36.5441 27.1767 35.2821 27.8342C34.0201 28.4917 33.5495 27.2285 33.5495 27.2285C33.5495 27.2285 32.58 29.5823 31.2928 32.459C30.0056 35.3356 27 38.8661 27 38.8661C27 38.8661 29.3696 40.5886 36.0825 40.9527C42.7953 41.3173 44.7773 39.455 44.7773 39.455C44.7773 39.455 45 38.9603 45 38.0602C45 37.1605 41.8368 32.9485 41.5722 31.4154C40.5911 25.7287 41.4088 22 41.4088 22Z" fill="#2C88AB"/>
<path d="M36.9259 22.0042C36.8677 21.9911 36.8028 22.0098 36.7819 22.0464C36.2115 23.0354 35.3105 23.9631 34.0277 24.8834C33.9871 24.9125 33.9917 24.9574 34.0381 24.9826C34.0598 24.9943 34.0859 25 34.1121 25C34.1436 25 34.1743 24.9917 34.1966 24.9761C35.4984 24.0423 36.4132 23.0998 36.9927 22.0942C37.015 22.0577 36.9842 22.0172 36.9259 22.0042Z" fill="#BF3600"/>
<path d="M37.0556 17.5152C36.3076 16.795 35.7051 17.0403 35.7051 17.0403L35 17.7631C35 17.7631 35.653 17.5427 36.1697 17.9928C36.4531 18.2396 37.1795 19.1735 37.6523 21.8062C37.9275 23.3385 37.706 24.9812 38.3781 24.9999C38.662 25.0077 39.3166 24.5996 38.8184 21.8679C38.4777 19.9965 37.7117 18.1468 37.0556 17.5152Z" fill="#16647C"/>
<path d="M40.4189 16.1084C40.205 15.9994 40 16 40 16C40 16 40.2793 19.9492 40.2423 21.6432C40.2198 22.679 40.1097 24.0894 40.6189 23.9956C40.9083 23.9422 40.9919 21.2152 40.9997 19.3426C41.0079 17.3638 40.855 16.4364 40.855 16.4364C40.855 16.4364 40.6329 16.2174 40.4189 16.1084Z" fill="#16647C"/>
<path d="M33.83 31.9786C33.83 31.9786 31.6639 35.7596 34.3303 35.9924C36.9967 36.2257 38 31 38 31C38 31 37.3789 31.5169 35.8154 31.7705C34.252 32.0242 33.83 31.9786 33.83 31.9786Z" fill="#16647C"/>
<path d="M39.8442 15.0173C39.8386 15.0213 39.2876 15.4343 38.0977 15.6252C36.9109 15.8151 36.1521 15.3971 36.1447 15.3931C36.0891 15.362 36.0273 15.4042 36.0067 15.4886C35.9862 15.573 36.0142 15.6664 36.0698 15.6976C36.096 15.7126 36.6151 16 37.4762 16C37.6734 16 37.8887 15.9849 38.1202 15.9477C39.3556 15.7498 39.9179 15.3248 39.9416 15.3067C39.994 15.2665 40.0152 15.168 39.9884 15.0887C39.9615 15.0093 39.8966 14.9771 39.8442 15.0173Z" fill="#DB6C35"/>
<path d="M31.7658 10.0014C31.6458 10.0359 31.7471 10.3245 31.7471 10.3245C31.7471 10.3245 31.5604 10.1101 31.3354 10.1584C31.0643 10.2168 31 10.4364 31 10.4364C31 10.4364 31.1324 10.2603 31.4203 10.3133C31.6276 10.3515 31.6866 10.4895 31.7576 10.6131C31.8598 10.7909 31.9006 11.0254 31.9702 10.9978C32.0345 10.9723 31.9812 10.7574 31.9376 10.5288C31.9016 10.3393 31.8574 9.97484 31.7658 10.0014Z" fill="#DB6C35"/>
<path d="M39.8387 2.02602C39.8141 2.04957 37.3444 4.38319 36.1311 5.29769C34.9185 6.21112 32.0739 7.82341 32.0449 7.83947C32.0006 7.86462 31.9869 7.91759 32.0137 7.9588C32.0312 7.98555 32.0624 8 32.0941 8C32.1111 8 32.1281 7.99572 32.1434 7.98716C32.1719 7.9711 35.0279 6.35293 36.2499 5.432C37.4713 4.51161 39.9481 2.17104 39.9733 2.14749C40.0094 2.11325 40.0089 2.05813 39.9717 2.02495C39.9345 1.99124 39.8748 1.99178 39.8387 2.02602Z" fill="#B26500"/>
<path d="M39.9162 2.00688C38.855 1.89704 37.5713 3.10898 35.4452 5.11724C33.7218 6.74582 32.0558 7.83471 32.0392 7.84527C31.9968 7.87273 31.9874 7.92607 32.0177 7.96462C32.0365 7.98785 32.0651 8 32.0949 8C32.1142 8 32.1334 7.99472 32.15 7.98416C32.1665 7.97307 33.8464 6.87573 35.5824 5.23553C37.5961 3.33288 38.9261 2.07606 39.8947 2.1764C39.9465 2.1822 39.9933 2.14788 39.9994 2.10141C40.0054 2.05441 39.968 2.01216 39.9162 2.00688Z" fill="#B26500"/>
<path d="M39.9262 2.03831C38.2284 1.77216 36.6271 2.93875 35.2846 4.11553C33.755 5.45645 32.0439 6.85765 32.0269 6.87156C31.9914 6.90077 31.9909 6.94807 32.0264 6.97774C32.0444 6.99258 32.0678 7 32.0911 7C32.1144 7 32.1378 6.99258 32.1553 6.97821C32.1723 6.9643 33.8854 5.56171 35.4172 4.21847C36.7258 3.07135 38.2809 1.93259 39.8917 2.18575C39.941 2.19363 39.9888 2.16674 39.9983 2.12594C40.0079 2.0856 39.9755 2.04619 39.9262 2.03831Z" fill="#B26500"/>
<path d="M38.9367 1.22151C38.9251 1.21844 37.7524 0.915067 36.2995 1.02334C34.9538 1.12344 33.085 1.60557 31.8207 3.33389C30.2499 5.48202 30.2059 7.83495 30.174 9.55254C30.1568 10.4851 30.1416 11.2906 29.8902 11.789C29.5831 12.3978 29.017 13.0122 28.4702 13.6057C27.7133 14.4275 26.9985 15.2033 27 15.9173C27 15.9627 27.039 16 27.087 16C27.1351 16 27.174 15.9627 27.1735 15.9173C27.172 15.2656 27.8661 14.5122 28.6007 13.715C29.1556 13.1128 29.7293 12.4897 30.0465 11.8605C30.3147 11.3299 30.3298 10.5076 30.3476 9.5556C30.3809 7.76447 30.4224 5.53513 31.9629 3.42837C33.1867 1.75522 35.0008 1.28688 36.3071 1.18882C37.7302 1.08208 38.8786 1.3783 38.8897 1.38085C38.9357 1.3926 38.9838 1.36706 38.9964 1.32314C39.0101 1.27922 38.9833 1.23376 38.9367 1.22151Z" fill="#B26500"/>
<path d="M31.8683 2.01654C31.8455 2.03364 29.578 3.75998 29.3802 6.17983C29.3054 7.09456 29.334 7.91418 29.3598 8.63656C29.4016 9.82912 29.4375 10.8593 29.007 11.8787C28.9885 11.9225 29.008 11.9733 29.0498 11.9925C29.0604 11.9973 29.0721 12 29.0833 12C29.1154 12 29.146 11.9808 29.1596 11.9482C29.6057 10.8924 29.5688 9.84409 29.526 8.63015C29.5007 7.91205 29.4721 7.0983 29.5459 6.19426C29.7369 3.85455 31.9431 2.17363 31.9655 2.15653C32.0029 2.12875 32.0112 2.07425 31.984 2.03578C31.9577 1.99731 31.9052 1.98823 31.8683 2.01654Z" fill="#B26500"/>
<path d="M42.728 5.17005C41.963 4.09885 41.17 2.07498 41.1622 2.05477C41.1445 2.00943 41.0955 1.98813 41.0524 2.0067C41.0093 2.02528 40.9887 2.07662 41.0063 2.12196C41.0142 2.14272 41.8155 4.1868 42.5932 5.27657C43.3661 6.35925 43.8464 6.96231 43.8513 6.96832C43.868 6.98908 43.892 7 43.916 7C43.9351 7 43.9542 6.99344 43.9699 6.97924C44.0057 6.94811 44.0101 6.89184 43.9802 6.8547C43.9753 6.84869 43.498 6.24836 42.728 5.17005Z" fill="#B26500"/>
<path d="M41.1565 2.01785C41.1142 1.98934 41.0534 1.99556 41.0207 2.03237C40.9874 2.06866 40.9953 2.12155 41.037 2.15006C41.0489 2.15784 42.2112 2.95574 43.2338 4.32084C44.1741 5.57654 45.1854 7.584 44.6634 10.0182C43.8894 13.6251 41.6847 14.8325 41.6627 14.8445C41.6171 14.8688 41.603 14.9202 41.6306 14.9596C41.6487 14.9855 41.6808 15 41.7135 15C41.7304 15 41.7479 14.9958 41.7637 14.9876C41.8572 14.9383 44.0631 13.7355 44.854 10.0487C45.3884 7.55808 44.3545 5.50655 43.3928 4.2244C42.3527 2.83753 41.1684 2.02615 41.1565 2.01785Z" fill="#B26500"/>
<path d="M141.738 36H146.075C147.69 36 149 37.1332 149 38.5317V48.9174C149 49.5152 148.44 50 147.749 50H141.877C141.393 50 141 49.6603 141 49.2411V36.6386C141 36.286 141.33 36 141.738 36Z" fill="#A00A0A"/>
<path d="M145.663 37C145.851 37.001 146.002 37.0782 146 37.172L145.683 49.832C145.68 49.9253 145.528 50 145.341 50C145.34 50 145.339 50 145.337 50C145.149 49.999 144.998 49.9218 145 49.828L145.317 37.168C145.32 37.0742 145.471 36.999 145.663 37Z" fill="#420000"/>
<path d="M142 50C142.552 50 143 50.224 143 50.5C143 50.776 142.552 51 142 51C141.448 51 141 50.776 141 50.5C141 50.2236 141.448 50 142 50Z" fill="#212121"/>
<path d="M148 49C148.552 49 149 49.448 149 50C149 50.552 148.552 51 148 51C147.448 51 147 50.552 147 50C147 49.4471 147.447 49 148 49Z" fill="#212121"/>
<path d="M142.95 29H143.05C143.575 29 144 29.2427 144 29.5421V36H142V29.5421C142 29.2427 142.425 29 142.95 29Z" fill="#212121"/>
<path d="M132.698 18C132.698 18 135.173 18.8158 137.561 22.4431C139.95 26.0704 142.002 28.0486 142.002 28.0486C142.002 28.0486 144.328 28.1026 144.457 28.3947C144.586 28.6868 145.143 30.1969 144.965 30.4371C144.788 30.6778 143.768 31 143.768 31C143.768 31 143.825 30.1409 143.771 30.063C143.717 29.9852 142.87 29.2757 142.664 29.3464C142.458 29.4172 142.286 30.1735 142.286 30.1735C142.286 30.1735 142.724 30.6356 142.624 30.8117C142.524 30.9878 142.24 30.9277 142.24 30.9277C142.24 30.9277 141.197 30.3419 141.159 29.9261C141.121 29.5103 141.164 28.8461 141.164 28.8461C141.164 28.8461 137.595 27.8145 135.161 25.3777C132.626 22.838 131.203 23.0645 130.285 22.8467C128.936 22.5261 132.81 18.2306 132.81 18.2306L132.698 18Z" fill="#FFAE81"/>
<path d="M104.841 20.2322C105.327 20.0711 105.945 19.7441 105.945 19.7441C105.945 19.7441 106.792 19.7489 107.345 19.9866C107.899 20.2249 108.398 20.5712 108.398 20.5712C108.398 20.5712 112.77 20.0672 117.054 18.3666C121.337 16.6664 124 17.0334 124 17.0334L123.762 17.1566C123.762 17.1566 124.566 21.7639 123.19 21.4736C122.254 21.2763 121.142 20.5617 117.386 21.4185C113.782 22.2408 108.651 21.4723 108.651 21.4723L105.98 22C105.98 22 105.794 21.6726 106.213 21.4409C106.457 21.3056 106.97 21.1428 106.97 21.1428C106.97 21.1428 106.291 20.8589 105.934 20.6707C105.75 20.5742 105.514 20.7271 105.234 20.8008C104.583 20.9718 104 20.389 104 20.389C104 20.389 104.355 20.3933 104.841 20.2322Z" fill="#FFAE81"/>
<path d="M133 15.8515L131.582 19L128 18.0928L128.977 15L133 15.8515Z" fill="#FFAE81"/>
<path d="M126.939 49.0552C126.939 49.0552 127.243 49.0839 127.592 49.0125C127.879 48.9539 128.193 48.7725 128.426 48.934C129.193 49.4661 128.97 50.7662 128.97 50.7662C128.97 50.7662 128.308 51.0209 127.699 50.9986C126.951 50.9711 126.308 50.6907 126.308 50.6907L126 48.1227L126.818 47L126.939 49.0552Z" fill="#AA6100"/>
<path d="M106.845 41.0874C107.834 41.4596 108.75 41.986 108.75 41.986L109.405 41.4526L110 42.9141C110 42.9141 109.405 43.4273 108.854 43.6151C108.304 43.8029 107.664 44 107.664 44L105 41.4919C105 41.4919 105.952 40.7516 106.845 41.0874Z" fill="#AA6100"/>
<path d="M108 43.6799L107.423 44L105 41.2703L105.513 41L108 43.6799Z" fill="#723E00"/>
<path d="M127.183 50.4554C127.183 50.4554 127.763 50.5246 128.532 50.4955C129.301 50.4664 129.842 50.261 129.842 50.261L130 50.6572C130 50.6572 129.315 50.889 128.698 50.9764C128.081 51.0637 127.219 50.8807 127.219 50.8807L126 50.5844L126.056 50L127.183 50.4554Z" fill="#723E00"/>
<path d="M119.452 31L131 35.5845L129.383 48.8435C129.383 48.8435 128.261 49 127.437 49C126.612 49 125.325 48.8435 125.325 48.8435L122.851 38.4499L121.869 38.2478L110.391 44.4568C110.391 44.4568 109.483 43.874 108.823 43.2912C107.902 42.478 108.003 41.7061 108.003 41.7061L119.452 31Z" fill="#59579B"/>
<path d="M119.131 37.0002C119.997 37.0479 123.755 37.812 123.915 37.8447C123.979 37.8578 124.014 37.9023 123.995 37.9439C123.979 37.978 123.931 38 123.88 38C123.868 38 123.856 37.9991 123.844 37.9963C123.805 37.9883 119.952 37.2045 119.11 37.1582C119.044 37.1545 118.995 37.1161 119 37.0727C119.006 37.0292 119.063 36.9974 119.131 37.0002Z" fill="#222256"/>
<path d="M110.04 43.8563L119.844 38.0154C119.887 37.9895 119.949 37.997 119.981 38.0323C120.013 38.0675 120.004 38.1177 119.96 38.1436L110.156 43.9845C110.139 43.9948 110.119 44 110.098 44C110.068 44 110.038 43.9887 110.019 43.9676C109.987 43.9319 109.996 43.8821 110.04 43.8563Z" fill="#222256"/>
<path d="M116.035 33.7472C116.074 33.7249 116.134 33.7287 116.168 33.7551C116.17 33.757 116.441 33.9574 117.402 33.8287C118.386 33.697 118.814 33.045 118.818 33.0386C118.838 33.0062 118.894 32.9915 118.942 33.005C118.99 33.019 119.013 33.0564 118.992 33.0888C118.974 33.1182 118.523 33.8091 117.439 33.954C117.191 33.9872 116.984 34 116.811 34C116.236 34 116.045 33.8566 116.02 33.8355C115.988 33.8083 115.995 33.7695 116.035 33.7472Z" fill="#222256"/>
<path d="M128.101 35.0003C128.15 35.004 128.187 35.0474 128.183 35.0966C128.183 35.105 128.124 35.9448 128.717 36.7454C129.174 37.3629 129.949 37.8296 129.956 37.8338C129.999 37.8592 130.013 37.9143 129.987 37.9566C129.97 37.9847 129.94 38 129.909 38C129.894 38 129.877 37.9958 129.863 37.9873C129.83 37.9677 129.05 37.4978 128.571 36.8512C127.937 35.9945 128 35.1188 128.003 35.0817C128.007 35.0331 128.051 34.9966 128.101 35.0003Z" fill="#222256"/>
<path d="M128.227 16.0902C128.227 16.0902 128.235 17.4469 129.635 17.7727C131.404 18.1844 132.238 17.1324 132.238 17.1324C132.238 17.1324 133.622 17.8151 135.355 19.2348C137.088 20.6545 138 22.0444 138 22.0444L134.803 25.7863L132.732 24.5009C132.732 24.5009 131.942 27.2959 131.879 29.8877C131.808 32.7837 131.942 34.9931 131.942 34.9931C131.942 34.9931 127.742 35.1894 123.324 33.4899C119.348 31.9608 118.394 30.7428 118.394 30.7428L121.389 21.644L117.676 22.1485L117 17.8816C117 17.8816 119.566 16.5351 122.784 16.1835C125.975 15.8348 128.227 16.0902 128.227 16.0902Z" fill="#FF4E00"/>
<path d="M126 9C126.552 9 127 9.448 127 10C127 10.5526 126.552 11 126 11C125.448 11 125 10.552 125 10C125 9.44738 125.448 9 126 9Z" fill="#FFAE81"/>
<path d="M137 14C137.552 14 138 14.224 138 14.5C138 14.7763 137.552 15 137 15C136.448 15 136 14.776 136 14.5C136 14.224 136.448 14 137 14Z" fill="#FFAE81"/>
<path d="M134.798 4.16856C138.053 4.91159 140.025 8.87837 138.445 12.2356C136.914 15.4892 132.476 17.6392 129.773 16.8284C127.26 16.074 125.425 12.3578 126.166 8.89994C126.966 5.16629 131.543 3.42501 134.798 4.16856Z" fill="#FFAE81"/>
<path d="M129.056 14.0185C129.085 14.0038 129.121 13.9972 129.155 14.0011C129.188 14.0049 129.219 14.0169 129.241 14.0376C129.245 14.042 129.255 14.0507 129.268 14.0627C129.291 14.0829 129.316 14.1053 129.346 14.1304C129.43 14.2008 129.525 14.2712 129.623 14.3367C129.734 14.4109 129.844 14.4736 129.952 14.5217C130.036 14.5593 130.133 14.5964 130.242 14.6335C130.387 14.6826 130.545 14.7285 130.701 14.7683C130.756 14.7825 130.805 14.794 130.85 14.8049C130.877 14.8114 130.896 14.8163 130.906 14.8185C130.976 14.8338 131.016 14.8851 130.994 14.9342C130.972 14.9828 130.898 15.0111 130.828 14.9959C130.817 14.9931 130.797 14.9871 130.768 14.9806C130.72 14.9691 130.664 14.9566 130.607 14.9418C130.443 14.8998 130.279 14.8529 130.126 14.801C130.008 14.7612 129.902 14.7197 129.808 14.6777C129.684 14.6226 129.559 14.5533 129.437 14.4715C129.331 14.4005 129.231 14.3252 129.141 14.2499C129.109 14.2237 129.083 14.1986 129.057 14.1768C129.043 14.1631 129.03 14.1533 129.025 14.1479C128.982 14.1064 128.996 14.0485 129.056 14.0185Z" fill="#E55151"/>
<path d="M128.5 10C129.328 10 130 10.4479 130 11C130 11.5525 129.329 12 128.5 12C127.672 12 127 11.5521 127 11C127 10.4479 127.672 10 128.5 10Z" fill="#FF8F83"/>
<path d="M134.5 12C135.329 12 136 12.6718 136 13.5C136 14.3282 135.329 15 134.5 15C133.672 15 133 14.3282 133 13.5C133 12.6718 133.672 12 134.5 12Z" fill="#FF8F83"/>
<path d="M130.124 9.25447C130.187 9.07191 130.431 8.96314 130.669 9.01148C130.907 9.05982 131.048 9.24747 130.985 9.43067L130.876 9.74553C130.813 9.92809 130.569 10.0369 130.331 9.98852C130.093 9.94018 129.952 9.75253 130.015 9.56933L130.124 9.25447Z" fill="#212121"/>
<path d="M134.159 10.2323C134.237 10.0523 134.483 9.95685 134.708 10.019C134.934 10.0811 135.054 10.2771 134.976 10.4577L134.842 10.7677C134.764 10.9477 134.518 11.0432 134.292 10.981C134.066 10.9189 133.946 10.7223 134.024 10.5423L134.159 10.2323Z" fill="#212121"/>
<path d="M135.758 9.14116C135.999 9.34859 136.064 9.8669 135.934 9.96716C135.783 10.0844 135.782 9.86584 135.543 9.65629C135.304 9.44674 134.969 9.61597 135.002 9.40164C135.062 9.00801 135.442 8.86954 135.758 9.14116Z" fill="#491212"/>
<path d="M128.321 2.12149C129.59 0.919898 132.285 0.755004 134.031 1.2904C136.556 2.06398 137.121 3.59587 137.121 3.59587C137.121 3.59587 141.382 3.45439 141.954 6.85763C142.416 9.60281 139.254 12.859 137.837 14L137.542 13.8896C137.542 13.8896 138.314 10.3896 137.196 8.87097C136.08 7.35231 136.046 5.12013 136.046 5.12013C136.046 5.12013 134.837 6.10339 131.974 5.5685C130.029 5.20512 128.507 6.69986 127.705 7.54672C126.902 8.39308 126.327 9.05927 126.327 9.05927L126.116 8.9809C125.868 7.77676 125.788 4.52213 128.321 2.12149Z" fill="#491212"/>
<path d="M130.1 6.70658C130.119 6.71246 132.077 7.30505 134.012 6.56658C135.638 5.94567 136.355 5.03728 136.362 5.02819C136.383 5.00148 136.425 4.99239 136.459 5.00682C136.494 5.02125 136.508 5.05491 136.493 5.08377C136.488 5.09445 135.948 6.13643 136.109 6.93956C136.272 7.7507 136.985 8.90061 136.992 8.91237C137.01 8.94229 136.996 8.97863 136.96 8.99359C136.949 8.99786 136.938 9 136.926 9C136.899 9 136.873 8.98771 136.86 8.96687C136.831 8.91931 136.129 7.78917 135.963 6.95879C135.855 6.41696 136.042 5.78964 136.194 5.40277C135.841 5.73246 135.159 6.26093 134.075 6.67505C132.082 7.43596 130.068 6.82467 130.048 6.81826C130.009 6.8065 129.99 6.77124 130.005 6.74024C130.019 6.71032 130.062 6.69482 130.1 6.70658Z" fill="#491212"/>
<path d="M138.928 3.00011C138.963 2.99832 138.997 3.01894 139 3.04719C139.002 3.07499 138.975 3.0992 138.937 3.10144C137.96 3.15435 137.13 3.97175 137.121 3.97982C137.108 3.99327 137.088 4 137.067 4C137.053 4 137.039 3.99686 137.027 3.98969C136.997 3.97265 136.991 3.94126 137.014 3.91884C137.049 3.88342 137.888 3.05616 138.928 3.00011Z" fill="#491212"/>
<path d="M136.123 2.01645C136.147 2.03477 136.709 2.47388 136.929 3.00273C137.154 3.54349 136.775 3.95971 136.759 3.97711C136.745 3.99176 136.723 4 136.7 4C136.686 4 136.672 3.99725 136.66 3.9913C136.627 3.97527 136.619 3.94322 136.641 3.91941C136.644 3.91575 136.997 3.52518 136.793 3.03295C136.583 2.52745 136.025 2.092 136.019 2.08742C135.992 2.06682 135.994 2.03385 136.022 2.01416C136.051 1.99447 136.097 1.99539 136.123 2.01645Z" fill="#491212"/>
<path d="M138.724 3.14395C139.992 2.8402 140.919 3.10972 140.958 3.12127C140.993 3.13197 141.009 3.1602 140.995 3.18459C140.979 3.20897 140.939 3.22053 140.903 3.20983C140.894 3.20726 139.985 2.94416 138.769 3.23507C137.559 3.5247 137.133 3.97305 137.129 3.97775C137.116 3.9923 137.093 4 137.07 4C137.057 4 137.044 3.99743 137.032 3.9923C137 3.97775 136.99 3.94823 137.011 3.92556C137.029 3.90631 137.463 3.44555 138.724 3.14395Z" fill="#491212"/>
<path d="M137.542 2.50919C137.8 2.22611 137.666 2.05381 137.664 2.05194C137.645 2.02919 137.694 2.00682 137.775 2.00122C137.855 1.99563 137.936 2.0098 137.955 2.03255C137.961 2.04038 138.11 2.22462 137.831 2.53007C137.558 2.8303 137.293 2.97166 137.282 2.97762C137.255 2.99179 137.203 3 137.15 3C137.126 3 137.102 2.99851 137.079 2.99515C137.006 2.98434 136.979 2.9586 137.018 2.93809C137.021 2.93622 137.279 2.79823 137.542 2.50919Z" fill="#491212"/>
<path d="M137.061 4.00232C137.098 4.0007 137.978 3.96014 139.033 4.29652C140.008 4.60748 141.313 5.31485 141.995 6.91618C142.009 6.94754 141.992 6.98324 141.959 6.99567C141.951 6.99838 141.943 7 141.934 7C141.908 7 141.884 6.9854 141.874 6.9616C141.211 5.40517 139.943 4.71727 138.995 4.41388C137.964 4.08399 137.077 4.12455 137.069 4.12455C137.034 4.12671 137.002 4.10075 137 4.06668C136.997 4.03261 137.025 4.00395 137.061 4.00232Z" fill="#491212"/>
<path d="M141.093 6.01673C141.104 6.02788 142.156 7.13806 141.98 9.08409C141.856 10.4536 141.226 10.9671 141.199 10.9883C141.189 10.9961 141.178 11 141.167 11C141.15 11 141.132 10.9905 141.121 10.9732C141.104 10.9448 141.11 10.9058 141.135 10.8857C141.141 10.8807 141.751 10.3799 141.869 9.07182C142.039 7.19103 141.028 6.12044 141.018 6.10985C140.995 6.08643 140.994 6.04628 141.015 6.02063C141.035 5.99498 141.071 5.99275 141.093 6.01673Z" fill="#491212"/>
<path d="M136.098 5.00697C136.122 5.0182 138.46 6.16961 138.883 8.86979C139.304 11.5603 138.457 12.9139 138.421 12.9701C138.409 12.9893 138.386 13 138.363 13C138.352 13 138.34 12.9973 138.329 12.992C138.297 12.9754 138.286 12.9385 138.305 12.9096C138.314 12.8963 139.164 11.5315 138.75 8.8869C138.337 6.24983 136.058 5.12463 136.035 5.11393C136.003 5.09842 135.99 5.06152 136.008 5.03211C136.025 5.00269 136.065 4.99146 136.098 5.00697Z" fill="#212121"/>
<path d="M139.114 6.00943C139.136 6.0205 141.36 7.14447 140.949 8.88065C140.542 10.6015 140.089 10.9685 140.07 10.9834C140.056 10.9945 140.036 11 140.016 11C140 11 139.983 10.9962 139.97 10.9885C139.94 10.9715 139.936 10.9412 139.961 10.9208C139.966 10.9174 140.41 10.5457 140.808 8.86575C141.205 7.18832 139.051 6.09799 139.029 6.08735C138.997 6.07159 138.99 6.04137 139.014 6.02008C139.037 5.99794 139.082 5.99368 139.114 6.00943Z" fill="#212121"/>
<path d="M130.394 3.38788C132.503 2.73521 133.912 3.02679 134.722 3.38595C135.603 3.77649 135.976 4.31571 135.992 4.3384C136.01 4.36495 135.997 4.39778 135.964 4.41226C135.93 4.42674 135.888 4.4166 135.87 4.39005C135.866 4.38474 135.497 3.85228 134.648 3.47815C133.524 2.98238 132.071 2.98624 130.444 3.48926C127.194 4.49433 126.146 7.92373 126.136 7.958C126.128 7.9831 126.1 8 126.069 8C126.064 8 126.058 7.99952 126.053 7.99855C126.016 7.99179 125.993 7.96235 126.002 7.9329C126.012 7.89862 127.076 4.41419 130.394 3.38788Z" fill="#212121"/>
<path d="M129.893 4.53422C132.407 3.33875 134.943 4.52138 134.969 4.53334C135.001 4.54839 135.01 4.57938 134.989 4.60241C134.968 4.62543 134.926 4.63207 134.894 4.61702C134.869 4.60506 132.405 3.45829 129.967 4.6179C127.518 5.78239 127.138 6.94908 127.135 6.96059C127.128 6.98406 127.1 7 127.068 7C127.063 7 127.058 6.99956 127.053 6.99867C127.017 6.99292 126.993 6.96591 127.002 6.9389C127.017 6.89019 127.392 5.7235 129.893 4.53422Z" fill="#212121"/>
<path d="M129.473 2.37775C130.757 1.89963 132.24 1.87467 133.646 2.3069C134.781 2.6558 135.748 3.28588 135.997 3.83931C136.008 3.8656 135.989 3.89411 135.954 3.90303C135.918 3.91149 135.879 3.89768 135.868 3.87139C135.631 3.3438 134.696 2.73868 133.594 2.40003C132.801 2.15629 131.219 1.84081 129.533 2.46821C126.49 3.60047 126.139 5.93138 126.135 5.95455C126.132 5.98039 126.102 6 126.068 6C126.065 6 126.063 6 126.061 5.99955C126.024 5.99688 125.997 5.97193 126 5.9443C126.004 5.92024 126.362 3.53541 129.473 2.37775Z" fill="#212121"/>
<path d="M132.56 1.12016C135.64 1.60939 136.979 3.88379 136.992 3.90646C137.01 3.93764 136.996 3.97676 136.961 3.99263C136.951 3.99773 136.939 4 136.929 4C136.902 4 136.878 3.98753 136.865 3.96542C136.852 3.94331 135.544 1.72447 132.535 1.24657C129.532 0.769812 128.134 1.91892 128.121 1.93082C128.092 1.9552 128.047 1.95406 128.02 1.92855C127.993 1.90304 127.994 1.86223 128.022 1.83785C128.08 1.78796 129.48 0.631489 132.56 1.12016Z" fill="#491212"/>
<path d="M128.892 2.01444C128.918 1.99356 128.959 1.99555 128.983 2.01892C129.007 2.04228 129.005 2.07757 128.978 2.09845C128.963 2.11038 127.428 3.31535 126.713 5.00548C126.044 6.59023 126.133 7.92693 126.134 7.94035C126.137 7.97117 126.109 7.99801 126.074 8C126.072 8 126.071 8 126.069 8C126.035 8 126.007 7.97713 126.005 7.94731C126.004 7.93389 125.912 6.57482 126.591 4.96671C127.317 3.24923 128.876 2.02687 128.892 2.01444Z" fill="#491212"/>
<path d="M140.154 11.2893C141.028 9.73043 140.866 9.08311 140.863 9.07338C140.854 9.04265 140.873 9.0109 140.906 9.0022C140.938 8.99349 140.972 9.01142 140.981 9.04265C140.989 9.0698 141.167 9.72941 140.262 11.3436C139.363 12.9466 138.113 13.9759 138.1 13.9862C138.089 13.9954 138.075 14 138.061 14C138.044 14 138.027 13.9933 138.015 13.98C137.993 13.956 137.996 13.9191 138.021 13.8986C138.033 13.8889 139.266 12.8723 140.154 11.2893Z" fill="#491212"/>
<path d="M128.04 16.0148C128.084 15.9899 128.146 15.9971 128.179 16.0311C128.184 16.0361 128.663 16.5278 129.79 16.7528C130.89 16.9724 131.86 16.7324 131.87 16.7297C131.922 16.7166 131.978 16.7383 131.995 16.7786C132.012 16.8189 131.984 16.8624 131.932 16.8755C131.904 16.8827 131.432 17 130.768 17C130.459 17 130.109 16.9746 129.741 16.9013C128.541 16.6618 128.04 16.1438 128.019 16.1221C127.987 16.0877 127.996 16.0402 128.04 16.0148Z" fill="#DB6C35"/>
<path d="M67.2315 38.6477C65.2087 40.7843 63 43.5457 63 43.5457L63.5107 44C63.5107 44 65.8945 43.1865 69.6003 41.3416C73.3068 39.4966 74 38.5729 74 38.5729L71.0906 35C71.0912 34.9995 69.2543 36.511 67.2315 38.6477Z" fill="#FFAE81"/>
<path d="M93.1913 37.531C90.9321 35.4276 88.9634 34 88.9634 34L87 38.4505C87 38.4505 87.8113 39.387 91.5501 40.9126C95.289 42.4382 97.622 43 97.622 43L98 42.4132C98.0005 42.4127 95.4504 39.6339 93.1913 37.531Z" fill="#FFAE81"/>
<path d="M63.3492 43.3902C63.3492 43.3902 62.9645 43.5819 62.474 43.3635C61.9829 43.1452 61.6669 42.9161 61.3726 43.0304C61.0779 43.1447 61 43.4109 61 43.4109L63.0326 45C63.0326 45 63.3135 44.8937 63.5669 44.6786C63.8202 44.4636 64 43.9707 64 43.9707C64 43.9707 63.7658 43.8883 63.6167 43.7355C63.4676 43.5828 63.3492 43.3902 63.3492 43.3902Z" fill="#AA6100"/>
<path d="M100.398 41.013C99.9652 40.925 99.5836 41.2997 98.959 41.6978C98.3344 42.096 97.7595 41.9244 97.7595 41.9244C97.7595 41.9244 97.642 42.2068 97.4723 42.4429C97.3033 42.679 97 42.8397 97 42.8397C97 42.8397 97.363 43.4569 97.7626 43.6886C98.1616 43.9196 98.5736 44 98.5736 44L101 41.4383C101 41.4383 100.83 41.1003 100.398 41.013Z" fill="#AA6100"/>
<path d="M61.301 43L61 43.4711L63.6412 46L64 45.5727C64 45.5727 63.4853 45.2923 62.4602 44.2923C61.4346 43.2916 61.301 43 61.301 43Z" fill="#754001"/>
<path d="M99.5086 42.318C98.5268 43.3599 98 43.6916 98 43.6916L98.4642 44L101 41.3561L100.593 41C100.593 41 100.49 41.2754 99.5086 42.318Z" fill="#754001"/>
<path d="M63.9578 43.1028C63.9319 43.0747 63.8821 43.0444 63.7905 43.0595C63.7059 43.0734 63.6664 43.1117 63.6481 43.1456C63.5729 43.0645 63.4944 43.0038 63.4244 43.0002C63.3911 42.9984 63.3431 43.0073 63.3055 43.0591C63.2745 43.1019 63.2665 43.1514 63.2825 43.2023C63.3159 43.3072 63.4484 43.4093 63.5757 43.4865L63.0579 43.4196C63.0307 43.4156 63.0048 43.433 63.0006 43.4575C62.9964 43.482 63.0156 43.5048 63.0433 43.5079L63.8032 43.6061C63.8173 43.6123 63.8276 43.6168 63.8328 43.6194C63.8398 43.6226 63.8469 43.6239 63.8544 43.6239L63.8704 43.7279L63.7637 43.6431C63.7524 43.6342 63.7378 43.6302 63.7228 43.6319C63.7078 43.6337 63.6951 43.6418 63.6871 43.6529L63.5513 43.851L63.3859 43.6801C63.3765 43.6708 63.3633 43.665 63.3492 43.6645C63.3351 43.6645 63.3215 43.669 63.3116 43.6779L63.1246 43.8488L63.1162 43.6065C63.1152 43.582 63.0931 43.5632 63.064 43.5632C63.0363 43.5641 63.0142 43.5846 63.0152 43.6092L63.0274 43.9567C63.0278 43.9746 63.0405 43.9906 63.0598 43.9969C63.0659 43.9991 63.072 44 63.0781 44C63.0917 44 63.1049 43.9951 63.1143 43.9862L63.3455 43.7747L63.5198 43.9554C63.5302 43.9661 63.5461 43.9719 63.5621 43.971C63.5781 43.9697 63.5927 43.9621 63.6011 43.9496L63.7416 43.7448L63.9051 43.8751C63.9211 43.8876 63.9437 43.8902 63.9625 43.8813C63.9813 43.8724 63.9916 43.8546 63.9888 43.8358L63.9521 43.5949C63.9512 43.59 63.9498 43.5855 63.9474 43.5815C63.9422 43.5722 63.9347 43.5583 63.9253 43.5418C63.9719 43.4298 64.0484 43.2019 63.9578 43.1028ZM63.3798 43.1782C63.3713 43.1514 63.3746 43.1291 63.3906 43.1073C63.4023 43.0908 63.4113 43.0894 63.4164 43.0894C63.4174 43.0894 63.4178 43.0894 63.4183 43.0894C63.4686 43.0921 63.5522 43.1733 63.6401 43.2875C63.6565 43.3486 63.6909 43.4115 63.7261 43.4651C63.5837 43.3883 63.4108 43.2759 63.3798 43.1782ZM63.86 43.4325C63.8243 43.3759 63.7811 43.3107 63.7336 43.2487C63.7294 43.2255 63.7299 43.205 63.7369 43.1889C63.7425 43.1751 63.7566 43.1559 63.8088 43.1474C63.861 43.1385 63.8746 43.1541 63.8793 43.159C63.9173 43.2005 63.8971 43.3196 63.86 43.4325Z" fill="#212121"/>
<path d="M98.8999 41.5158C98.8747 41.519 98.8571 41.5422 98.8605 41.5672L98.8939 41.8118L98.6971 41.6676C98.6869 41.6599 98.6736 41.6567 98.6608 41.6595C98.6479 41.6617 98.6373 41.6695 98.6304 41.6808L98.5111 41.8772L98.3554 41.6981C98.3464 41.6876 98.3344 41.6822 98.3199 41.6822C98.3062 41.6826 98.2933 41.6886 98.2848 41.6995L98.2035 41.8009L98.2001 41.6936C98.2069 41.6922 98.2129 41.6899 98.2189 41.6858C98.2236 41.6827 98.2317 41.6767 98.2433 41.6681L98.9093 41.4567C98.9333 41.449 98.947 41.4235 98.9388 41.3994C98.9311 41.3753 98.9055 41.3621 98.8811 41.3698L98.4277 41.514C98.529 41.4176 98.6308 41.2948 98.6428 41.1848C98.6488 41.1312 98.6334 41.0825 98.5979 41.0443C98.5556 40.9979 98.5111 40.9961 98.4811 41.0029C98.4191 41.017 98.3588 41.0898 98.3053 41.1825C98.2831 41.1512 98.2411 41.1184 98.1629 41.1171C98.0769 41.1143 98.0384 41.1534 98.02 41.1853C97.9554 41.298 98.0628 41.5162 98.1231 41.6222C98.1175 41.6399 98.1128 41.6549 98.1098 41.6654C98.1085 41.6699 98.1077 41.6749 98.1081 41.6795L98.1158 41.9273C98.1162 41.9464 98.1291 41.9632 98.147 41.9691C98.1654 41.975 98.1855 41.9691 98.1975 41.9541L98.3224 41.799L98.4833 41.9841C98.4918 41.9941 98.5046 42 98.5179 42C98.5192 42 98.5205 42 98.5218 42C98.5363 41.9986 98.5496 41.9905 98.5573 41.9782L98.683 41.7709L98.9264 41.9491C98.9414 41.96 98.9611 41.9609 98.9773 41.9518C98.9931 41.9427 99.0021 41.9245 98.9996 41.9063L98.9517 41.5549C98.9482 41.5299 98.9247 41.5131 98.8999 41.5158ZM98.3357 41.3239C98.3956 41.1962 98.4567 41.1016 98.5012 41.0916C98.5055 41.0907 98.5141 41.0889 98.5295 41.1052C98.5474 41.1248 98.5543 41.1466 98.5508 41.1748C98.5397 41.278 98.4037 41.4167 98.2886 41.5149C98.3109 41.4562 98.331 41.3876 98.3357 41.3239ZM98.1633 41.5021C98.1107 41.3944 98.0722 41.2775 98.0996 41.2303C98.1025 41.2248 98.1124 41.208 98.1573 41.208C98.1586 41.208 98.1594 41.208 98.1607 41.208C98.2091 41.2089 98.2249 41.2262 98.2322 41.2389C98.2411 41.2544 98.245 41.2748 98.245 41.2985C98.2133 41.368 98.1855 41.4399 98.1633 41.5021Z" fill="#212121"/>
<path d="M86.1012 31.1129C85.2233 30.6027 85.0301 30 85.0301 30L80.1994 30.1023L76.0139 30.1152C76.0139 30.1152 71.9868 33.2871 70.531 34.6205C69.0351 35.9906 68.0045 37.2817 68.0045 37.2822C67.9382 37.3654 68.6193 38.1323 68.6772 38.2009C69.6173 39.3123 70.9347 40.214 72.2084 40.9855C72.3463 41.1751 78.2035 34.7037 79.8993 34.5637C82.2084 34.3726 88.734 41 88.734 41C88.734 41 90.3899 39.7776 91.1394 38.9906C91.8894 38.204 93 36.7942 93 36.7942C93 36.7942 90.452 34.3943 89.2782 33.4224C88.7366 32.9741 87.5413 31.95 86.1012 31.1129Z" fill="#2E8DAF"/>
<path d="M85.919 34.3262C85.8888 34.3326 82.852 34.9762 79.9483 34.9259C77.1603 34.878 74.1162 34.012 74.0861 34.0035C74.0564 33.995 74.0201 34.0025 74.0061 34.0198C73.9916 34.0376 74.0039 34.0588 74.034 34.0674C74.0648 34.0762 77.1312 34.9486 79.9455 34.9972C80.0551 34.9989 80.1641 35 80.2737 35C83.0963 35 85.9313 34.3996 85.9604 34.3933C85.9917 34.3865 86.0079 34.3663 85.9962 34.3479C85.985 34.3291 85.9503 34.3195 85.919 34.3262Z" fill="#053D4C"/>
<path d="M86.9545 35.8792C84.6202 35.3642 82.8343 35.3166 81.1067 35.2702C80.8687 35.2635 80.6313 35.2574 80.3939 35.2501C79.8334 35.2324 79.3397 35.1793 78.8622 35.128C77.6667 34.9999 76.4307 34.8668 74.0475 35.272C74.0166 35.2775 73.9956 35.3086 74.0008 35.3416C74.0055 35.3751 74.0349 35.3977 74.0654 35.3922C76.4344 34.9895 77.663 35.1219 78.8517 35.2494C79.3312 35.3007 79.8271 35.3544 80.3912 35.3721C80.6292 35.3794 80.8661 35.3861 81.1046 35.3922C82.8269 35.4386 84.6081 35.4862 86.9324 35.9988C86.9361 35.9994 86.9398 36 86.944 36C86.9703 36 86.9939 35.9799 86.9991 35.9512C87.0044 35.9182 86.985 35.8859 86.9545 35.8792Z" fill="#053D4C"/>
<path d="M76.8793 31.0195C76.1502 31.7056 75.1318 31.986 74.0848 31.7884C74.0455 31.7809 74.0083 31.8079 74.0012 31.8488C73.994 31.8892 74.02 31.9286 74.0593 31.9356C74.2879 31.979 74.5155 32 74.7392 32C75.5831 32 76.3734 31.6976 76.9763 31.1303C77.0058 31.1023 77.0081 31.0549 76.9812 31.0245C76.9544 30.994 76.9088 30.9915 76.8793 31.0195Z" fill="#053D4C"/>
<path d="M86.8774 31.6783C86.8668 31.6812 85.8364 31.9639 84.8223 31.7424C83.9441 31.5512 83.1588 31.0224 83.1511 31.0172C83.1094 30.9886 83.05 30.9966 83.0189 31.0344C82.9877 31.0722 82.9959 31.126 83.0377 31.1546C83.0706 31.1769 83.8612 31.7098 84.7782 31.9096C85.0833 31.976 85.3867 32 85.6653 32C86.3607 32 86.9021 31.8512 86.9333 31.842C86.9832 31.8283 87.0114 31.7802 86.9956 31.7344C86.9803 31.6898 86.9268 31.664 86.8774 31.6783Z" fill="#053D4C"/>
<path d="M73.9232 32.5577C73.8206 32.49 73.7312 32.4358 73.651 32.3862C73.4641 32.2711 73.329 32.1898 73.1543 32.0206C73.0995 31.9687 73.0345 32.0183 73.0101 32.1312C72.9847 32.244 73.009 32.3794 73.0629 32.4313C73.2518 32.6119 73.4011 32.7044 73.59 32.8195C73.6693 32.8691 73.7566 32.921 73.8582 32.9887C73.8693 32.9955 73.8805 33 73.8917 33C73.9374 33 73.9811 32.9391 73.9953 32.842C74.0125 32.7224 73.9811 32.5961 73.9232 32.5577Z" fill="#053D4C"/>
<path d="M84.9425 32.5382C84.8924 32.5175 84.8369 32.5013 84.7789 32.4828C84.5579 32.4159 84.2832 32.3304 84.0934 32.0211C84.0604 31.968 84.0213 32.0188 84.0061 32.1342C83.9908 32.2496 84.0055 32.3882 84.0378 32.4413C84.2484 32.7853 84.5359 32.873 84.7667 32.9446C84.8241 32.963 84.8784 32.9792 84.9272 32.9977C84.9297 32.9977 84.9321 33 84.9346 33C84.9675 33 84.9956 32.9123 84.9993 32.7945C85.0048 32.6675 84.9785 32.5521 84.9425 32.5382Z" fill="#053D4C"/>
<path d="M78.3144 17.8937L78 20.3222C78 20.3222 79.8696 21.0715 81.2086 20.9944C82.5476 20.9174 84 20.4237 84 20.4237L83.5967 17L78.3144 17.8937Z" fill="#FFAE81"/>
<path d="M88 12C87.4477 12 87 12.4478 87 13C87 13.5522 87.4477 14 88 14C88.5523 14 89 13.5522 89 13C89 12.4478 88.5523 12 88 12Z" fill="#FFAE81"/>
<path d="M81 5C77.134 5 74 8.13387 74 12C74 13.864 74.3436 15.7989 75.5319 17.0533C76.8077 18.4005 78.9982 19 81 19C82.8901 19 84.8315 18.3387 86.091 17.1211C87.4077 15.848 88 13.976 88 12C88 8.13387 84.866 5 81 5Z" fill="#FFAE81"/>
<path d="M77 16C78.1046 16 79 15.3284 79 14.5C79 13.6716 78.1046 13 77 13C75.8954 13 75 13.6716 75 14.5C75 15.3284 75.8954 16 77 16Z" fill="#FF8F83"/>
<path d="M85 15C86.1046 15 87 14.3284 87 13.5C87 12.6716 86.1046 12 85 12C83.8954 12 83 12.6716 83 13.5C83 14.3284 83.8954 15 85 15Z" fill="#FF8F83"/>
<path d="M81.5801 16.0269C80.2138 16.0269 78.9971 15.9336 79 16.0944C79.004 16.33 80.3439 17.0781 81.7045 16.9933C82.9126 16.9181 83.9665 16.3317 83.9997 16.0969C84.0192 15.9525 82.9464 16.0269 81.5801 16.0269Z" fill="white"/>
<path d="M88.0534 12C88.024 12 88 12.0326 88 12.0724C88 12.1122 88.024 12.1448 88.0534 12.1448C88.5165 12.1448 88.8931 12.6254 88.8931 13.2153C88.8931 13.46 88.8302 13.6895 88.7113 13.8806C88.6923 13.911 88.6953 13.9566 88.7178 13.9826C88.7278 13.9942 88.7403 14 88.7522 14C88.7677 14 88.7827 13.9913 88.7932 13.9739C88.9266 13.7597 89 13.4904 89 13.2153C89.0005 12.5451 88.5754 12 88.0534 12Z" fill="#DB6C35"/>
<path d="M74 12C73.4477 12 73 12.4478 73 13C73 13.5522 73.4477 14 74 14C74.5523 14 75 13.5522 75 13C75 12.4478 74.5523 12 74 12Z" fill="#FFAE81"/>
<path d="M73.947 12C73.4251 12 73 12.5451 73 13.2153C73 13.4904 73.0734 13.7597 73.2068 13.9739C73.2173 13.9913 73.2328 14 73.2477 14C73.2597 14 73.2722 13.9942 73.2822 13.9826C73.3047 13.9566 73.3077 13.911 73.2887 13.8806C73.1698 13.6895 73.1069 13.46 73.1069 13.2153C73.1069 12.6247 73.4835 12.1448 73.9465 12.1448C73.976 12.1448 74 12.1122 74 12.0724C74.001 12.0326 73.977 12 73.947 12Z" fill="#DB6C35"/>
<path d="M81.8809 13.0067C81.8166 13.0082 81.7664 13.0551 81.768 13.1112C81.7701 13.1917 81.7561 13.2712 81.7253 13.3476C81.6578 13.5169 81.5195 13.6524 81.3347 13.7294C81.1499 13.8068 80.9414 13.8165 80.7475 13.7569C80.4309 13.659 80.2234 13.3971 80.2321 13.1045C80.2337 13.048 80.1829 13.0016 80.1192 13.0001C80.0533 12.998 80.0019 13.0434 80.0003 13.0994C79.9895 13.4812 80.2591 13.8226 80.6713 13.9495C80.7804 13.9832 80.8928 14 81.0046 14C81.1516 14 81.2985 13.9709 81.4347 13.9139C81.6756 13.813 81.856 13.6361 81.9441 13.4154C81.9841 13.3155 82.0024 13.2111 81.9997 13.1061C81.9981 13.05 81.9452 13.0052 81.8809 13.0067Z" fill="#DB6C35"/>
<path d="M77.5 11C77.2238 11 77 11.1346 77 11.3007V11.6993C77 11.8654 77.2238 12 77.5 12C77.7762 12 78 11.8654 78 11.6993V11.3007C78 11.1346 77.7762 11 77.5 11Z" fill="#212121"/>
<path d="M84.5 11C84.2238 11 84 11.1346 84 11.3007V11.6993C84 11.8654 84.2238 12 84.5 12C84.7762 12 85 11.8654 85 11.6993V11.3007C85 11.1346 84.7762 11 84.5 11Z" fill="#212121"/>
<path d="M84.51 9.0173C84.121 8.899 83.9692 9.41498 84.0051 9.72373C84.0297 9.93767 84.229 9.7984 84.5063 9.86216C84.7838 9.92593 84.99 10.1172 84.9995 9.89656C85.0091 9.67759 84.869 9.12721 84.51 9.0173Z" fill="#212121"/>
<path d="M88.4702 8.31888C88.5088 8.17917 88.5376 8.03572 88.5376 7.8837C88.5376 7.81304 88.5257 7.74613 88.517 7.67762C88.6605 7.41533 88.7485 7.11932 88.7485 6.80029C88.7485 5.7763 87.91 4.94501 86.874 4.94501C86.8025 4.94501 86.7397 4.95679 86.6739 4.96321C86.6754 4.95786 86.679 4.95358 86.6806 4.94822C87.0154 3.92584 86.3894 2.82156 85.2824 2.48005C84.5442 2.25255 83.784 2.42706 83.2562 2.86866C83.1605 1.8238 82.2274 1 81.0782 1C80.2037 1 79.4553 1.47801 79.1019 2.1653C78.6656 1.87411 78.107 1.73762 77.5262 1.82861C76.7644 1.94852 76.1682 2.43027 75.8987 3.04584C75.803 3.03139 75.7083 3.01586 75.6085 3.01586C74.5057 3.01586 73.6101 3.93173 73.6101 5.0601C73.6101 5.31114 73.66 5.54934 73.7413 5.77148C72.7618 5.88764 72 6.72696 72 7.75577C72 8.5255 72.43 9.18603 73.0545 9.52219C72.805 10.2882 73.0072 11.0606 73.5586 11.3154C73.6147 11.3411 73.6728 11.3539 73.7315 11.3673C73.7294 11.3898 73.7212 11.4096 73.7212 11.4326C73.7212 11.7468 73.9156 12 74.1543 12C74.393 12 74.5859 11.7463 74.5859 11.4326C74.5859 11.355 74.5746 11.2806 74.553 11.2131C74.8606 11.0295 75.1389 10.7196 75.3174 10.3155C75.4084 10.1099 75.4635 9.89956 75.4882 9.69616C75.5103 9.69723 75.5314 9.70472 75.554 9.70472C76.4774 9.70472 77.2263 8.82258 77.2263 7.73382C77.2263 7.55771 77.2011 7.39071 77.1641 7.22798C77.2027 7.23066 77.2387 7.23976 77.2778 7.23976C78.197 7.23976 78.9434 6.49893 78.9434 5.58735C78.9434 5.5108 78.9311 5.43854 78.9208 5.36467C78.9383 5.3545 78.9589 5.34808 78.9758 5.33791C79.3153 5.90852 80.0041 6.30409 80.8071 6.30409C81.2881 6.30409 81.7258 6.1601 82.0741 5.92404C82.1471 6.85007 83.0962 7.58501 84.2675 7.58501C84.6425 7.58501 84.9907 7.50258 85.2994 7.36876C85.2454 7.53148 85.2078 7.70224 85.2078 7.88263C85.2078 8.66895 85.7634 9.32414 86.5057 9.49007C86.5021 9.542 86.4933 9.59231 86.4938 9.64584C86.4938 10.316 86.8035 10.8893 87.2464 11.1409C87.2135 11.2212 87.1914 11.3079 87.1914 11.4053C87.1914 11.7195 87.3837 11.9748 87.6229 11.9748C87.8616 11.9748 88.0561 11.7195 88.0561 11.4053C88.0561 11.3437 88.0422 11.2881 88.0283 11.2329C88.5839 11.0659 89 10.4204 89 9.64584C89 9.09664 88.7896 8.61436 88.4702 8.31888Z" fill="#542913"/>
<path d="M86.9604 5.00447C86.9272 4.99244 86.889 5.00556 86.8751 5.03342C86.7747 5.23395 86.6258 5.40661 86.434 5.54704C86.0721 5.8104 85.588 5.92842 85.0725 5.87925C85.0368 5.87597 85.0047 5.89728 85.0005 5.92733C84.9962 5.95738 85.0222 5.9847 85.0579 5.98798C85.1402 5.99563 85.2213 6 85.3018 6C85.7623 6 86.1877 5.87214 86.5193 5.63009C86.7269 5.47928 86.8866 5.29296 86.9949 5.07659C87.0088 5.04872 86.9931 5.01649 86.9604 5.00447Z" fill="#212121"/>
<path d="M73.937 9.68667C73.6518 9.59535 73.3749 9.37177 73.1138 9.02381C73.0793 8.97815 73.033 9.00019 73.0116 9.07262C72.9895 9.14662 72.9999 9.24424 73.0351 9.2899C73.3134 9.66148 73.6089 9.9008 73.9149 9.99842C73.9183 10 73.9225 10 73.9259 10C73.9618 10 73.9936 9.94332 73.9991 9.86617C74.0054 9.78114 73.977 9.70084 73.937 9.68667Z" fill="#212121"/>
<path d="M78.0885 4.0059C78.0586 3.99248 78.022 4.00281 78.0068 4.0281C77.9915 4.05339 78.0028 4.08487 78.0327 4.09778C78.4622 4.28772 78.7638 4.59431 78.8811 4.9618C78.8884 4.98503 78.9127 5 78.9397 5C78.9448 5 78.9504 4.99948 78.9555 4.99794C78.9876 4.99019 79.0068 4.9618 78.9978 4.93445C78.8715 4.53908 78.5485 4.20927 78.0885 4.0059Z" fill="#212121"/>
<path d="M88.9609 9.00449C88.9283 8.99241 88.8897 9.00559 88.8758 9.03359C88.7743 9.23511 88.6257 9.40807 88.4331 9.54809C88.0707 9.81221 87.5875 9.92917 87.0723 9.8781C87.0367 9.87426 87.0047 9.89622 87.0005 9.92642C86.9962 9.95662 87.0216 9.98408 87.0572 9.98737C87.1418 9.99561 87.2251 10 87.3073 10C87.7639 10 88.1866 9.87261 88.517 9.63211C88.7242 9.4811 88.8848 9.29441 88.9941 9.07752C89.0092 9.04842 88.9941 9.01657 88.9609 9.00449Z" fill="#212121"/>
<path d="M99.1196 19.7993C99.1196 19.7993 99.7898 19.667 99.8236 19.5467C99.8573 19.4263 98.7925 19.5098 98.7925 19.5098L97.7122 19.577C97.7122 19.577 98.2886 19.1515 98.1897 19.0163C98.0908 18.8812 96.7806 19.6249 96.6118 19.7502C96.5255 19.8145 94.4473 19.6752 92.6121 19.6204C90.5967 19.5606 89.2694 19.5446 89.2694 19.5446L89 22C89 22 90.4292 21.8161 92.3501 21.4001C94.2711 20.984 96.6845 20.3354 96.6845 20.3354C96.6845 20.3354 97.1574 20.5225 97.651 20.5884C98.0667 20.6437 98.7553 20.7174 98.7553 20.7174C98.7553 20.7174 99.4776 20.7887 99.5439 20.6904C99.6223 20.5749 98.9577 20.4255 98.9577 20.4255C98.9577 20.4255 99.9391 20.4492 99.9803 20.3309C100.021 20.2125 99.1756 20.1224 99.1756 20.1224C99.1756 20.1224 99.9665 20.0782 99.9991 19.9455C100.032 19.8141 99.1196 19.7993 99.1196 19.7993Z" fill="#FFAE81"/>
<path d="M98.7965 19.0118C98.7761 19.0186 98.3005 19.1824 98.0943 19.4375C97.8882 19.694 98.083 19.956 98.0909 19.967C98.1056 19.9872 98.1543 20 98.2076 20C98.2189 20 98.2302 19.9995 98.2416 19.9982C98.3061 19.9913 98.3435 19.9656 98.3254 19.9413C98.3231 19.939 98.1419 19.6935 98.3276 19.4637C98.5134 19.2334 98.9551 19.0806 98.9596 19.0792C99.0094 19.0622 99.014 19.0333 98.9687 19.0145C98.9234 18.9966 98.8464 18.9948 98.7965 19.0118Z" fill="#DB6C35"/>
<path d="M97.9548 19.0052C97.9185 18.9901 97.8776 19.0089 97.8631 19.048C97.8618 19.051 97.7556 19.336 97.6059 19.503C97.3605 19.7752 97.0578 19.8504 97.0552 19.8511C97.0169 19.8601 96.9932 19.9007 97.0017 19.9413C97.009 19.9767 97.038 20 97.071 20C97.0763 20 97.0816 19.9992 97.0862 19.9985C97.1 19.9955 97.4324 19.9143 97.7088 19.6075C97.8783 19.4187 97.991 19.1165 97.9957 19.1037C98.0089 19.0638 97.991 19.0202 97.9548 19.0052Z" fill="#DB6C35"/>
<path d="M69.2089 20.4159C67.4154 20.5833 65.3931 20.8637 65.3015 20.793C65.1233 20.6554 63.7598 19.8585 63.6772 20.022C63.5946 20.1855 64.2049 20.6516 64.2049 20.6516L63.1387 20.6338C63.1387 20.6338 62.0866 20.5958 62.1321 20.7348C62.1776 20.8742 62.8487 20.9911 62.8487 20.9911C62.8487 20.9911 61.9562 21.0594 62.0017 21.2128C62.0478 21.3662 62.8273 21.3735 62.8273 21.3735C62.8273 21.3735 62.0079 21.5264 62.0607 21.663C62.1135 21.7991 63.073 21.7164 63.073 21.7164C63.073 21.7164 62.4373 21.9289 62.5266 22.0598C62.602 22.1709 63.3023 22.0468 63.3023 22.0468C63.3023 22.0468 63.9695 21.9217 64.3713 21.8332C64.8479 21.7284 65.292 21.4826 65.292 21.4826C65.292 21.4826 67.7262 22.1064 69.653 22.4859C71.5803 22.8653 73 23 73 23L72.4762 20.1389C72.4773 20.1389 71.1778 20.2322 69.2089 20.4159Z" fill="#FFAE81"/>
<path d="M63.1732 20.0197C63.126 19.9879 63.0587 19.9954 63.0225 20.0366C62.9864 20.0778 62.9944 20.1359 63.0416 20.1677C63.0456 20.1705 63.4625 20.4572 63.6654 20.9153C63.8683 21.3724 63.7488 21.8829 63.7478 21.8876C63.7357 21.9382 63.7729 21.9878 63.8312 21.9981C63.8382 21.9991 63.8462 22 63.8533 22C63.9035 22 63.9477 21.97 63.9587 21.926C63.9648 21.9035 64.0923 21.3583 63.8663 20.8478C63.6413 20.3392 63.1923 20.0319 63.1732 20.0197Z" fill="#DB6C35"/>
<path d="M64.943 20.8401C64.9398 20.8392 64.6493 20.7835 64.4 20.5121C64.2475 20.3457 64.1288 20.0492 64.1275 20.046C64.1119 20.0056 64.0719 19.9886 64.0382 20.008C64.0051 20.0274 63.9907 20.0751 64.0063 20.1155C64.0113 20.1284 64.1375 20.4434 64.31 20.6316C64.5906 20.937 64.9099 20.9968 64.923 20.9992C64.9261 21 64.9298 21 64.933 21C64.9655 21 64.9942 20.9709 64.9992 20.9313C65.0048 20.8877 64.9798 20.8465 64.943 20.8401Z" fill="#DB6C35"/>
<path d="M84.3703 19.1427C84.3703 19.1427 83.5336 20.035 81.5302 20.1048C79.5268 20.1747 78.6795 19.1684 78.6795 19.1684C78.6795 19.1684 77.0984 19.0529 75.288 19.212C73.4775 19.3707 71.4377 19.804 71.4377 19.804L71 24.403C71 24.403 72.9674 24.9395 73.8909 25.6947C75.4349 26.9567 74.4798 30.1962 74.4798 30.1962C74.4798 30.1962 76.3769 30.9257 81.0111 30.9966C85.3123 31.0623 86.8711 30.1572 86.8711 30.1572C86.8711 30.1572 86.3542 28.0101 86.9991 26.0479C87.6445 24.0857 90.5042 23.6612 90.5042 23.6612L91 19.3794C91 19.3794 89.522 19.1674 87.728 19.0354C86.0925 18.9143 84.3703 19.1427 84.3703 19.1427Z" fill="#DD1B1B"/>
<path d="M74.7441 19.0026C74.7039 19.0137 74.6796 19.0567 74.6899 19.0997C74.6927 19.1119 74.9786 20.3212 74.7801 22.0464C74.6245 23.3979 74.0125 24.8731 74.0064 24.888C73.9896 24.9283 74.0069 24.9756 74.0448 24.9931C74.0546 24.9979 74.0648 25 74.0751 25C74.1041 25 74.1316 24.9825 74.1438 24.9528C74.1499 24.9379 74.7712 23.4415 74.9291 22.0661C75.1309 20.309 74.838 19.0727 74.8352 19.0604C74.8254 19.0174 74.7843 18.9914 74.7441 19.0026Z" fill="#840303"/>
<path d="M85.2187 22.0172C85.1193 20.2919 85.6307 19.1167 85.6358 19.1051C85.6544 19.0634 85.6255 19.0186 85.5717 19.0043C85.5179 18.9901 85.4589 19.0122 85.441 19.0539C85.4359 19.066 84.9117 20.2671 85.013 22.024C85.0918 23.3997 85.7921 24.932 85.7992 24.9473C85.8139 24.98 85.8536 25 85.8966 25C85.9081 25 85.9196 24.9984 85.9312 24.9953C85.985 24.9805 86.0132 24.9356 85.994 24.894C85.9863 24.8797 85.2962 23.3691 85.2187 22.0172Z" fill="#840303"/>
<path d="M76.3454 34.7698C73.9177 38.6176 75.5168 48.4673 75.5168 48.4673C75.5168 48.4673 77.4349 49.0005 80.2995 49C83.6025 48.9989 85.4008 48.4673 85.4008 48.4673C85.4008 48.4673 86.9921 38.1029 84.9883 34.7368C83.7234 32.6123 77.9507 32.2254 76.3454 34.7698Z" fill="#F9A935"/>
<path d="M85.506 47C85.2319 46.9986 85.0089 47.318 85.0075 47.7151L85 50.2787C84.9987 50.6752 85.22 50.9979 85.494 51C85.7681 51.0014 85.9911 50.6813 85.9925 50.2849L86 47.7213C86.0009 47.3242 85.78 47.0014 85.506 47Z" fill="#212121"/>
<path d="M75.506 48C75.2319 47.9985 75.0089 48.2385 75.0075 48.5363L75 50.459C74.9987 50.7564 75.22 50.9984 75.494 51C75.7681 51.001 75.9911 50.761 75.9924 50.4637L76 48.541C76.0013 48.2431 75.78 48.001 75.506 48Z" fill="#212121"/>
<path d="M80.8065 34.0001C80.6994 33.9969 80.6041 34.056 80.6012 34.1295L80.0001 48.8632C79.9971 48.9367 80.0841 48.9979 80.1942 49C80.1957 49 80.1979 49 80.1994 49C80.3073 49 80.3958 48.9425 80.3988 48.8707L80.9999 34.1369C81.0036 34.0635 80.9166 34.0017 80.8065 34.0001Z" fill="#B77013"/>
<path d="M83.8706 18.011C83.8624 18.016 83.0029 18.5582 80.9074 18.6757C78.8493 18.7902 78.1385 18.3585 78.1291 18.3535C78.0805 18.3221 78.0261 18.3606 78.0068 18.4386C77.9874 18.5166 78.0109 18.6048 78.0595 18.6362C78.0852 18.6524 78.6438 19 80.2276 19C80.4378 19 80.6661 18.9939 80.9138 18.9797C83.0415 18.8612 83.9051 18.317 83.9409 18.2937C83.9889 18.2623 84.0129 18.1741 83.993 18.0961C83.9742 18.0181 83.9192 17.9795 83.8706 18.011Z" fill="#DB6C35"/>
<path d="M22.0627 60L22.0793 72.9193L5.04979 72.9871L5 60.0847H8.56857L8.65156 69.1604L11.5728 68.9741L11.6558 60.0847L15.3074 60.0677L15.3406 69.1773L18.5274 69.2112L18.5108 60H22.0627Z" fill="#212121"/>
<path d="M29.0483 73.3596L26.3594 69.9562L25.7619 70.5319V72.9193H23.073V63.9622H25.7619V66.2988L28.6333 63.7082L30.7745 65.7231L28.4674 67.9243L31.289 71.3277L29.0483 73.3596Z" fill="#212121"/>
<path d="M35.9276 73.2241C35.0645 73.2241 34.2568 72.9983 33.5043 72.5468C32.763 72.084 32.1654 71.4688 31.7118 70.7012C31.2691 69.9336 31.0478 69.1039 31.0478 68.2122C31.0478 67.3881 31.2636 66.6262 31.6952 65.9263C32.1267 65.2151 32.7187 64.6507 33.4711 64.2331C34.2236 63.8154 35.0645 63.6066 35.994 63.6066C36.8903 63.6066 37.6926 63.8098 38.4007 64.2161C39.12 64.6225 39.6788 65.1813 40.0771 65.8924C40.4755 66.5923 40.6747 67.3712 40.6747 68.2291C40.6747 69.1209 40.4589 69.9505 40.0274 70.7181C39.6069 71.4857 39.0315 72.0953 38.3012 72.5468C37.5708 72.9983 36.7797 73.2241 35.9276 73.2241ZM35.8778 69.9562C36.3094 69.9562 36.669 69.8094 36.9567 69.5159C37.2444 69.2112 37.3883 68.833 37.3883 68.3815C37.3883 67.9751 37.2444 67.6195 36.9567 67.3147C36.6801 66.9987 36.3205 66.8406 35.8778 66.8406C35.4131 66.8406 35.0369 66.9874 34.7492 67.2809C34.4726 67.5744 34.3342 67.9412 34.3342 68.3815C34.3342 68.8217 34.4836 69.1942 34.7824 69.499C35.0811 69.8038 35.4463 69.9562 35.8778 69.9562Z" fill="#212121"/>
<path d="M51.2226 63.9452L51.1064 72.8516H47.571L47.7204 66.6544H46.376L46.3262 70.2271C46.3151 70.8931 46.2266 71.4293 46.0606 71.8357C45.8946 72.2307 45.618 72.5299 45.2307 72.7331C44.8545 72.925 44.3344 73.0209 43.6705 73.0209C43.073 73.0209 42.5916 72.9983 42.2265 72.9532C41.8613 72.908 41.5515 72.7952 41.297 72.6145L41.0812 70.1424C41.1918 70.2553 41.3357 70.3456 41.5127 70.4133C41.6898 70.4698 41.8668 70.498 42.0439 70.498C42.3426 70.498 42.5916 70.419 42.7908 70.261C43.001 70.1029 43.1061 69.8715 43.1061 69.5667L43.2057 64.1145L51.2226 63.9452Z" fill="#212121"/>
<path d="M55.37 66.1126C56.1446 66.1126 56.814 66.2762 57.3783 66.6036C57.9537 66.9309 58.3908 67.3655 58.6896 67.9074C58.9994 68.4492 59.1543 69.0249 59.1543 69.6345C59.1543 70.2666 58.9718 70.8423 58.6066 71.3616C58.2415 71.8808 57.7546 72.2872 57.146 72.5807C56.5374 72.8742 55.8901 73.0209 55.204 73.0209C54.3077 73.0209 53.3174 72.7444 52.233 72.1912L52.6479 63.9114H55.1542L55.0712 66.1295C55.1376 66.1182 55.2372 66.1126 55.37 66.1126ZM55.4862 70.5657C55.7849 70.5657 56.045 70.4641 56.2663 70.261C56.4876 70.0578 56.5982 69.8038 56.5982 69.499C56.5982 69.2281 56.4765 68.991 56.2331 68.7878C56.0007 68.5734 55.7296 68.4661 55.4198 68.4661C55.2759 68.4661 55.1266 68.5 54.9716 68.5677L54.9053 70.3964C55.0823 70.5093 55.2759 70.5657 55.4862 70.5657Z" fill="#212121"/>
<path d="M67.7282 73.004L64.7738 72.9701V69.9392L62.948 69.7361L62.9314 72.9363H60.143V63.8436L62.9646 63.8267L62.948 66.8576L64.7738 67.0608V63.9283L67.6452 63.8775L67.7282 73.004Z" fill="#212121"/>
<path d="M71.9209 66.0787C72.6955 66.0787 73.3649 66.248 73.9293 66.5867C74.5047 66.914 74.9418 67.343 75.2405 67.8735C75.5503 68.404 75.7053 68.9685 75.7053 69.5667C75.7053 70.2214 75.5171 70.8141 75.1409 71.3446C74.7758 71.8639 74.2834 72.2703 73.6637 72.5637C73.0551 72.8572 72.4023 73.004 71.7051 73.004C70.7646 73.004 69.7687 72.7274 68.7175 72.1743L69.1325 63.8606H71.6885L71.589 66.0956C71.6664 66.0843 71.7771 66.0787 71.9209 66.0787ZM76.2198 63.8606H79.0415L78.9585 72.9532H76.1368L76.2198 63.8606ZM72.0205 70.6335C72.2971 70.6335 72.5461 70.5375 72.7674 70.3456C72.9998 70.1537 73.116 69.911 73.116 69.6175C73.116 69.3015 72.9832 69.0418 72.7176 68.8386C72.4631 68.6242 72.1699 68.5169 71.8379 68.5169C71.7162 68.5169 71.6 68.5339 71.4894 68.5677L71.423 70.4133C71.5779 70.5601 71.7771 70.6335 72.0205 70.6335Z" fill="#212121"/>
<path d="M85.6507 64.0299L88.323 63.8775L88.24 72.9363H85.4017L85.5013 69.6006L82.912 72.9193V72.9363H80.3393V63.9114L83.078 63.9791L83.0116 67.2809L85.6341 64.0299V64.3685L85.6507 64.0299ZM84.1403 63.2171C83.6091 63.2171 83.1278 63.093 82.6963 62.8446C82.2647 62.5963 81.9272 62.2576 81.6838 61.8287C81.4403 61.3884 81.3186 60.9087 81.3186 60.3894L82.9452 60.5418C82.9452 60.8692 83.0559 61.1458 83.2772 61.3715C83.5096 61.5973 83.7973 61.7102 84.1403 61.7102C84.4833 61.7102 84.7655 61.5973 84.9868 61.3715C85.2192 61.1345 85.3298 60.841 85.3187 60.491L86.9951 60.4402C87.0283 60.9256 86.9232 61.3828 86.6798 61.8118C86.4363 62.2407 86.0878 62.585 85.6341 62.8446C85.1915 63.093 84.6936 63.2171 84.1403 63.2171Z" fill="#212121"/>
<path d="M101.731 66.9422L99.6066 67.01L99.6564 73.1733L96.4032 73.495L96.3534 67.0946L94.4613 67.1454L94.2953 64.0129L101.549 63.8267L101.731 66.9422Z" fill="#212121"/>
<path d="M112.081 63.7928L109.574 72.4114C109.143 73.8675 108.54 74.9907 107.765 75.7809C106.991 76.5711 106.083 76.9661 105.043 76.9661C104.601 76.9661 104.125 76.8928 103.616 76.746C103.118 76.6106 102.653 76.4187 102.221 76.1703L102.968 73.1225C103.035 73.3144 103.273 73.495 103.682 73.6643C104.103 73.845 104.501 73.9353 104.877 73.9353C105.132 73.9353 105.364 73.8506 105.574 73.6813C105.785 73.5232 105.956 73.2975 106.089 73.004L102.404 64.0468L105.956 63.9283L107.433 68.009L108.496 63.9452L112.081 63.7928Z" fill="#212121"/>
<path d="M118.775 63.7251C119.461 63.7251 120.086 63.9226 120.65 64.3177C121.215 64.7128 121.657 65.249 121.978 65.9263C122.31 66.6036 122.476 67.3486 122.476 68.1614C122.476 69.0757 122.321 69.911 122.011 70.6673C121.712 71.4236 121.248 72.0332 120.617 72.496C119.997 72.9475 119.228 73.1733 118.31 73.1733C117.602 73.1733 116.96 72.9927 116.384 72.6315L116.633 77H113.214L113.081 63.9114L115.87 63.9283L115.97 64.6394C116.622 64.0299 117.557 63.7251 118.775 63.7251ZM117.646 69.9223C118.066 69.9223 118.415 69.7756 118.692 69.4821C118.979 69.1886 119.123 68.8104 119.123 68.3476C119.123 67.8961 118.979 67.5349 118.692 67.2639C118.415 66.9817 118.055 66.8406 117.613 66.8406C117.148 66.8406 116.777 66.9761 116.501 67.247C116.235 67.5179 116.102 67.8791 116.102 68.3307C116.102 68.8048 116.246 69.1886 116.534 69.4821C116.822 69.7756 117.192 69.9223 117.646 69.9223Z" fill="#212121"/>
<path d="M128.621 64.0299L131.293 63.8775L131.21 72.9363H128.372L128.471 69.6006L125.882 72.9193V72.9363H123.309V63.9114L126.048 63.9791L125.982 67.2809L128.604 64.0299V64.3685L128.621 64.0299Z" fill="#212121"/>
<path d="M136.356 73.004C135.647 73.004 134.989 72.8911 134.38 72.6653C133.783 72.4396 133.291 72.1179 132.903 71.7002C132.527 71.2825 132.322 70.8028 132.289 70.261L134.945 69.5329C134.989 69.7699 135.111 70.0126 135.31 70.261C135.509 70.498 135.758 70.6165 136.057 70.6165C136.322 70.6165 136.538 70.5375 136.704 70.3795C136.87 70.2214 136.953 70.0239 136.953 69.7869C136.953 69.5159 136.854 69.3127 136.654 69.1773C136.466 69.0418 136.212 68.9741 135.891 68.9741C135.692 68.9741 135.548 68.9854 135.459 69.008L135.36 67.5687C135.426 67.58 135.526 67.5857 135.659 67.5857C136.046 67.5857 136.328 67.4954 136.505 67.3147C136.682 67.1341 136.771 66.9422 136.771 66.739C136.771 66.5471 136.682 66.3891 136.505 66.2649C136.328 66.1295 136.129 66.0618 135.908 66.0618C135.664 66.0618 135.448 66.1633 135.26 66.3665C135.072 66.5697 134.967 66.8011 134.945 67.0608L132.289 66.502C132.378 65.5312 132.798 64.837 133.551 64.4193C134.314 63.9904 135.166 63.7759 136.107 63.7759C136.782 63.7759 137.423 63.8831 138.032 64.0976C138.641 64.3121 139.133 64.6282 139.509 65.0458C139.885 65.4522 140.074 65.9263 140.074 66.4681C140.074 66.8519 139.963 67.2244 139.742 67.5857C139.52 67.9356 139.266 68.1557 138.978 68.246C139.31 68.3589 139.57 68.5959 139.758 68.9572C139.946 69.3071 140.04 69.7191 140.04 70.1932C140.04 70.7915 139.874 71.3051 139.542 71.7341C139.21 72.1517 138.762 72.4678 138.198 72.6823C137.645 72.8967 137.031 73.004 136.356 73.004Z" fill="#212121"/>
<path d="M151 72.8685L148.261 72.9701L148.295 67.738L147.099 73.004H145.091L143.597 67.6534L143.763 72.9363L141.124 72.8516V63.6743L143.481 63.8267V63.8436L144.909 63.9283L145.971 67.7888L146.85 63.9114H150.336L151 72.8685Z" fill="#212121"/>
</svg>
